<svg xmlns="http://www.w3.org/2000/svg" width="6.844" height="13.549" viewBox="0 0 6.844 13.549">
  <path id="facebook" d="M126.9,7.216h1.485V13.33a.218.218,0,0,0,.219.219h2.518a.218.218,0,0,0,.219-.219V7.245h1.707a.219.219,0,0,0,.217-.194l.259-2.251a.218.218,0,0,0-.217-.244h-1.967V3.146c0-.425.229-.641.681-.641h1.286a.219.219,0,0,0,.219-.219V.22A.218.218,0,0,0,133.308,0h-1.772l-.081,0a3.4,3.4,0,0,0-2.22.837,2.328,2.328,0,0,0-.774,2.07v1.65H126.9a.218.218,0,0,0-.219.219V7A.219.219,0,0,0,126.9,7.216Z" transform="translate(-126.682)" fill="#232323"/>
</svg>
