<svg id="Group_259" data-name="Group 259" xmlns="http://www.w3.org/2000/svg" width="13.549" height="13.549" viewBox="0 0 13.549 13.549">
  <path id="Path_4340" data-name="Path 4340" d="M9.513,0H4.036A4.041,4.041,0,0,0,0,4.036V9.513a4.041,4.041,0,0,0,4.036,4.036H9.513a4.041,4.041,0,0,0,4.036-4.036V4.036A4.041,4.041,0,0,0,9.513,0Zm2.673,9.513a2.673,2.673,0,0,1-2.673,2.673H4.036A2.673,2.673,0,0,1,1.363,9.513V4.036A2.673,2.673,0,0,1,4.036,1.363H9.513a2.673,2.673,0,0,1,2.673,2.673V9.513Z" transform="translate(0 0)" fill="#232323"/>
  <path id="Path_4341" data-name="Path 4341" d="M136.5,133a3.5,3.5,0,1,0,3.5,3.5A3.508,3.508,0,0,0,136.5,133Zm0,5.645a2.141,2.141,0,1,1,2.141-2.141A2.141,2.141,0,0,1,136.5,138.645Z" transform="translate(-129.73 -129.73)" fill="#232323"/>
  <ellipse id="Ellipse_10" data-name="Ellipse 10" cx="0.84" cy="0.84" rx="0.84" ry="0.84" transform="translate(9.446 2.457)" fill="#232323"/>
</svg>
