<svg xmlns="http://www.w3.org/2000/svg" xmlns:xlink="http://www.w3.org/1999/xlink" width="470" height="470" viewBox="0 0 470 470">
  <defs>
    <clipPath id="clip-path">
      <path id="Path_24463" data-name="Path 24463" d="M83.792,248.9,112.647,89.577l186.605-6.516L270.4,242.379Z" transform="translate(-83.792 -83.061)" fill="none"/>
    </clipPath>
  </defs>
  <g id="Group_1396" data-name="Group 1396" transform="translate(-375 -4571)">
    <path id="Rectangle_726" data-name="Rectangle 726" d="M0,0H415a55,55,0,0,1,55,55V470a0,0,0,0,1,0,0H55A55,55,0,0,1,0,415V0A0,0,0,0,1,0,0Z" transform="translate(375 4571)" fill="#488eff" opacity="0.05"/>
    <g id="Group_1395" data-name="Group 1395" transform="translate(373.174 4567)">
      <path id="Path_23583" data-name="Path 23583" d="M133.1,335.666l19.766-11.411c1.213-.7,1.061-1.923-.345-2.732L133.439,310.5a5.267,5.267,0,0,0-4.734-.2l-19.764,11.418c-1.213.7-1.061,1.923.345,2.732l19.084,11.02A5.261,5.261,0,0,0,133.1,335.666Z" transform="translate(6.131 37.243)" fill="#c4d9e8" opacity="0.5" style="isolation: isolate"/>
      <g id="Group_688" data-name="Group 688" transform="translate(89.55 58.999)">
        <path id="Path_23464" data-name="Path 23464" d="M244.357,353.459l148.922-85.975c4.213-2.432,3.684-6.68-1.186-9.489L290.69,199.47c-4.865-2.809-12.223-3.115-16.436-.682L125.335,284.765c-4.213,2.43-3.684,6.677,1.184,9.489l101.4,58.525C232.788,355.589,240.145,355.894,244.357,353.459Z" transform="translate(-81.285 -38.488)" fill="#c4d9e8" opacity="0.5" style="isolation: isolate"/>
        <path id="Path_23465" data-name="Path 23465" d="M92.473,147.6,244.315,59.932a6.127,6.127,0,0,1,5.144-.632l-.009-.015.277.109c.023.009.045.015.068.026l5.487,2.1-4.925,2.412c.023.09.051.175.069.268l24.732,112.583c1.237,5.633-1.24,12.212-5.536,14.691L121.434,277.027l.528,6.278-6-2.322a8.433,8.433,0,0,1-4.3-6.111L86.933,162.291C85.7,156.656,88.178,150.08,92.473,147.6Z" transform="translate(-86.611 -58.999)" fill="#2c3964"/>
        <path id="Path_23466" data-name="Path 23466" d="M92.336,147.6,244.179,59.932a6.127,6.127,0,0,1,5.144-.632l-.009-.015.276.109a.489.489,0,0,1,.068.026l5.487,2.1-4.929,2.412c.023.09.051.176.071.268l16.3,74.2L192.3,196.281,87.54,153.655A11.77,11.77,0,0,1,92.336,147.6Z" transform="translate(-86.474 -58.999)" fill="#396caa"/>
        <path id="Path_23467" data-name="Path 23467" d="M98.2,153.346,86.64,148.424a14.466,14.466,0,0,1,4.683-11.574l18.3,7.695Z" transform="translate(-86.612 -47.44)" fill="#274f89"/>
        <path id="Path_23468" data-name="Path 23468" d="M126.519,282.436,278.36,194.768c4.3-2.477,6.776-9.057,5.538-14.691L259.164,67.5c-1.239-5.636-5.724-8.187-10.017-5.71L97.3,149.452c-4.3,2.477-6.776,9.056-5.536,14.691L116.5,276.728C117.739,282.356,122.224,284.916,126.519,282.436Z" transform="translate(-85.894 -58.726)" fill="#d4e6ff"/>
        <path id="Path_23469" data-name="Path 23469" d="M129,272.991l142.8-82.405c3.931-2.269,6.2-8.293,5.064-13.437L254.236,74.131c-1.134-5.156-5.238-7.495-9.168-5.224L102.269,151.3c-3.931,2.269-6.2,8.293-5.064,13.437l22.633,103.018C120.966,272.921,125.069,275.261,129,272.991Z" transform="translate(-85.083 -57.657)" fill="#fff"/>
        <path id="Path_23470" data-name="Path 23470" d="M129,272.991l142.8-82.405c3.931-2.269,6.2-8.293,5.064-13.437L254.236,74.131c-1.134-5.156-5.238-7.495-9.168-5.224L102.269,151.3c-3.931,2.269-6.2,8.293-5.064,13.437l22.633,103.018C120.966,272.921,125.069,275.261,129,272.991Z" transform="translate(-85.083 -57.657)" fill="#fff"/>
        <path id="Path_23471" data-name="Path 23471" d="M120.159,267.681l20.755-2.74L274.9,187.584c4.3-2.477,11.8-2.171,16.759.695L386.6,243.073l12.547-1.654v7.121h-.013c.083,1.646-.854,3.231-2.88,4.4L244.411,340.606c-4.3,2.477-11.8,2.171-16.759-.689L124.261,280.238c-2.791-1.616-4.183-3.687-4.1-5.636h0Z" transform="translate(-81.631 -40.156)" fill="#2c3964"/>
        <path id="Path_23472" data-name="Path 23472" d="M207.817,215.261l9.52-5.494H321.99l51.6,29.77,12.551-1.658V245h-.011c.08,1.646-.854,3.231-2.883,4.4L231.4,337.064a15.707,15.707,0,0,1-8.649,1.616Z" transform="translate(-68.616 -36.614)" fill="#244780"/>
        <path id="Path_23473" data-name="Path 23473" d="M358.23,234.978l5.571-.736v7.121h-.013c.08,1.646-.854,3.231-2.883,4.4l-2.676,1.546Z" transform="translate(-46.283 -32.98)" fill="#5793ce"/>
        <path id="Path_23474" data-name="Path 23474" d="M228.856,323.395a19.448,19.448,0,0,1-14.241-.884V306.627h14.241Z" transform="translate(-67.607 -22.233)" fill="#274f89"/>
        <path id="Path_23475" data-name="Path 23475" d="M244.411,335.02l151.843-87.668c4.3-2.477,3.755-6.81-1.2-9.676L291.656,178c-4.953-2.863-12.462-3.174-16.756-.695l-151.848,87.67c-4.3,2.477-3.758,6.81,1.2,9.676l103.393,59.675C232.617,337.189,240.116,337.5,244.411,335.02Z" transform="translate(-81.632 -41.682)" fill="#d4e6ff"/>
        <g id="Group_687-2" data-name="Group 687-2" transform="translate(54.022 139.349)">
          <path id="Path_23476" data-name="Path 23476" d="M305.724,214.133l6.87-3.968c.551-.323.481-.873-.155-1.243l-8.109-4.681a2.4,2.4,0,0,0-2.153-.09l-6.872,3.967c-.551.324-.481.875.155,1.245l8.109,4.681A2.4,2.4,0,0,0,305.724,214.133Z" transform="translate(-109.704 -176.828)" fill="#173d7a"/>
          <path id="Path_23477" data-name="Path 23477" d="M296.486,219.463l6.868-3.973c.552-.324.484-.875-.154-1.244l-8.109-4.681a2.4,2.4,0,0,0-2.156-.088l-6.87,3.968c-.552.323-.484.873.154,1.243l8.111,4.681A2.4,2.4,0,0,0,296.486,219.463Z" transform="translate(-111.076 -176.038)" fill="#173d7a"/>
          <path id="Path_23478" data-name="Path 23478" d="M287.247,224.795l6.87-3.967c.552-.324.483-.875-.154-1.243l-8.111-4.681a2.386,2.386,0,0,0-2.156-.088l-6.869,3.966c-.552.324-.483.875.154,1.243l8.111,4.681A2.387,2.387,0,0,0,287.247,224.795Z" transform="translate(-112.447 -175.245)" fill="#173d7a"/>
          <path id="Path_23479" data-name="Path 23479" d="M274.3,220.294l6.872-3.968c.551-.323.481-.873-.155-1.243l-6.808-3.93a2.389,2.389,0,0,0-2.153-.088l-6.87,3.966c-.551.324-.484.875.155,1.243l6.807,3.931A2.39,2.39,0,0,0,274.3,220.294Z" transform="translate(-114.175 -175.802)" fill="#173d7a"/>
          <path id="Path_23480" data-name="Path 23480" d="M265.065,225.626l6.87-3.966c.551-.324.483-.875-.155-1.243l-6.807-3.931a2.393,2.393,0,0,0-2.156-.088l-6.87,3.967c-.551.323-.481.873.155,1.243l6.807,3.93A2.393,2.393,0,0,0,265.065,225.626Z" transform="translate(-115.547 -175.01)" fill="#173d7a"/>
          <path id="Path_23481" data-name="Path 23481" d="M255.827,230.961l6.87-3.968c.551-.323.481-.873-.155-1.24l-6.807-3.931a2.394,2.394,0,0,0-2.156-.088l-6.87,3.966c-.551.324-.481.875.155,1.245l6.807,3.93A2.393,2.393,0,0,0,255.827,230.961Z" transform="translate(-116.919 -174.218)" fill="#173d7a"/>
          <path id="Path_23482" data-name="Path 23482" d="M246.589,236.294l6.87-3.966c.551-.323.481-.875-.155-1.243l-6.807-3.931a2.4,2.4,0,0,0-2.156-.088l-6.87,3.968c-.551.324-.483.873.154,1.243l6.808,3.93A2.386,2.386,0,0,0,246.589,236.294Z" transform="translate(-118.29 -173.426)" fill="#173d7a"/>
          <path id="Path_23483" data-name="Path 23483" d="M237.35,241.628l6.87-3.967c.551-.323.481-.873-.155-1.243l-6.807-3.93a2.4,2.4,0,0,0-2.153-.09l-6.872,3.968c-.551.324-.481.875.155,1.243l6.807,3.93A2.386,2.386,0,0,0,237.35,241.628Z" transform="translate(-119.662 -172.634)" fill="#173d7a"/>
          <path id="Path_23484" data-name="Path 23484" d="M228.11,246.962l6.872-3.968c.551-.323.481-.875-.155-1.243l-6.807-3.93a2.4,2.4,0,0,0-2.153-.09L219,241.7c-.552.324-.484.875.154,1.243l6.808,3.93A2.4,2.4,0,0,0,228.11,246.962Z" transform="translate(-121.034 -171.843)" fill="#173d7a"/>
          <path id="Path_23485" data-name="Path 23485" d="M218.873,252.295l6.87-3.966c.552-.324.486-.875-.154-1.244l-6.807-3.93a2.393,2.393,0,0,0-2.156-.088l-6.87,3.966c-.551.324-.481.875.155,1.244l6.807,3.93A2.391,2.391,0,0,0,218.873,252.295Z" transform="translate(-122.405 -171.051)" fill="#173d7a"/>
          <path id="Path_23486" data-name="Path 23486" d="M209.636,257.63l6.87-3.968c.551-.323.481-.875-.155-1.243l-6.807-3.93a2.385,2.385,0,0,0-2.153-.09l-6.87,3.968c-.552.324-.484.875.154,1.243l6.807,3.93A2.394,2.394,0,0,0,209.636,257.63Z" transform="translate(-123.777 -170.259)" fill="#173d7a"/>
          <path id="Path_23487" data-name="Path 23487" d="M200.4,262.964l6.87-3.968c.551-.324.481-.875-.155-1.243l-6.807-3.93a2.39,2.39,0,0,0-2.156-.09l-6.868,3.968c-.552.323-.486.875.154,1.243l6.807,3.93A2.4,2.4,0,0,0,200.4,262.964Z" transform="translate(-125.149 -169.467)" fill="#173d7a"/>
          <path id="Path_23488" data-name="Path 23488" d="M191.162,268.3l6.869-3.967c.552-.324.484-.875-.154-1.243l-6.807-3.93a2.386,2.386,0,0,0-2.156-.088l-6.87,3.966c-.552.323-.483.875.154,1.243l6.808,3.93A2.39,2.39,0,0,0,191.162,268.3Z" transform="translate(-126.52 -168.675)" fill="#173d7a"/>
          <path id="Path_23489" data-name="Path 23489" d="M260.689,217.768l6.87-3.966c.552-.323.483-.875-.154-1.243l-6.807-3.93a2.39,2.39,0,0,0-2.156-.09l-6.87,3.968c-.551.324-.481.875.155,1.243l6.807,3.93A2.384,2.384,0,0,0,260.689,217.768Z" transform="translate(-116.197 -176.177)" fill="#396caa"/>
          <path id="Path_23490" data-name="Path 23490" d="M270.066,212.357l6.87-3.968c.552-.323.483-.875-.154-1.243l-6.807-3.93a2.39,2.39,0,0,0-2.156-.09l-6.87,3.968c-.551.324-.484.875.154,1.243l6.808,3.93A2.387,2.387,0,0,0,270.066,212.357Z" transform="translate(-114.805 -176.981)" fill="#396caa"/>
          <path id="Path_23491" data-name="Path 23491" d="M279.458,207.524l14.8-8.544c.551-.323.484-.873-.154-1.243l-6.808-3.93a2.389,2.389,0,0,0-2.153-.088l-14.8,8.542c-.551.324-.483.875.155,1.243l6.807,3.93A2.39,2.39,0,0,0,279.458,207.524Z" transform="translate(-113.41 -178.378)" fill="#173d7a"/>
          <path id="Path_23492" data-name="Path 23492" d="M272.893,200.722l12.007-6.934c.551-.323.483-.873-.154-1.24l-6.807-3.93a2.392,2.392,0,0,0-2.153-.09l-12.01,6.932c-.551.324-.483.875.155,1.245l6.807,3.93A2.4,2.4,0,0,0,272.893,200.722Z" transform="translate(-114.385 -179.148)" fill="#173d7a"/>
          <path id="Path_23493" data-name="Path 23493" d="M251.456,223.107l6.87-3.967c.551-.323.483-.873-.155-1.243l-6.807-3.93a2.4,2.4,0,0,0-2.153-.09l-6.87,3.967c-.551.324-.484.875.155,1.243l6.807,3.93A2.385,2.385,0,0,0,251.456,223.107Z" transform="translate(-117.568 -175.384)" fill="#396caa"/>
          <path id="Path_23494" data-name="Path 23494" d="M242.215,228.435l6.87-3.967c.552-.323.484-.873-.154-1.24l-6.807-3.932a2.393,2.393,0,0,0-2.156-.088l-6.87,3.968c-.551.323-.483.873.154,1.243l6.808,3.93A2.391,2.391,0,0,0,242.215,228.435Z" transform="translate(-118.94 -174.593)" fill="#173d7a"/>
          <path id="Path_23495" data-name="Path 23495" d="M232.977,233.769l6.87-3.966c.551-.324.481-.875-.155-1.245l-6.807-3.93a2.4,2.4,0,0,0-2.155-.088l-6.87,3.966c-.551.324-.483.875.155,1.244l6.807,3.93A2.394,2.394,0,0,0,232.977,233.769Z" transform="translate(-120.311 -173.801)" fill="#173d7a"/>
          <path id="Path_23496" data-name="Path 23496" d="M223.735,239.1l6.87-3.968c.552-.324.483-.875-.155-1.243l-6.807-3.93a2.392,2.392,0,0,0-2.153-.09l-6.872,3.968c-.551.323-.481.875.155,1.243l6.807,3.93A2.393,2.393,0,0,0,223.735,239.1Z" transform="translate(-121.684 -173.01)" fill="#173d7a"/>
          <path id="Path_23497" data-name="Path 23497" d="M214.5,244.438l6.87-3.968c.552-.324.483-.875-.155-1.243l-6.807-3.93a2.388,2.388,0,0,0-2.155-.09l-6.87,3.968c-.551.323-.481.875.155,1.243l6.807,3.93A2.4,2.4,0,0,0,214.5,244.438Z" transform="translate(-123.055 -172.218)" fill="#173d7a"/>
          <path id="Path_23498" data-name="Path 23498" d="M205.263,249.77l6.87-3.968c.551-.324.483-.873-.155-1.243l-6.808-3.929a2.393,2.393,0,0,0-2.156-.088l-6.87,3.966c-.551.323-.481.875.155,1.243l6.807,3.932A2.4,2.4,0,0,0,205.263,249.77Z" transform="translate(-124.426 -171.426)" fill="#173d7a"/>
          <path id="Path_23499" data-name="Path 23499" d="M196.022,255.1l6.87-3.966c.551-.324.484-.875-.155-1.244l-6.807-3.93a2.389,2.389,0,0,0-2.153-.088l-6.869,3.968c-.551.323-.484.873.155,1.24l6.807,3.932A2.393,2.393,0,0,0,196.022,255.1Z" transform="translate(-125.798 -170.634)" fill="#173d7a"/>
          <path id="Path_23500" data-name="Path 23500" d="M186.786,260.437l6.87-3.968c.551-.323.484-.873-.155-1.243l-6.807-3.93a2.389,2.389,0,0,0-2.153-.088l-6.87,3.967c-.551.323-.483.873.154,1.24l6.808,3.932A2.392,2.392,0,0,0,186.786,260.437Z" transform="translate(-127.17 -169.842)" fill="#173d7a"/>
          <path id="Path_23501" data-name="Path 23501" d="M177.551,265.773l6.87-3.968c.551-.323.481-.873-.155-1.24l-6.807-3.932a2.394,2.394,0,0,0-2.156-.088l-6.87,3.966c-.552.324-.483.875.154,1.244l6.807,3.93A2.4,2.4,0,0,0,177.551,265.773Z" transform="translate(-128.541 -169.05)" fill="#173d7a"/>
          <path id="Path_23502" data-name="Path 23502" d="M161.125,275.86l14.991-8.656c.551-.323.481-.875-.155-1.243l-6.807-3.93a2.4,2.4,0,0,0-2.153-.09L152.009,270.6c-.551.323-.484.873.155,1.24l6.807,3.932A2.4,2.4,0,0,0,161.125,275.86Z" transform="translate(-130.98 -168.248)" fill="#173d7a"/>
          <path id="Path_23503" data-name="Path 23503" d="M143.138,265.3,155.791,258c.551-.323.481-.873-.155-1.243l-6.807-3.93a2.393,2.393,0,0,0-2.156-.088l-12.65,7.3c-.552.324-.484.875.154,1.243l6.807,3.932A2.4,2.4,0,0,0,143.138,265.3Z" transform="translate(-133.65 -169.615)" fill="#173d7a"/>
          <path id="Path_23504" data-name="Path 23504" d="M235.275,222.058l6.87-3.966c.551-.323.481-.875-.155-1.243l-6.807-3.932a2.4,2.4,0,0,0-2.153-.088l-6.872,3.968c-.551.324-.481.873.155,1.243l6.807,3.93A2.386,2.386,0,0,0,235.275,222.058Z" transform="translate(-119.97 -175.54)" fill="#173d7a"/>
          <path id="Path_23505" data-name="Path 23505" d="M244.742,216.593l6.87-3.968c.552-.323.484-.873-.154-1.243l-6.807-3.93a2.393,2.393,0,0,0-2.156-.09l-6.87,3.967c-.551.323-.481.875.155,1.243l6.807,3.93A2.391,2.391,0,0,0,244.742,216.593Z" transform="translate(-118.564 -176.352)" fill="#173d7a"/>
          <path id="Path_23506" data-name="Path 23506" d="M254.209,211.125l6.87-3.968c.551-.323.483-.873-.155-1.243l-6.8-3.927a2.389,2.389,0,0,0-2.153-.088l-6.872,3.966c-.551.323-.481.875.155,1.243l6.808,3.932A2.394,2.394,0,0,0,254.209,211.125Z" transform="translate(-117.158 -177.163)" fill="#396caa"/>
          <path id="Path_23507" data-name="Path 23507" d="M263.679,205.652l6.87-3.967c.551-.323.484-.873-.155-1.24l-6.807-3.931a2.4,2.4,0,0,0-2.156-.088l-6.87,3.967c-.551.323-.481.873.155,1.243l6.807,3.93A2.386,2.386,0,0,0,263.679,205.652Z" transform="translate(-115.753 -177.976)" fill="#173d7a"/>
          <path id="Path_23508" data-name="Path 23508" d="M226.034,227.392l6.872-3.968c.551-.323.483-.873-.155-1.243l-6.807-3.93a2.4,2.4,0,0,0-2.153-.09l-6.87,3.968c-.552.324-.484.875.154,1.243l6.808,3.93A2.387,2.387,0,0,0,226.034,227.392Z" transform="translate(-121.342 -174.748)" fill="#173d7a"/>
          <path id="Path_23509" data-name="Path 23509" d="M216.8,232.725l6.87-3.967c.552-.323.484-.873-.154-1.24l-6.808-3.932a2.389,2.389,0,0,0-2.153-.088l-6.87,3.967c-.552.323-.483.873.154,1.243l6.808,3.93A2.389,2.389,0,0,0,216.8,232.725Z" transform="translate(-122.713 -173.956)" fill="#173d7a"/>
          <path id="Path_23510" data-name="Path 23510" d="M207.56,238.059l6.87-3.966c.551-.324.481-.875-.155-1.245l-6.807-3.93a2.389,2.389,0,0,0-2.153-.088l-6.87,3.966c-.552.324-.483.875.154,1.244l6.807,3.93A2.394,2.394,0,0,0,207.56,238.059Z" transform="translate(-124.085 -173.165)" fill="#173d7a"/>
          <path id="Path_23511" data-name="Path 23511" d="M198.323,243.394l6.87-3.967c.551-.323.481-.875-.155-1.243l-6.807-3.93a2.385,2.385,0,0,0-2.153-.09l-6.87,3.967c-.552.324-.484.875.154,1.243l6.807,3.93A2.394,2.394,0,0,0,198.323,243.394Z" transform="translate(-125.457 -172.372)" fill="#173d7a"/>
          <path id="Path_23512" data-name="Path 23512" d="M189.083,248.728l6.87-3.967c.552-.324.484-.875-.154-1.244l-6.807-3.928a2.39,2.39,0,0,0-2.156-.09l-6.872,3.968c-.551.323-.481.875.155,1.243l6.808,3.93A2.393,2.393,0,0,0,189.083,248.728Z" transform="translate(-126.829 -171.58)" fill="#173d7a"/>
          <path id="Path_23513" data-name="Path 23513" d="M179.841,254.06l6.87-3.968c.552-.324.483-.875-.154-1.243l-6.807-3.93a2.386,2.386,0,0,0-2.156-.088l-6.872,3.966c-.551.323-.481.875.155,1.243l6.807,3.93A2.389,2.389,0,0,0,179.841,254.06Z" transform="translate(-128.201 -170.789)" fill="#173d7a"/>
          <path id="Path_23514" data-name="Path 23514" d="M170.607,259.393l6.872-3.966c.552-.324.483-.875-.154-1.245l-6.808-3.93a2.389,2.389,0,0,0-2.153-.088l-6.87,3.967c-.552.323-.484.873.154,1.243l6.807,3.93A2.4,2.4,0,0,0,170.607,259.393Z" transform="translate(-129.571 -169.997)" fill="#173d7a"/>
          <path id="Path_23515" data-name="Path 23515" d="M161.371,264.723l6.87-3.967c.551-.323.483-.873-.154-1.243l-6.808-3.93a2.394,2.394,0,0,0-2.156-.088l-6.87,3.968c-.551.323-.481.873.155,1.24l6.807,3.931A2.393,2.393,0,0,0,161.371,264.723Z" transform="translate(-130.943 -169.205)" fill="#173d7a"/>
          <path id="Path_23516" data-name="Path 23516" d="M152.132,270.062l6.87-3.968c.551-.324.484-.875-.155-1.243l-6.807-3.93a2.385,2.385,0,0,0-2.153-.09l-6.87,3.967c-.551.323-.484.873.155,1.243l6.807,3.93A2.4,2.4,0,0,0,152.132,270.062Z" transform="translate(-132.315 -168.413)" fill="#173d7a"/>
          <path id="Path_23517" data-name="Path 23517" d="M240.139,208.866l6.87-3.968c.552-.323.484-.873-.154-1.243l-6.807-3.93a2.4,2.4,0,0,0-2.155-.09l-6.87,3.967c-.551.324-.484.875.154,1.243l6.808,3.93A2.385,2.385,0,0,0,240.139,208.866Z" transform="translate(-119.248 -177.499)" fill="#173d7a"/>
          <path id="Path_23518" data-name="Path 23518" d="M249.331,203.558l6.87-3.966c.551-.324.484-.875-.155-1.243l-6.807-3.931a2.389,2.389,0,0,0-2.153-.088l-6.872,3.968c-.551.323-.481.873.155,1.243l6.807,3.93A2.386,2.386,0,0,0,249.331,203.558Z" transform="translate(-117.883 -178.287)" fill="#173d7a"/>
          <path id="Path_23519" data-name="Path 23519" d="M258.524,198.251l6.87-3.968c.551-.323.484-.873-.155-1.243l-6.807-3.93a2.393,2.393,0,0,0-2.156-.088l-6.87,3.966c-.551.323-.481.875.155,1.243l6.807,3.932A2.4,2.4,0,0,0,258.524,198.251Z" transform="translate(-116.518 -179.075)" fill="#173d7a"/>
          <path id="Path_23520" data-name="Path 23520" d="M267.714,192.94l6.87-3.966c.552-.324.484-.875-.154-1.245l-6.807-3.93a2.394,2.394,0,0,0-2.156-.088l-6.87,3.968c-.551.323-.481.873.155,1.24l6.807,3.932A2.391,2.391,0,0,0,267.714,192.94Z" transform="translate(-115.154 -179.864)" fill="#173d7a"/>
          <path id="Path_23521" data-name="Path 23521" d="M257.675,187.146l6.87-3.968c.551-.323.483-.873-.154-1.243l-2.252-1.3a2.389,2.389,0,0,0-2.153-.088l-6.87,3.966c-.551.324-.484.875.155,1.245l2.249,1.3A2.393,2.393,0,0,0,257.675,187.146Z" transform="translate(-115.968 -180.333)" fill="#173d7a"/>
          <path id="Path_23522" data-name="Path 23522" d="M245.679,194.071l6.87-3.966c.551-.324.481-.875-.155-1.243l-2.251-1.3a2.4,2.4,0,0,0-2.153-.088l-6.872,3.968c-.551.323-.481.873.155,1.243l2.251,1.3A2.393,2.393,0,0,0,245.679,194.071Z" transform="translate(-117.749 -179.305)" fill="#173d7a"/>
          <path id="Path_23523" data-name="Path 23523" d="M236.525,199.36l6.87-3.968c.551-.324.484-.873-.155-1.243l-2.251-1.3a2.385,2.385,0,0,0-2.153-.088l-6.87,3.966c-.552.324-.484.875.154,1.245l2.251,1.3A2.4,2.4,0,0,0,236.525,199.36Z" transform="translate(-119.108 -178.52)" fill="#173d7a"/>
          <path id="Path_23524" data-name="Path 23524" d="M227.372,204.638l6.87-3.968c.551-.323.481-.875-.155-1.243l-2.251-1.3a2.4,2.4,0,0,0-2.153-.09l-6.87,3.967c-.551.324-.484.875.154,1.245l2.251,1.3A2.387,2.387,0,0,0,227.372,204.638Z" transform="translate(-120.467 -177.736)" fill="#173d7a"/>
          <path id="Path_23525" data-name="Path 23525" d="M218.217,209.928l6.87-3.967c.551-.323.483-.875-.154-1.243l-2.251-1.3a2.4,2.4,0,0,0-2.156-.09l-6.87,3.967c-.551.324-.481.875.155,1.245l2.251,1.3A2.387,2.387,0,0,0,218.217,209.928Z" transform="translate(-121.826 -176.951)" fill="#173d7a"/>
          <path id="Path_23526" data-name="Path 23526" d="M167.113,239.432l6.87-3.966c.551-.324.481-.875-.155-1.243l-2.251-1.3a2.4,2.4,0,0,0-2.156-.088l-6.869,3.967c-.552.323-.486.873.154,1.243l2.251,1.3A2.394,2.394,0,0,0,167.113,239.432Z" transform="translate(-129.414 -172.57)" fill="#173d7a"/>
          <path id="Path_23527" data-name="Path 23527" d="M157.958,244.717l6.872-3.968c.552-.323.484-.873-.154-1.243l-2.258-1.293a2.4,2.4,0,0,0-2.156-.088l-6.87,3.968c-.551.323-.481.873.155,1.243l2.251,1.3A2.389,2.389,0,0,0,157.958,244.717Z" transform="translate(-130.774 -171.784)" fill="#173d7a"/>
          <path id="Path_23528" data-name="Path 23528" d="M148.8,250l6.868-3.968c.552-.323.484-.873-.154-1.243l-2.251-1.3a2.4,2.4,0,0,0-2.156-.09l-6.861,3.968c-.551.324-.484.875.154,1.244l2.252,1.3A2.391,2.391,0,0,0,148.8,250Z" transform="translate(-132.131 -171.001)" fill="#173d7a"/>
          <path id="Path_23529" data-name="Path 23529" d="M139.654,255.285l6.87-3.968c.551-.323.484-.873-.155-1.24l-2.249-1.3a2.393,2.393,0,0,0-2.156-.088l-6.87,3.968c-.551.323-.481.873.155,1.243l2.251,1.3A2.385,2.385,0,0,0,139.654,255.285Z" transform="translate(-133.491 -170.216)" fill="#173d7a"/>
          <path id="Path_23530" data-name="Path 23530" d="M230.9,214.2l6.874-3.968c.551-.324.481-.875-.155-1.243l-6.807-3.93a2.4,2.4,0,0,0-2.155-.09l-6.87,3.967c-.552.323-.484.875.154,1.243l6.808,3.93A2.391,2.391,0,0,0,230.9,214.2Z" transform="translate(-120.619 -176.707)" fill="#173d7a"/>
          <path id="Path_23531" data-name="Path 23531" d="M221.661,219.534l6.872-3.967c.551-.323.481-.875-.155-1.243l-6.807-3.93a2.4,2.4,0,0,0-2.155-.09l-6.869,3.967c-.552.323-.484.873.154,1.243l6.807,3.93A2.4,2.4,0,0,0,221.661,219.534Z" transform="translate(-121.991 -175.915)" fill="#173d7a"/>
          <path id="Path_23532" data-name="Path 23532" d="M212.425,224.868l6.87-3.968c.552-.323.484-.875-.155-1.243l-6.807-3.93a2.394,2.394,0,0,0-2.156-.09l-6.87,3.967c-.551.324-.481.875.155,1.243l6.807,3.93A2.393,2.393,0,0,0,212.425,224.868Z" transform="translate(-123.363 -175.123)" fill="#173d7a"/>
          <path id="Path_23533" data-name="Path 23533" d="M203.187,230.2l6.87-3.967c.551-.323.484-.875-.155-1.243l-6.807-3.93a2.4,2.4,0,0,0-2.156-.09l-6.87,3.967c-.551.324-.481.875.155,1.245l6.807,3.928A2.39,2.39,0,0,0,203.187,230.2Z" transform="translate(-124.735 -174.331)" fill="#173d7a"/>
          <path id="Path_23534" data-name="Path 23534" d="M193.953,235.534l6.87-3.967c.551-.324.481-.875-.155-1.243l-6.807-3.93a2.385,2.385,0,0,0-2.153-.088l-6.87,3.966c-.552.323-.484.875.154,1.243l6.808,3.93A2.385,2.385,0,0,0,193.953,235.534Z" transform="translate(-126.105 -173.539)" fill="#173d7a"/>
          <path id="Path_23535" data-name="Path 23535" d="M184.712,240.867l6.87-3.966c.551-.324.481-.875-.155-1.244l-6.807-3.93a2.393,2.393,0,0,0-2.156-.088l-6.87,3.968c-.551.323-.484.873.155,1.24l6.807,3.932A2.393,2.393,0,0,0,184.712,240.867Z" transform="translate(-127.478 -172.747)" fill="#173d7a"/>
          <path id="Path_23536" data-name="Path 23536" d="M175.473,246.2l6.87-3.967c.551-.324.484-.875-.155-1.243l-6.807-3.93a2.392,2.392,0,0,0-2.153-.09l-6.872,3.968c-.551.323-.481.875.155,1.243l6.807,3.93A2.393,2.393,0,0,0,175.473,246.2Z" transform="translate(-128.849 -171.955)" fill="#173d7a"/>
          <path id="Path_23537" data-name="Path 23537" d="M166.233,251.537l6.872-3.968c.551-.324.481-.875-.155-1.243l-6.807-3.93a2.394,2.394,0,0,0-2.156-.09l-6.87,3.968c-.551.323-.481.873.155,1.243l6.807,3.93A2.4,2.4,0,0,0,166.233,251.537Z" transform="translate(-130.221 -171.163)" fill="#173d7a"/>
          <path id="Path_23538" data-name="Path 23538" d="M156.994,256.869l6.87-3.968c.551-.324.484-.873-.154-1.243l-6.808-3.93a2.385,2.385,0,0,0-2.153-.088l-6.87,3.966c-.552.323-.484.875.155,1.243l6.807,3.932A2.4,2.4,0,0,0,156.994,256.869Z" transform="translate(-131.593 -170.372)" fill="#173d7a"/>
          <path id="Path_23539" data-name="Path 23539" d="M283.715,215.855l20.235-11.683c.551-.323.484-.873-.154-1.243L296.988,199a2.393,2.393,0,0,0-2.156-.088L274.6,210.592c-.551.323-.481.875.155,1.243l6.807,3.93A2.391,2.391,0,0,0,283.715,215.855Z" transform="translate(-112.777 -177.607)" fill="#173d7a"/>
          <path id="Path_23540" data-name="Path 23540" d="M170.223,281.381,190.457,269.7c.552-.324.484-.875-.154-1.245l-6.807-3.93a2.393,2.393,0,0,0-2.156-.088l-20.234,11.681c-.551.324-.484.875.155,1.243l6.807,3.93A2.391,2.391,0,0,0,170.223,281.381Z" transform="translate(-129.629 -167.878)" fill="#173d7a"/>
          <path id="Path_23541" data-name="Path 23541" d="M207.338,270.931l6.87-3.966c.551-.324.481-.875-.155-1.243l-8.111-4.681a2.385,2.385,0,0,0-2.153-.09l-6.87,3.968c-.551.323-.481.875.155,1.243l8.109,4.681A2.387,2.387,0,0,0,207.338,270.931Z" transform="translate(-124.311 -168.395)" fill="#173d7a"/>
          <path id="Path_23542" data-name="Path 23542" d="M274.423,232.506l10.987-6.342c.551-.324.481-.875-.155-1.243l-8.11-4.681a2.385,2.385,0,0,0-2.153-.09L264,226.495c-.551.323-.481.873.155,1.24l8.109,4.683A2.391,2.391,0,0,0,274.423,232.506Z" transform="translate(-114.351 -174.453)" fill="#173d7a"/>
          <path id="Path_23543" data-name="Path 23543" d="M216.238,266.1l10.987-6.344c.551-.324.481-.875-.155-1.244l-8.109-4.681a2.4,2.4,0,0,0-2.156-.088l-10.984,6.338c-.551.323-.483.873.155,1.243l8.109,4.681A2.394,2.394,0,0,0,216.238,266.1Z" transform="translate(-122.99 -169.465)" fill="#173d7a"/>
          <path id="Path_23544" data-name="Path 23544" d="M261.1,240.2l10.988-6.344c.551-.323.483-.873-.155-1.243l-8.114-4.68a2.394,2.394,0,0,0-2.156-.088l-10.986,6.342c-.552.324-.486.875.154,1.243l8.109,4.681A2.385,2.385,0,0,0,261.1,240.2Z" transform="translate(-116.33 -173.311)" fill="#173d7a"/>
          <path id="Path_23545" data-name="Path 23545" d="M266.366,227.854,218.6,255.431a.653.653,0,0,0,0,1.239l8.269,4.773a2.37,2.37,0,0,0,2.145,0l47.77-27.575Z" transform="translate(-121.104 -173.278)" fill="#173d7a"/>
          <path id="Path_23546" data-name="Path 23546" d="M181.151,279.307l-7.648,4.416c-.454.262-.4.718.125,1.02l3.317,1.916a1.962,1.962,0,0,0,1.763.074l7.648-4.417c.454-.261.4-.718-.125-1.018l-3.317-1.916A1.952,1.952,0,0,0,181.151,279.307Z" transform="translate(-127.778 -165.664)" fill="#173d7a"/>
          <path id="Path_23547" data-name="Path 23547" d="M190.466,273.929l-7.647,4.418c-.454.261-.4.716.125,1.018l3.317,1.916a1.965,1.965,0,0,0,1.764.074l7.648-4.417c.451-.261.4-.718-.128-1.017L192.229,274A1.952,1.952,0,0,0,190.466,273.929Z" transform="translate(-126.395 -166.463)" fill="#173d7a"/>
          <path id="Path_23548" data-name="Path 23548" d="M199.7,268.595l-7.647,4.417c-.451.261-.4.718.125,1.02l3.317,1.913a1.96,1.96,0,0,0,1.765.074l7.648-4.417c.451-.261.4-.716-.127-1.018l-3.317-1.916A1.961,1.961,0,0,0,199.7,268.595Z" transform="translate(-125.023 -167.254)" fill="#173d7a"/>
          <path id="Path_23549" data-name="Path 23549" d="M185.363,270.984l-7.648,4.417c-.451.261-.4.718.125,1.018l3.319,1.916a1.952,1.952,0,0,0,1.763.073l7.648-4.417c.451-.261.394-.715-.127-1.018l-3.317-1.916A1.962,1.962,0,0,0,185.363,270.984Z" transform="translate(-127.153 -166.9)" fill="#173d7a"/>
        </g>
      </g>
      <g id="Group_707" data-name="Group 707" transform="translate(86.311 86.634)">
        <g id="Group_1364" data-name="Group 1364">
          <g id="Group_1363" data-name="Group 1363">
            <g id="Group_1359" data-name="Group 1359">
              <g id="Group_1358" data-name="Group 1358" clip-path="url(#clip-path)">
                <g id="Group_1362" data-name="Group 1362" transform="translate(4.838 0.405)">
                  <g id="Group_1361" data-name="Group 1361">
                    <g id="Group_1360" data-name="Group 1360">
                      <g id="Group_1359-2" data-name="Group 1359">
                        <g id="Group_1358-2" data-name="Group 1358">
                          <path id="Path_24463-2" data-name="Path 24463" d="M97.35,214.878a1.494,1.494,0,0,1-1.331-.689,3.468,3.468,0,0,1,.588-3.937,2.537,2.537,0,0,1,1.756-.961,1.519,1.519,0,0,1,1.341.689,3.472,3.472,0,0,1-.6,3.937,2.53,2.53,0,0,1-1.754.956m9.4-5.609a1.491,1.491,0,0,1-1.329-.689,3.464,3.464,0,0,1,.588-3.937,2.526,2.526,0,0,1,1.756-.961,1.519,1.519,0,0,1,1.341.689,3.472,3.472,0,0,1-.6,3.937,2.526,2.526,0,0,1-1.756.956m9.408-5.609a1.491,1.491,0,0,1-1.332-.689A3.5,3.5,0,0,1,115.42,199a2.524,2.524,0,0,1,1.748-.946,1.529,1.529,0,0,1,1.347.695,3.486,3.486,0,0,1-.588,3.936,2.564,2.564,0,0,1-1.768.958m3.912-19.153a3.477,3.477,0,0,0-1.657.523l-23.92,14.271v-.013l-3.675,2.195a6.276,6.276,0,0,0-2.74,6.2l3.495,17.471v.017A2.721,2.721,0,0,0,94.3,227.61a3.47,3.47,0,0,0,1.649-.525l5.108-3.052,1.825,9.1L108.3,219.72l15.252-9.088a6.289,6.289,0,0,0,2.756-6.2l-1.5-7.51h0l-1.993-9.963v-.015h0a3.247,3.247,0,0,0-1.074-1.923,2.451,2.451,0,0,0-1.649-.534" transform="translate(-88.004 -68.407)" fill="#0391fd"/>
                          <path id="Path_24464" data-name="Path 24464" d="M171.3,126.655a8.833,8.833,0,0,0-3.464.887,16.035,16.035,0,0,0-7.725,9.177c1.117-.536,2.32-1.124,3.5-1.759l.115.077.075.689-.079.163-1.148.537-.115.309,4.888,10.744,1.378-8.765-1.94-3.992c-.051-.1-.1-.155-.189-.152a.468.468,0,0,0-.18.053l-1,.469-.1-.062-.074-.7.08-.163c1.881-.772,3.759-1.657,5.628-2.641l.115.077.075.689-.078.165-1.006.469c-.19.086-.255.23-.17.389l4.808,10.566.813-5.245c.975-6.342-1.993-5.564-2.213-8.4a2.716,2.716,0,0,1,1.546-2.767,6.79,6.79,0,0,0-3.53-.819" transform="translate(-77.298 -76.996)" fill="#0391fd"/>
                          <path id="Path_24465" data-name="Path 24465" d="M175.254,129.167a21.587,21.587,0,0,1-.293,5.87l-2.005,11.69a17.546,17.546,0,0,0,4.07-12.583,10.3,10.3,0,0,0-1.773-4.977" transform="translate(-75.391 -76.621)" fill="#0391fd"/>
                          <path id="Path_24466" data-name="Path 24466" d="M168.38,138.21l-1.964,11.673a9.722,9.722,0,0,0,2.931-.857,12.642,12.642,0,0,0,3.227-2.215l-4.194-8.6" transform="translate(-76.362 -75.278)" fill="#0391fd"/>
                          <path id="Path_24467" data-name="Path 24467" d="M159.7,137.009a15.626,15.626,0,0,0-.385,5.214c.492,4.639,3.216,7.56,6.743,7.854L159.7,137.009" transform="translate(-77.427 -75.456)" fill="#0391fd"/>
                          <path id="Path_24468" data-name="Path 24468" d="M166.943,152.873c-4.262.15-7.653-3.091-8.222-8.484-.729-6.908,3.473-14.775,9.35-17.531a9.572,9.572,0,0,1,3.759-.967A7.151,7.151,0,0,1,175.986,127a9.533,9.533,0,0,1,4.061,7.4c.727,6.908-3.473,14.775-9.346,17.517a9.653,9.653,0,0,1-3.759.956M172,125a10.336,10.336,0,0,0-4.02,1.026c-6.268,2.931-10.752,11.322-9.97,18.694.6,5.757,4.232,9.211,8.778,9.052a10.256,10.256,0,0,0,3.992-1.006,17.4,17.4,0,0,0,7.629-7.695,19.445,19.445,0,0,0,2.344-11.012c-.374-3.566-1.91-6.369-4.322-7.89A7.779,7.779,0,0,0,171.992,125" transform="translate(-77.624 -77.24)" fill="#488eff"/>
                          <path id="Path_24469" data-name="Path 24469" d="M124.357,170.672a3.483,3.483,0,0,0-1.657.525v-.017L95.108,187.649a6.284,6.284,0,0,0-2.756,6.2l1.5,7.495v.013l23.92-14.271a3.48,3.48,0,0,1,1.657-.523,2.451,2.451,0,0,1,1.649.534,3.215,3.215,0,0,1,1.08,1.923v.015l1.993,9.963h0l3.666-2.182a6.289,6.289,0,0,0,2.756-6.2l-3.5-17.471a2.726,2.726,0,0,0-2.732-2.474" transform="translate(-87.37 -70.458)" fill="#4362a5"/>
                          <path id="Path_24470" data-name="Path 24470" d="M97.375,206.085a2.537,2.537,0,0,0-1.756.961,3.468,3.468,0,0,0-.588,3.937,1.494,1.494,0,0,0,1.331.689,2.53,2.53,0,0,0,1.754-.956,3.472,3.472,0,0,0,.6-3.937,1.519,1.519,0,0,0-1.341-.689" transform="translate(-87.015 -65.2)" fill="#fff"/>
                          <path id="Path_24471" data-name="Path 24471" d="M105.565,201.2a2.526,2.526,0,0,0-1.756.961,3.466,3.466,0,0,0-.588,3.937,1.491,1.491,0,0,0,1.329.689,2.526,2.526,0,0,0,1.756-.956,3.472,3.472,0,0,0,.6-3.937,1.519,1.519,0,0,0-1.341-.689" transform="translate(-85.799 -65.925)" fill="#fff"/>
                          <path id="Path_24472" data-name="Path 24472" d="M113.75,196.315a2.524,2.524,0,0,0-1.748.946,3.5,3.5,0,0,0-.593,3.954,1.491,1.491,0,0,0,1.332.689,2.56,2.56,0,0,0,1.767-.958,3.486,3.486,0,0,0,.588-3.936,1.529,1.529,0,0,0-1.347-.695" transform="translate(-84.583 -66.651)" fill="#fff"/>
                          <path id="Path_24473" data-name="Path 24473" d="M265.422,86.168l-.056.115L264.273,88.6c-.564,1.192-1.228,2.6-1.973,4.162l-1.723,3.591c-2.4,5.011-5.345,11.165-8.564,17.875l-.062.131-.243.521-.394-.1-.115-.028-1.168-.3c-6.711-1.708-12.778-3.263-17.2-4.391-.881-.23-1.7-.446-2.438-.644-.365-.1-.714-.189-1.042-.277l-1.723-.454-.354-.1,5.577,28.1,38.111-22.662-5.539-27.865m-1.046-.214L228.339,107.37c.733.175,1.608.392,2.635.629l2.373.574c2.7.676,6.016,1.493,9.72,2.421,2.373.574,4.9,1.208,7.517,1.857l.416.115.261.071,5.414-11.2,2.5-5.178c.736-1.524,1.424-2.946,2.056-4.249l.077-.148c1.275-2.633,2.319-4.772,3.066-6.3" transform="translate(-67.326 -83.037)" fill="#488eff"/>
                          <path id="Path_24474" data-name="Path 24474" d="M272.295,114.787l-.115.065-.028.018.142-.084m0-.011-.086.059.09-.047v-.011M266.249,84.9c-.181.392-.415.881-.689,1.468l5.529,27.872L232.978,136.9,227.4,108.8c-.167-.045-.323-.088-.459-.131-.2-.051-.382-.1-.537-.14,2.1,10.619,4.106,20.733,5.917,29.847l12.03-7.11,16.711-9.887,8.276-4.864,2.2-1.3.574-.324.189-.115c-.011-.048-.056-.246-.115-.56l-.345-1.625c-.287-1.436-.718-3.524-1.263-6.2-1.042-5.184-2.527-12.532-4.325-21.488m-.949-.33-27.148,16.151-11,6.546c.23.051.481.115.78.175l.3.069.241.056,36.037-21.416.065-.136.015-.017c.279-.564.519-1.046.706-1.432" transform="translate(-67.455 -83.242)" fill="#fff"/>
                          <path id="Path_24475" data-name="Path 24475" d="M272.338,114.841l-.09.047-.024.018.115-.065m0-.011v0m-45.9-6.253c2.109,10.626,4.115,20.738,5.922,29.86l-.124.069.148.075-.024-.145,12.035-7.121-12.03,7.11c-1.81-9.113-3.814-19.228-5.917-29.847h-.011m-.315-.094c2.142,10.785,4.176,21.023,6.009,30.25l.038.145.124-.069L251.712,127.2l-19.425,11.6-.128.084-.038-.145c-1.838-9.226-3.866-19.464-6.009-30.25m39.232-23.877-27.156,16.169L265.336,84.62l.008-.018m.2-.394L226.776,107.22h0l38.763-23v-.009" transform="translate(-67.499 -83.296)" fill="#488eff"/>
                          <path id="Path_24476" data-name="Path 24476" d="M266.454,84.59l-.084.186-.085.178c1.8,8.958,3.283,16.308,4.325,21.488.549,2.676.98,4.764,1.263,6.2l.345,1.625c.06.315.1.511.115.56l-.19.115-.574.324-2.2,1.3-8.276,4.864-16.711,9.887-12.035,7.121.024.145-.148-.075.124-.069c-1.807-9.121-3.814-19.234-5.922-29.86l-.045-.011h-.013l-.257-.083c2.142,10.785,4.176,21.023,6.009,30.25l.038.145.127-.084,19.425-11.6,9.5-5.672,8.225-4.927,2.166-1.312.558-.345.026-.017.028-.018.024-.018.086-.059v0h0c-.008-.048-.036-.23-.1-.546-.071-.368-.172-.908-.308-1.608-.273-1.436-.676-3.54-1.2-6.218L266.446,84.59m-.919-.369-38.752,23,.051.008.009.017c.115.018.23.045.358.075l11-6.546,27.156-16.172c.048-.1.094-.193.134-.279h.013v-.017l.045-.088" transform="translate(-67.499 -83.294)" fill="#fff"/>
                          <path id="Path_24477" data-name="Path 24477" d="M233.039,110.436c4.425,1.128,10.491,2.684,17.2,4.391l1.168.3.115.028.394.1.243-.521.062-.131-.062.131-.243.521-.394-.1-.115-.028c-.176-.059-.369-.1-.557-.157s-.407-.1-.6-.139c-6.724-1.708-12.791-3.263-17.216-4.391m-6.615-1.759h0l.045.011h.011c.155.039.338.09.537.14.14.044.3.086.459.131l.354.1,1.723.454c.328.088.676.181,1.042.277l-1.034-.277-1.735-.454c-.308-.086-.581-.155-.817-.23s-.427-.115-.594-.155m.079-1.4a1.424,1.424,0,0,0,.208.044h0l-.2-.041m-.3,0-.311.075-.038.086.216-.107.068-.036.065-.018m.16-.011a.558.558,0,0,1,.115.018h.013a.7.7,0,0,0-.127-.018m-.059,0a.594.594,0,0,0-.1.013.636.636,0,0,1,.1-.013h0m30.579-5.053-5.414,11.2c1.925-3.978,3.75-7.757,5.414-11.2m4.636-9.581-.077.148c-.632,1.308-1.32,2.731-2.056,4.249.766-1.581,1.479-3.056,2.133-4.4m3.132-6.431-.065.136c-.748,1.527-1.792,3.666-3.066,6.3l1.548-3.184c.628-1.275,1.162-2.367,1.584-3.25m1.96-1.754c-.059.115-.122.262-.206.459-.2.44-.486,1.034-.83,1.764l-1.092,2.316,1.092-2.316.056-.115c.276-.587.508-1.076.689-1.468l.084-.178.084-.186.122-.272m-.332-.982c-.272.056-.418.318-.517.516.1-.18.246-.459.517-.516" transform="translate(-67.537 -83.407)" fill="#fff"/>
                          <path id="Path_24478" data-name="Path 24478" d="M266.2,84l-.077.148c-.059.115-.146.262-.23.44-.214.425-.506,1.014-.86,1.732-.756,1.552-1.824,3.741-3.145,6.431-2.631,5.454-6.252,12.931-10.293,21.292l.107.028-.167.1.06-.13c-.333-.086-.689-.186-1.059-.268-6.716-1.676-12.805-3.18-17.234-4.3-2.2-.516-3.984-.952-5.236-1.263-.613-.122-1.091-.23-1.436-.318-.157-.026-.276-.054-.373-.068l-.133-.028v.017l.115.045c.094.028.214.056.365.115.345.084.8.214,1.411.385,1.248.326,3.017.795,5.189,1.378,4.431,1.113,10.507,2.667,17.219,4.376.392.115.8.211,1.168.3l.107.028.06-.131c4.04-8.424,7.663-15.98,10.287-21.466,1.29-2.725,2.334-4.914,3.062-6.464.359-.751.628-1.338.83-1.762.084-.2.148-.345.206-.459l.054-.163" transform="translate(-67.497 -83.328)" fill="#fff"/>
                          <path id="Path_24479" data-name="Path 24479" d="M251.6,114.256l.167-.1-.107-.028c4.04-8.36,7.661-15.837,10.293-21.292,1.321-2.693,2.39-4.882,3.145-6.431.354-.718.647-1.306.86-1.732.083-.178.17-.326.23-.44l.077-.148-.054.163c-.059.115-.122.261-.206.459-.2.424-.471,1.011-.83,1.762-.729,1.549-1.773,3.738-3.062,6.464-2.623,5.485-6.247,13.042-10.287,21.466l-.06.131-.107-.028c-.371-.084-.775-.181-1.168-.3-6.711-1.709-12.788-3.263-17.219-4.376-2.172-.581-3.942-1.05-5.189-1.378-.6-.17-1.067-.3-1.411-.385-.152-.059-.272-.086-.365-.115l-.115-.045v-.017l.133.028c.1.013.216.041.373.068.345.084.822.2,1.436.318,1.252.309,3.04.745,5.236,1.263,4.429,1.115,10.518,2.62,17.234,4.3.371.083.726.181,1.059.268l-.06.13m14.815-30.838-.115.038c-.272.056-.421.335-.517.516v.015c-.059.094-.115.21-.18.345v.009l-.045.088v.017h-.013c-.041.086-.086.18-.134.279l-.008.018c-.187.386-.427.868-.706,1.432l-.015.017c-.421.883-.956,1.975-1.584,3.25l-1.548,3.184c-.653,1.346-1.367,2.821-2.133,4.4l-2.5,5.178c-1.664,3.445-3.489,7.225-5.414,11.2l-.261-.071-.416-.115c-2.62-.649-5.144-1.282-7.517-1.857-3.7-.929-7.016-1.745-9.72-2.421l-2.373-.574c-1.021-.238-1.9-.459-2.635-.629l-.242-.056-.3-.069c-.3-.062-.555-.124-.78-.175-.13-.03-.247-.056-.358-.075l-.009-.017-.051-.008h0l-.1-.017a1.594,1.594,0,0,1-.208-.044h-.024a.558.558,0,0,0-.115-.018.212.212,0,0,0-.054,0h0a.621.621,0,0,0-.1.013l-.065.018-.068.036-.216.107-.1.047-.074.4c-.026.08-.09.5.246.634l.13.044.083.03h.013l.257.083h.013c.167.044.368.1.594.155s.51.142.817.23l1.735.454,1.034.277c.742.2,1.557.416,2.438.644,4.425,1.128,10.491,2.684,17.216,4.391.191.041.394.1.6.139a4.643,4.643,0,0,1,.557.157l.115.028.394.1.243-.521.062-.131c3.216-6.709,6.164-12.863,8.564-17.875l1.723-3.591c.745-1.567,1.409-2.97,1.973-4.162l1.092-2.316c.345-.735.626-1.323.83-1.764.084-.2.148-.345.206-.459v-.015a1.013,1.013,0,0,0,.115-.647l-.043-.24-.186-.073-.1-.045" transform="translate(-67.56 -83.414)" fill="#fff"/>
                          <path id="Path_24480" data-name="Path 24480" d="M156.1,169.826a1.16,1.16,0,0,0-.521.157,1.661,1.661,0,0,0-.828,1.617l-.09,8.269-.017.017-2.725-6.533c-.18-.442-.368-.781-.783-.766a1.553,1.553,0,0,0-.689.24,1.614,1.614,0,0,0-1.014,1.608l-.262,8.469-.028.017-2.578-6.8c-.175-.454-.4-.656-.712-.644a1.188,1.188,0,0,0-.523.172,1.735,1.735,0,0,0-.875,1.748,2.36,2.36,0,0,0,.237.682l3.36,7.571c.23.5.471.736.833.726a1.717,1.717,0,0,0,.724-.249,2.03,2.03,0,0,0,1.124-2.014l.306-7.73.028-.017,2.625,6.119c.23.512.459.789.854.774a1.6,1.6,0,0,0,.689-.23,2.023,2.023,0,0,0,1.148-1.982l.5-9.7a4.277,4.277,0,0,0-.017-.8c-.09-.528-.4-.733-.759-.721" transform="translate(-79.625 -70.584)" fill="#244780"/>
                          <path id="Path_24481" data-name="Path 24481" d="M159.8,177.508c-.786.028-1.263-.8-1.454-1.9a3.221,3.221,0,0,1,1.254-3.56,1.592,1.592,0,0,1,.705-.217c.753-.026,1.237.723,1.432,1.89a3.309,3.309,0,0,1-1.258,3.575,1.561,1.561,0,0,1-.679.208m1.263-7.712a3.992,3.992,0,0,0-1.756.546,6.033,6.033,0,0,0-2.957,6.365c.281,1.692,1.065,2.949,2.543,2.9a4.231,4.231,0,0,0,1.857-.6,5.818,5.818,0,0,0,2.972-6.38c-.3-1.774-1.235-2.883-2.659-2.832" transform="translate(-77.872 -70.589)" fill="#244780"/>
                          <path id="Path_24482" data-name="Path 24482" d="M167.352,166.011a1.193,1.193,0,0,0-.536.163,3.374,3.374,0,0,0-1.329,2.871l-.028.017-.15-.894c-.078-.487-.333-.71-.656-.7a.99.99,0,0,0-.422.127,1.522,1.522,0,0,0-.724,1.581l1.076,6.431c.075.442.261.787.658.774a1.2,1.2,0,0,0,.528-.175,1.525,1.525,0,0,0,.8-1.712l-.448-2.682c-.315-1.9.009-2.792.812-3.239l.358-.189a1.559,1.559,0,0,0,.792-1.7.713.713,0,0,0-.741-.68" transform="translate(-76.798 -71.15)" fill="#244780"/>
                          <path id="Path_24483" data-name="Path 24483" d="M171.732,171.342c-.735.026-1.225-.72-1.407-1.8s-.1-2.725,1.157-3.428a1.42,1.42,0,0,1,.644-.2c.8-.028,1.224.919,1.378,1.865a3.108,3.108,0,0,1-1.175,3.4,1.425,1.425,0,0,1-.6.172m1.925-11.673a1.175,1.175,0,0,0-.5.157,1.593,1.593,0,0,0-.8,1.712l.532,3.111-.041.018a1.389,1.389,0,0,0-1.062-.415,2.432,2.432,0,0,0-1.091.345c-2.1,1.148-2.735,3.754-2.361,5.956s1.378,3.1,2.548,3.056a2.994,2.994,0,0,0,1.316-.4,3.554,3.554,0,0,0,1.855-2.619l.028-.017.059.367c.083.5.293.751.617.741a1.12,1.12,0,0,0,.471-.152,1.4,1.4,0,0,0,.724-1.581l-1.586-9.532c-.1-.525-.345-.768-.7-.757" transform="translate(-76.094 -72.093)" fill="#244780"/>
                          <path id="Path_24484" data-name="Path 24484" d="M178.1,163.01l-.536-3.224,1.854-1.034a2.643,2.643,0,0,1,1.1-.368c.51-.017.857.281.976.985a2.459,2.459,0,0,1-1.3,2.468L178.1,163m3.437-7.17a4.16,4.16,0,0,0-1.809.581l-3.432,1.9a1.911,1.911,0,0,0-1.051,2.236l1.453,8.747c.1.558.389.857.8.842a1.208,1.208,0,0,0,.534-.167,1.8,1.8,0,0,0,.907-1.91l-.513-3.079,2.489-1.371a5.306,5.306,0,0,0,2.822-5.476c-.283-1.666-1.121-2.338-2.2-2.3" transform="translate(-75.062 -72.661)" fill="#244780"/>
                          <path id="Path_24485" data-name="Path 24485" d="M187.688,154.776a1.223,1.223,0,0,0-.536.163,3.388,3.388,0,0,0-1.329,2.871H185.8l-.152-.877c-.08-.489-.335-.71-.658-.7a.971.971,0,0,0-.421.125,1.464,1.464,0,0,0-.72,1.567l1.076,6.431c.071.451.255.8.647.783a1.211,1.211,0,0,0,.54-.184,1.512,1.512,0,0,0,.8-1.7l-.448-2.679c-.317-1.9.008-2.794.8-3.239l.358-.19a1.561,1.561,0,0,0,.792-1.7.713.713,0,0,0-.741-.68" transform="translate(-73.778 -72.819)" fill="#244780"/>
                          <path id="Path_24486" data-name="Path 24486" d="M190.525,156.86a3.121,3.121,0,0,1,1.509-2.83,1.565,1.565,0,0,1,.689-.2,1.339,1.339,0,0,1,1.3,1.115l-3.494,1.919m2.925-4.938a3.887,3.887,0,0,0-1.723.532,6.159,6.159,0,0,0-3.031,6.559c.247,1.468,1.077,2.723,2.614,2.67a4.408,4.408,0,0,0,1.931-.614c1.2-.67,3.02-2.385,2.783-3.758a.622.622,0,0,0-.62-.552.745.745,0,0,0-.345.1c-.8.446-.62,1.58-2.114,2.4a2.006,2.006,0,0,1-.894.281c-.689.024-1.154-.487-1.3-1.361l4.507-2.485a1.158,1.158,0,0,0,.7-1.469,2.473,2.473,0,0,0-2.506-2.311" transform="translate(-73.071 -73.243)" fill="#244780"/>
                          <path id="Path_24487" data-name="Path 24487" d="M200.37,148.153a5.075,5.075,0,0,0-2.135.679c-1.378.756-2.878,2.349-2.557,4.215.187,1.139.772,1.465,1.557,1.438a4.508,4.508,0,0,0,.908-.142l1.228-.317a4.559,4.559,0,0,1,.8-.163.411.411,0,0,1,.472.339.449.449,0,0,1,.006.068,1.628,1.628,0,0,1-1.014,1.48,1.85,1.85,0,0,1-.837.264,1.606,1.606,0,0,1-.813-.223,1.416,1.416,0,0,0-.671-.219.786.786,0,0,0-.345.1,1.318,1.318,0,0,0-.641,1.4c.109.639.68.95,1.484.919a5.078,5.078,0,0,0,2.171-.68c1.5-.822,2.93-2.575,2.608-4.441a1.425,1.425,0,0,0-1.519-1.324,1.112,1.112,0,0,0-.124.014,5.407,5.407,0,0,0-1.246.223l-.877.24a3.367,3.367,0,0,1-.727.157.407.407,0,0,1-.471-.333.3.3,0,0,1-.006-.055c-.074-.495.335-.959,1.034-1.336a1.663,1.663,0,0,1,.759-.247,1.416,1.416,0,0,1,.605.136,1.235,1.235,0,0,0,.508.13.785.785,0,0,0,.359-.115,1.433,1.433,0,0,0,.665-1.469c-.088-.537-.56-.761-1.2-.738" transform="translate(-72.024 -73.803)" fill="#244780"/>
                          <path id="Path_24488" data-name="Path 24488" d="M206.757,144.617a4.988,4.988,0,0,0-2.125.679c-1.385.771-2.871,2.346-2.571,4.23.185,1.13.768,1.46,1.542,1.432a4.316,4.316,0,0,0,.928-.154l1.228-.315a4.46,4.46,0,0,1,.813-.165.419.419,0,0,1,.481.346.393.393,0,0,1,.006.063,1.647,1.647,0,0,1-1.034,1.48,1.9,1.9,0,0,1-.854.27,1.576,1.576,0,0,1-.8-.211,1.317,1.317,0,0,0-.667-.238.731.731,0,0,0-.328.1,1.337,1.337,0,0,0-.656,1.418c.109.637.68.949,1.478.919a4.972,4.972,0,0,0,2.182-.695,4.615,4.615,0,0,0,2.622-4.44,1.427,1.427,0,0,0-1.521-1.325,1.155,1.155,0,0,0-.126.014,5.611,5.611,0,0,0-1.255.23l-.864.238a3.381,3.381,0,0,1-.73.157.4.4,0,0,1-.466-.331.314.314,0,0,1-.006-.057c-.088-.478.335-.958,1.026-1.336a1.657,1.657,0,0,1,.748-.238,1.359,1.359,0,0,1,.614.142,1.3,1.3,0,0,0,.513.13.8.8,0,0,0,.368-.115,1.475,1.475,0,0,0,.667-1.483c-.094-.537-.567-.761-1.213-.738" transform="translate(-71.075 -74.327)" fill="#244780"/>
                          <path id="Path_24489" data-name="Path 24489" d="M161.879,184.54a5.289,5.289,0,0,0-2.284.667c-1.908,1.046-3.765,3.117-3.349,5.637.17,1.026.617,1.958,2.037,1.91a4.457,4.457,0,0,0,.888-.133l2.641-.653a1.635,1.635,0,0,1,.35-.054.731.731,0,0,1,.8.656l0,.049a2.631,2.631,0,0,1-1.548,2.492,2.709,2.709,0,0,1-1.2.394,1.627,1.627,0,0,1-1.076-.394,1.38,1.38,0,0,0-.837-.415.938.938,0,0,0-.4.115,1.6,1.6,0,0,0-.763,1.6,1.813,1.813,0,0,0,2.056,1.413,5.863,5.863,0,0,0,2.543-.819c2.7-1.507,3.78-3.759,3.445-5.819-.184-1.1-.738-2.058-2.15-2.009a4.154,4.154,0,0,0-.964.16l-1.952.549a4.234,4.234,0,0,1-.941.184c-.4.013-.718-.115-.792-.574a2.269,2.269,0,0,1,1.387-2.231,2.76,2.76,0,0,1,1.193-.382,1.6,1.6,0,0,1,.929.278,1.285,1.285,0,0,0,.706.3.866.866,0,0,0,.4-.13,1.6,1.6,0,0,0,.848-1.585c-.145-.879-.959-1.243-1.96-1.209" transform="translate(-77.881 -68.401)" fill="#244780"/>
                          <path id="Path_24490" data-name="Path 24490" d="M170.763,182.258a1.24,1.24,0,0,0-.531.175,1.509,1.509,0,0,0-.8,1.7l.628,3.814a2.682,2.682,0,0,1-1.213,2.641,1.34,1.34,0,0,1-.6.2c-.5.017-.8-.4-.919-1.089l-.667-4.02c-.08-.451-.261-.791-.656-.776a1.279,1.279,0,0,0-.542.176,1.513,1.513,0,0,0-.8,1.7l.757,4.479c.257,1.542.967,2.049,1.769,2.02a2.853,2.853,0,0,0,1.246-.394,4.762,4.762,0,0,0,2.174-2.789h.024l.06.287c.08.511.291.815.639.8a.985.985,0,0,0,.45-.15,1.469,1.469,0,0,0,.71-1.646l-1.066-6.351c-.075-.444-.258-.789-.656-.776" transform="translate(-76.63 -68.739)" fill="#244780"/>
                          <path id="Path_24491" data-name="Path 24491" d="M175.717,186.636c-.791.026-1.224-.919-1.378-1.872a3.129,3.129,0,0,1,1.189-3.4,1.4,1.4,0,0,1,.6-.172c.733-.026,1.214.72,1.4,1.8s.115,2.725-1.157,3.428a1.4,1.4,0,0,1-.644.21m1.263-7.71a2.942,2.942,0,0,0-1.314.4,3.549,3.549,0,0,0-1.857,2.619l-.029.017-.069-.368c-.075-.506-.288-.751-.611-.741a1.067,1.067,0,0,0-.459.152,1.378,1.378,0,0,0-.724,1.581l1.581,9.48c.088.525.345.768.689.757a1.132,1.132,0,0,0,.495-.155,1.554,1.554,0,0,0,.8-1.7l-.513-3.079.029-.017a1.3,1.3,0,0,0,1.047.433,2.554,2.554,0,0,0,1.115-.345c2.1-1.166,2.738-3.77,2.365-5.972s-1.378-3.1-2.548-3.056" transform="translate(-75.551 -69.233)" fill="#244780"/>
                          <path id="Path_24492" data-name="Path 24492" d="M182.992,182.621c-.8.028-1.224-.919-1.378-1.866a3.1,3.1,0,0,1,1.175-3.4,1.408,1.408,0,0,1,.6-.17c.736-.026,1.225.72,1.407,1.8s.115,2.725-1.157,3.428a1.42,1.42,0,0,1-.643.2m1.258-7.7a2.931,2.931,0,0,0-1.306.4,3.559,3.559,0,0,0-1.869,2.616l-.028.017-.059-.365c-.084-.506-.294-.751-.619-.741a1.054,1.054,0,0,0-.471.152,1.377,1.377,0,0,0-.709,1.581l1.569,9.48c.1.525.345.768.7.756a1.122,1.122,0,0,0,.5-.155,1.592,1.592,0,0,0,.8-1.712l-.517-3.064.028-.017a1.3,1.3,0,0,0,1.034.425,2.5,2.5,0,0,0,1.115-.356c2.114-1.149,2.734-3.756,2.361-5.957s-1.378-3.1-2.543-3.056" transform="translate(-74.472 -69.828)" fill="#244780"/>
                          <path id="Path_24493" data-name="Path 24493" d="M190.114,178.744c-.781.028-1.263-.791-1.448-1.9a3.224,3.224,0,0,1,1.254-3.56,1.622,1.622,0,0,1,.705-.217c.753-.026,1.237.724,1.432,1.893a3.309,3.309,0,0,1-1.258,3.575,1.557,1.557,0,0,1-.689.21m1.278-7.715a3.97,3.97,0,0,0-1.748.547,6.021,6.021,0,0,0-2.97,6.365c.281,1.693,1.066,2.949,2.543,2.9a4.213,4.213,0,0,0,1.857-.6,5.82,5.82,0,0,0,2.975-6.38c-.3-1.774-1.237-2.883-2.655-2.833" transform="translate(-73.37 -70.406)" fill="#244780"/>
                          <path id="Path_24494" data-name="Path 24494" d="M197.659,167.246a1.192,1.192,0,0,0-.528.161,3.381,3.381,0,0,0-1.329,2.871l-.029.017-.152-.877c-.078-.5-.332-.727-.656-.715a.979.979,0,0,0-.419.127,1.519,1.519,0,0,0-.721,1.581l1.076,6.431c.073.444.258.789.656.776a1.235,1.235,0,0,0,.528-.175,1.529,1.529,0,0,0,.8-1.712l-.448-2.682c-.317-1.9.008-2.792.822-3.239l.345-.189a1.559,1.559,0,0,0,.792-1.7.724.724,0,0,0-.748-.679" transform="translate(-72.296 -70.967)" fill="#244780"/>
                          <path id="Path_24495" data-name="Path 24495" d="M200.1,163.528a1.116,1.116,0,0,0-.506.167,1.569,1.569,0,0,0-.8,1.7l.23,1.4-.333.187a1.067,1.067,0,0,0-.676,1.2c.06.332.193.5.435.489a1.148,1.148,0,0,0,.489-.169l.345-.187.8,4.883c.15.9.516,1.356,1.166,1.335a2.907,2.907,0,0,0,1.233-.424c.956-.531,1.378-1.157,1.278-1.827-.062-.335-.23-.508-.475-.5a.79.79,0,0,0-.35.115l-.293.171a.732.732,0,0,1-.3.1c-.17,0-.27-.115-.3-.345l-.771-4.612.594-.326c.594-.326.873-.705.776-1.263-.053-.326-.2-.469-.439-.459a1.391,1.391,0,0,0-.587.208l-.594.326-.246-1.389c-.086-.531-.335-.778-.68-.766" transform="translate(-71.674 -71.519)" fill="#244780"/>
                        </g>
                      </g>
                    </g>
                  </g>
                </g>
              </g>
            </g>
          </g>
        </g>
      </g>
      <g id="Group_696" data-name="Group 696" transform="translate(84.605 324.85)">
        <path id="Path_23584" data-name="Path 23584" d="M82.319,329.142h0V315.061l31.575-.015,10.914-6.3a10.858,10.858,0,0,1,9.771.4l10.185,5.881,31.6-.021V329.5a2.836,2.836,0,0,1-1.679,2.619l-40.81,23.561a10.858,10.858,0,0,1-9.771-.407L84.7,332.52A3.877,3.877,0,0,1,82.319,329.142Z" transform="translate(-82.305 -287.912)" fill="#244780"/>
        <path id="Path_23585" data-name="Path 23585" d="M123.262,307.77a11.258,11.258,0,0,1,5.238,1.372l10.185,5.881,31.6-.021v14.488a2.837,2.837,0,0,1-1.678,2.619L127.8,355.669a8.864,8.864,0,0,1-4.535.97Z" transform="translate(-76.226 -287.913)" fill="#2c3964"/>
        <path id="Path_23586" data-name="Path 23586" d="M161.091,314.076h3.575v14.481a2.834,2.834,0,0,1-1.678,2.62l-1.9,1.1Z" transform="translate(-70.609 -286.977)" fill="#2c3964"/>
        <path id="Path_23587" data-name="Path 23587" d="M127.671,351.886a11.144,11.144,0,0,1-7.811-.091V335.349h7.811Z" transform="translate(-76.731 -283.818)" fill="#2c3964"/>
        <path id="Path_23588" data-name="Path 23588" d="M133.881,343.809l40.81-23.561c2.506-1.451,2.189-3.974-.7-5.645l-39.406-22.75a10.858,10.858,0,0,0-9.771-.4L84,315.011c-2.506,1.449-2.19,3.97.7,5.639l39.407,22.75A10.857,10.857,0,0,0,133.881,343.809Z" transform="translate(-82.307 -290.48)" fill="#244780"/>
      </g>
      <ellipse id="Ellipse_56" data-name="Ellipse 56" cx="16.899" cy="10.174" rx="16.899" ry="10.174" transform="translate(110.69 355.33)" fill="#2c3964" opacity="0.29"/>
      <g id="Group_1394" data-name="Group 1394" transform="translate(66.826 299.722)">
        <g id="Group_1360-2" data-name="Group 1360" transform="translate(21.319 43.867)">
          <path id="Path_24464-2" data-name="Path 24464" d="M95.933,307.289s-3.667-1.1-5.632-.012-3.357,1.347-4.4,2.613-.37,2.086.916,2.191a14.426,14.426,0,0,0,5.715-1.159,5.181,5.181,0,0,1,3.087-.588A1.725,1.725,0,0,0,95.933,307.289Z" transform="translate(-85.389 -306.797)" fill="#efb185"/>
        </g>
        <g id="Group_1363-2" data-name="Group 1363" transform="translate(30.289 18.352)">
          <g id="Group_1362-2" data-name="Group 1362">
            <g id="Group_1361-2" data-name="Group 1361">
              <path id="Path_24465-2" data-name="Path 24465" d="M118.24,284.7c-1.809-.442-5.034.169-6.069,4.89s-3.749,17.927-3.749,17.927-13.661,1.956-15.223,2.4a2.951,2.951,0,0,1,1.076,3.917s14.717,2.2,18.187-.833S125.641,286.509,118.24,284.7Z" transform="translate(-93.2 -284.58)" fill="#3283f9"/>
            </g>
          </g>
        </g>
        <g id="Group_1365" data-name="Group 1365" transform="translate(0 53.744)">
          <path id="Path_24466-2" data-name="Path 24466" d="M99.3,361.573c-.1-2.36-.322-4.805-.6-7.277l7.175-.221c-.433,1.562-.864,3.107-1.219,4.551-.257,3.65,2.465,4.648.716,8.441a3.922,3.922,0,0,1-1.7,1.527,4.265,4.265,0,0,0-2.588,2.655,5.606,5.606,0,0,1-1.212,1.859c-2.111,1.9-7.025,1.723-8.074.086-1.51-2.308,5.284-7.156,7.362-11.339C99.2,361.783,99.242,361.675,99.3,361.573Z" transform="translate(-63.152 -309.654)" fill="#805700"/>
          <path id="Path_24467-2" data-name="Path 24467" d="M83.5,346.611c-.473-.284-.485-.774-1.17-1.355-.458.88-1.834,1.765-2.292,2.608-.111.072-.215.139-.292.18-4.19,2.631-13.011,3.236-12.918,6.159.041,2.064,4.379,4.933,7.336,4.392a5.915,5.915,0,0,0,2.119-1.009,4.572,4.572,0,0,1,3.8-.973,4.1,4.1,0,0,0,2.384-.427c3.606-2.413,1.851-4.768,3.9-7.823C85.369,347.76,84.407,347.138,83.5,346.611Z" transform="translate(-66.826 -310.964)" fill="#805700"/>
          <g id="Group_1364-2" data-name="Group 1364" transform="translate(13.962)">
            <path id="Path_24468-2" data-name="Path 24468" d="M97.787,339.065a23.916,23.916,0,0,1,2.521-13.281c2.772-5.269,14.331-10.061,14.45-10.063s10.015,4.486,9.261,6.16c-.426.946-15.529,15.983-15.825,16.687a4.7,4.7,0,0,0-.368,3.316c1.106,5.372-.123,21.105-2.135,25.676-1.483,3.356-6.972,2.746-7.97.908-.162-.316-.051-25.773.065-29.4C97.792,339.056,97.671,342.7,97.787,339.065Z" transform="translate(-76.213 -315.349)" fill="#feac00"/>
            <path id="Path_24469-2" data-name="Path 24469" d="M96.962,336.323c0-.1,0-.175.007-.249C96.88,339.1,96.94,337.072,96.962,336.323Z" transform="translate(-76.32 -312.327)" fill="#123f5d" opacity="0.3" style="mix-blend-mode: multiply;isolation: isolate"/>
            <path id="Path_24470-2" data-name="Path 24470" d="M96.957,336.323c0-.153.007-.249.007-.249C96.962,336.149,96.962,336.227,96.957,336.323Z" transform="translate(-76.314 -312.327)" fill="#123f5d" opacity="0.3" style="mix-blend-mode: multiply;isolation: isolate"/>
            <path id="Path_24471-2" data-name="Path 24471" d="M115.938,315.4c-.1,0-12.859,5.166-15.632,10.435C96.8,332.5,98.4,337.44,98.4,337.44h0c-.707.888-.689,5.524-.755,8.461,3.631-2.874,3.735-11.805,8.879-8.685.935.285.265,19.317-1.363,26.717a26.911,26.911,0,0,1-1.954,5.563c.83-.076,1.648-.348,2.478-1.887,1.085-3.835,3.66-16.724,2.135-25.676a4.987,4.987,0,0,1,.368-3.316c.3-.7,15.4-15.741,15.825-16.687C124.771,320.255,116.066,315.4,115.938,315.4Z" transform="translate(-76.211 -315.397)" fill="#123f5d" opacity="0.3" style="mix-blend-mode: multiply;isolation: isolate"/>
            <path id="Path_24472-2" data-name="Path 24472" d="M123.6,335.206c-9.864-.729-18.551-2.257-18.551-2.257-3.316,11.13-19.231,20.929-21.142,22.362-1.13-.148-4.028-3.2-4.925-4.561,3.038-4.968,17.15-24.438,21.733-27.522,2.878-1.927,27.87-2.591,27.876-3.821,0-.495,5.974-1.163,6.4-1.171C139.959,318.211,141.042,336.477,123.6,335.206Z" transform="translate(-78.983 -314.975)" fill="#feac00"/>
            <path id="Path_24473-2" data-name="Path 24473" d="M134.563,318.236c-.43.008-6.4.676-6.4,1.171s-4.224.68-9.442.856a7.432,7.432,0,0,0,1.066,1.5c3.483,3.882,11.868.376,14.784,4.689,1.881,2.772-1.927,5.051-3.756,5.722-8.5,2.7-20.157,2.735-26.758-2.9-2.888,11.229-12.622,19.01-22.16,25.286a5.158,5.158,0,0,0,1.581.752c1.911-1.433,17.827-11.232,21.145-22.362,0,0,8.685,1.527,18.549,2.257C140.61,336.477,139.527,318.211,134.563,318.236Z" transform="translate(-78.551 -314.975)" fill="#1a4b6c" opacity="0.2" style="mix-blend-mode: multiply;isolation: isolate"/>
          </g>
        </g>
        <g id="Group_1377" data-name="Group 1377" transform="translate(19.754 44.402)">
          <g id="Group_1370" data-name="Group 1370" transform="translate(4.325 6.507)">
            <g id="Group_1369" data-name="Group 1369" style="isolation: isolate">
              <g id="Group_1366" data-name="Group 1366" transform="translate(20.986 9.648)">
                <path id="Path_24474-2" data-name="Path 24474" d="M117.3,321.329l.067.772-11.236,8.012-.067-.778Z" transform="translate(-106.064 -321.329)" fill="#b4b9bc"/>
              </g>
              <g id="Group_1367" data-name="Group 1367" transform="translate(0 8.014)">
                <path id="Path_24475-2" data-name="Path 24475" d="M108.777,329.545l.067.778-20.983-9.645-.07-.773Z" transform="translate(-87.792 -319.906)" fill="#7d8183"/>
              </g>
              <g id="Group_1368" data-name="Group 1368">
                <path id="Path_24476-2" data-name="Path 24476" d="M120.013,322.576l-11.236,8.005-20.986-9.639,11.232-8.014Z" transform="translate(-87.792 -312.928)" fill="#e3e5e5"/>
              </g>
            </g>
          </g>
          <g id="Group_1376" data-name="Group 1376">
            <g id="Group_1375" data-name="Group 1375" style="isolation: isolate">
              <g id="Group_1371" data-name="Group 1371" transform="translate(21.941 10.082)">
                <path id="Path_24477-2" data-name="Path 24477" d="M103.131,316.813l.834-.773,3.5,14.038-.837.774Z" transform="translate(-103.131 -316.041)" fill="#bdbbbb"/>
              </g>
              <g id="Group_1372" data-name="Group 1372">
                <path id="Path_24478-2" data-name="Path 24478" d="M84.026,308.043l.842-.781L106.8,317.344l-.834.773Z" transform="translate(-84.026 -307.262)" fill="#d2d0d0"/>
              </g>
              <g id="Group_1373" data-name="Group 1373" transform="translate(0 0.781)">
                <path id="Path_24479-2" data-name="Path 24479" d="M105.967,318.016l3.5,14.039L87.536,321.974l-3.509-14.032Z" transform="translate(-84.026 -307.942)" fill="#d5dfe6"/>
              </g>
              <g id="Group_1374" data-name="Group 1374" transform="translate(0 0.781)">
                <path id="Path_24480-2" data-name="Path 24480" d="M105.967,318.016h0l-18.432,3.958-3.509-14.032Z" transform="translate(-84.026 -307.942)" fill="#e9f0f4"/>
              </g>
            </g>
          </g>
        </g>
        <g id="Group_1378" data-name="Group 1378" transform="translate(47.446 18.269)">
          <path id="Path_24481-2" data-name="Path 24481" d="M134.65,293.575s-4.406-7.135-21.145-9.028c0,0-2.7-1.032-2.2,7.583.072,1.245-1.153,3.419-1.995,4.563s-3.032,5.538,2.195,10.563c0,0,2.194,7.632-.009,12.67-1.965,4.51,9.134,8.521,18.43,7.341,1.151-.141,3.682-.974,2.555-4.945s-3.7-10.915-2.044-18.348S136.011,297.292,134.65,293.575Z" transform="translate(-108.139 -284.508)" fill="#488eff"/>
        </g>
        <g id="Group_1381" data-name="Group 1381" transform="translate(62.608 23.125)">
          <g id="Group_1380" data-name="Group 1380">
            <g id="Group_1379" data-name="Group 1379">
              <path id="Path_24482-2" data-name="Path 24482" d="M132.69,292.947c1.361,3.716-2.543,2.96-4.209,10.4s.931,14.371,2.044,18.348-1.4,4.8-2.555,4.945a27.519,27.519,0,0,1-4.679.18c3.057-7.26-1.51-20.145-1.931-27.313-.439-7.6,6.363-10.77,6.363-10.77A14.765,14.765,0,0,1,132.69,292.947Z" transform="translate(-121.34 -288.736)" fill="#3283f9"/>
            </g>
          </g>
        </g>
        <g id="Group_1390" data-name="Group 1390" transform="translate(50.683)">
          <g id="Group_1382" data-name="Group 1382">
            <path id="Path_24483-2" data-name="Path 24483" d="M115.678,273.436s1.337,8.6,2.094,16.793a2.737,2.737,0,0,1-3.3,2.8s-6.516-9.56-1.815-19.372a9.276,9.276,0,0,1,13.7-3.26Z" transform="translate(-110.957 -268.601)" fill="#301806"/>
          </g>
          <g id="Group_1385" data-name="Group 1385" transform="translate(3.281 11.067)">
            <g id="Group_1383" data-name="Group 1383">
              <path id="Path_24484-2" data-name="Path 24484" d="M113.814,283.361s3.081,3.393,1.819,7.192c-.342,1.041-1.151,5.3,5.2,3.36,0,0,6.561-3.587,4.492-5.535-1.371-1.3-2.735-3.2-1-10.142Z" transform="translate(-113.814 -278.237)" fill="#e8a476"/>
            </g>
            <g id="Group_1384" data-name="Group 1384" transform="translate(1.436 0.763)">
              <path id="Path_24485-2" data-name="Path 24485" d="M125.138,288.281a1.076,1.076,0,0,1,.359.66,12.035,12.035,0,0,1-10.434-2.749l7.72-7.29h0s.405.251,1.029.69C122.615,285.362,123.864,287.078,125.138,288.281Z" transform="translate(-115.064 -278.901)" fill="#db9669"/>
            </g>
          </g>
          <g id="Group_1386" data-name="Group 1386" transform="translate(1.206 2.774)">
            <path id="Path_24486-2" data-name="Path 24486" d="M114.751,272.182s-1.712.656-1.6,5.769c.013.571-.867,1.349-1.061,2.755-.191,1.436-.325,7.137,3,7.634a10.193,10.193,0,0,0,10.056-7.141C126.934,275.393,121.8,268.156,114.751,272.182Z" transform="translate(-112.007 -271.016)" fill="#f1b287"/>
          </g>
          <g id="Group_1387" data-name="Group 1387" transform="translate(4.338 0.414)">
            <path id="Path_24487-2" data-name="Path 24487" d="M114.734,274.538s14.83,4.917,4.393,24.149c0,0,7.674.51,10.885-6.188,1.536-3.21.693-9.583.023-15.658,0,0-1.985-9.323-9.79-7.687C120.246,269.154,115.118,271.3,114.734,274.538Z" transform="translate(-114.734 -268.961)" fill="#231202"/>
          </g>
          <g id="Group_1388" data-name="Group 1388" transform="translate(0.648 0.008)">
            <path id="Path_24488-2" data-name="Path 24488" d="M115.211,274.59s-2.582-.407-3.69,4.348c0,0,0-13.345,12.76-9.7C124.281,269.239,116.77,269.837,115.211,274.59Z" transform="translate(-111.521 -268.608)" fill="#301806"/>
          </g>
          <g id="Group_1389" data-name="Group 1389" transform="translate(10.696 11.829)">
            <path id="Path_24489-2" data-name="Path 24489" d="M121.03,281.092s.81-2.856,2.467-2.048c.521.26,1.1.834.368,2.308s-2.311,2.862-3.595,2.738Z" transform="translate(-120.27 -278.9)" fill="#f1b287"/>
          </g>
        </g>
        <g id="Group_1391" data-name="Group 1391" transform="translate(44.346 51.839)">
          <path id="Path_24490-2" data-name="Path 24490" d="M113.777,313.738s-3.665.225-4.9,1.833-2.924,3.289-3.3,4.76c-.347,1.459-.049,1.974,1.1,1.65a20.813,20.813,0,0,0,5.7-3.9,4.452,4.452,0,0,1,2.43-1.541C115.365,316.312,115.717,314.443,113.777,313.738Z" transform="translate(-105.439 -313.738)" fill="#efb185"/>
        </g>
        <g id="Group_1392" data-name="Group 1392" transform="translate(45.145 53.311)">
          <path id="Path_24491-2" data-name="Path 24491" d="M114.712,316.353a4.452,4.452,0,0,0-2.43,1.541,20.814,20.814,0,0,1-5.7,3.9,1.987,1.987,0,0,1-.442.083c.883-.987,2.4-2.675,3.753-4.11a11.047,11.047,0,0,1,5.209-2.744A1.224,1.224,0,0,1,114.712,316.353Z" transform="translate(-106.135 -315.02)" fill="#db9669"/>
        </g>
        <g id="Group_1393" data-name="Group 1393" transform="translate(52.154 25.735)">
          <path id="Path_24492-2" data-name="Path 24492" d="M132.107,291.086c-1.732-.354-4.648.369-4.974,5.042s-1.115,17.743-1.115,17.743-12.4,2.453-13.779,2.961a2.544,2.544,0,0,1,1.492,3.339s13.923,2.042,16.746-1.074S139.2,292.574,132.107,291.086Z" transform="translate(-112.238 -291.009)" fill="#488eff"/>
        </g>
      </g>
    </g>
  </g>
</svg>
