<svg xmlns="http://www.w3.org/2000/svg" xmlns:xlink="http://www.w3.org/1999/xlink" width="470" height="470" viewBox="0 0 470 470">
  <defs>
    <linearGradient id="linear-gradient" x1="-2.512" y1="3.873" x2="-2.567" y2="3.873" gradientUnits="objectBoundingBox">
      <stop offset="0" stop-color="#488eff"/>
      <stop offset="1" stop-color="#244780"/>
    </linearGradient>
    <linearGradient id="linear-gradient-2" x1="-5.962" y1="8.737" x2="-6.136" y2="8.737" xlink:href="#linear-gradient"/>
    <linearGradient id="linear-gradient-3" x1="-7.444" y1="8.802" x2="-7.817" y2="8.802" xlink:href="#linear-gradient"/>
    <clipPath id="clip-path">
      <path id="Path_23914" data-name="Path 23914" d="M166.4,138.82l5.756-31.781,36.019-1.258-5.756,31.781Z" transform="translate(-166.4 -105.781)" fill="none"/>
    </clipPath>
    <clipPath id="clip-path-2">
      <path id="Path_23913" data-name="Path 23913" d="M173.15,138.5l-4.743-14.327,31.757-18.2,4.737,14.317L173.15,138.5" transform="translate(-168.406 -105.976)" fill="none"/>
    </clipPath>
  </defs>
  <g id="Group_776" data-name="Group 776" transform="translate(-17.439 43.943)">
    <g id="Rectangle_10" data-name="Rectangle 10" transform="translate(17.439 -43.943)" fill="#488eff" stroke="#488eff" stroke-width="1" opacity="0.03">
      <path d="M0,0H415a55,55,0,0,1,55,55V470a0,0,0,0,1,0,0H55A55,55,0,0,1,0,415V0A0,0,0,0,1,0,0Z" stroke="none"/>
      <path d="M1,.5H415A54.5,54.5,0,0,1,469.5,55V469a.5.5,0,0,1-.5.5H55A54.5,54.5,0,0,1,.5,415V1A.5.5,0,0,1,1,.5Z" fill="none"/>
    </g>
    <g id="Group_687" data-name="Group 687">
      <g id="Group_688" data-name="Group 688">
        <path id="Path_23464" data-name="Path 23464" d="M244.056,338.4l138.25-79.82c3.911-2.257,3.421-6.2-1.1-8.808l-94.138-54.333c-4.516-2.607-11.347-2.89-15.258-.632L133.56,274.622c-3.91,2.258-3.42,6.2,1.1,8.809L228.8,337.763C233.316,340.371,240.146,340.656,244.056,338.4Z" fill="#c4d9e8" opacity="0.5" style="isolation: isolate"/>
        <path id="Path_23465" data-name="Path 23465" d="M98.109,128.242,239.073,46.857a5.685,5.685,0,0,1,4.776-.586l-.009-.014.257.1c.021.009.042.015.062.024l5.094,1.949-4.572,2.239c.021.084.047.163.065.249l22.96,104.517c1.149,5.23-1.152,11.337-5.14,13.639L125,248.4l.49,5.829-5.567-2.157a7.829,7.829,0,0,1-3.988-5.672L92.969,141.881C91.82,136.651,94.121,130.544,98.109,128.242Z" fill="#2c3964"/>
        <path id="Path_23466" data-name="Path 23466" d="M98.108,128.242,239.072,46.857a5.685,5.685,0,0,1,4.776-.586l-.009-.014.257.1c.021.009.042.015.062.024l5.094,1.949-4.575,2.234c.021.084.047.163.065.249l15.135,68.882-68.97,53.736L93.656,133.859A10.937,10.937,0,0,1,98.108,128.242Z" fill="#396caa"/>
        <path id="Path_23467" data-name="Path 23467" d="M103.424,144.308l-10.731-4.569c-.2-4.155,1.523-8.449,4.347-10.745l16.986,7.145Z" fill="#274f89"/>
        <path id="Path_23468" data-name="Path 23468" d="M130.381,253.672l140.963-81.386c3.988-2.3,6.29-8.408,5.141-13.639L253.524,54.132c-1.15-5.231-5.314-7.6-9.3-5.3L103.26,130.215c-3.988,2.3-6.289,8.408-5.14,13.639L121.08,248.37C122.23,253.6,126.394,255.974,130.381,253.672Z" fill="#d4e6ff"/>
        <path id="Path_23469" data-name="Path 23469" d="M133.437,245.9,266.01,169.4c3.649-2.107,5.755-7.7,4.7-12.481L249.7,61.275c-1.052-4.786-4.862-6.958-8.511-4.851l-132.573,76.5c-3.649,2.107-5.755,7.7-4.7,12.481l21.011,95.641C125.978,245.832,129.788,248,133.437,245.9Z" fill="#fff"/>
        <path id="Path_23470" data-name="Path 23470" d="M133.437,245.9,266.01,169.4c3.649-2.107,5.755-7.7,4.7-12.481L249.7,61.275c-1.052-4.786-4.862-6.958-8.511-4.851l-132.573,76.5c-3.649,2.107-5.755,7.7-4.7,12.481l21.011,95.641C125.978,245.832,129.788,248,133.437,245.9Z" fill="#fff"/>
        <path id="Path_23471" data-name="Path 23471" d="M128.435,257.215l19.269-2.544,124.383-71.814c3.988-2.3,10.954-2.014,15.558.645l88.137,50.869,11.652-1.539v6.612h-.012c.076,1.528-.793,3-2.675,4.084L243.784,324.914c-3.988,2.3-10.953,2.014-15.558-.645l-95.985-55.4c-2.59-1.5-3.882-3.422-3.806-5.232h0Z" fill="#2c3964"/>
        <path id="Path_23472" data-name="Path 23472" d="M221.894,211.838l8.837-5.1h97.157l47.9,27.636,11.652-1.539v6.612h-.012c.076,1.528-.793,3-2.675,4.084L243.784,324.914a14.59,14.59,0,0,1-8.029,1.5Z" fill="#244780"/>
        <path id="Path_23473" data-name="Path 23473" d="M382.264,233.516l5.171-.683v6.611h-.012c.076,1.528-.793,3-2.675,4.084l-2.484,1.434Z" fill="#5793ce"/>
        <path id="Path_23474" data-name="Path 23474" d="M242.364,325.575a18.055,18.055,0,0,1-13.219-.821V310.008h13.219Z" fill="#274f89"/>
        <path id="Path_23475" data-name="Path 23475" d="M243.784,318.311l140.963-81.386c3.988-2.3,3.487-6.323-1.116-8.982l-95.986-55.4c-4.6-2.658-11.57-2.947-15.557-.645L131.124,253.286c-3.988,2.3-3.488,6.323,1.117,8.982l95.985,55.4C232.831,320.325,239.8,320.614,243.784,318.311Z" fill="#d4e6ff"/>
        <g id="Group_687-2" data-name="Group 687-2">
          <path id="Path_23476" data-name="Path 23476" d="M324.794,209.987l6.378-3.682c.512-.3.448-.812-.144-1.154L323.5,200.8a2.221,2.221,0,0,0-2-.083l-6.379,3.683c-.512.3-.448.812.144,1.154l7.529,4.346A2.221,2.221,0,0,0,324.794,209.987Z" fill="#173d7a"/>
          <path id="Path_23477" data-name="Path 23477" d="M314.944,215.669l6.378-3.683c.512-.3.448-.812-.144-1.154l-7.528-4.346a2.221,2.221,0,0,0-2-.082l-6.379,3.682c-.512.3-.448.812.144,1.154l7.529,4.346A2.221,2.221,0,0,0,314.944,215.669Z" fill="#173d7a"/>
          <path id="Path_23478" data-name="Path 23478" d="M305.1,221.355l6.378-3.683c.512-.3.448-.812-.144-1.153l-7.529-4.347a2.221,2.221,0,0,0-2-.082l-6.378,3.683c-.512.3-.448.811.144,1.153l7.529,4.346A2.221,2.221,0,0,0,305.1,221.355Z" fill="#173d7a"/>
          <path id="Path_23479" data-name="Path 23479" d="M291.472,216.66l6.379-3.683c.512-.3.448-.812-.144-1.154l-6.32-3.648a2.221,2.221,0,0,0-2-.083l-6.378,3.683c-.512.3-.448.812.144,1.153l6.319,3.649A2.221,2.221,0,0,0,291.472,216.66Z" fill="#173d7a"/>
          <path id="Path_23480" data-name="Path 23480" d="M281.622,222.346,288,218.663c.512-.3.449-.812-.143-1.153l-6.32-3.649a2.221,2.221,0,0,0-2-.083l-6.378,3.683c-.512.3-.448.812.144,1.154l6.319,3.648A2.221,2.221,0,0,0,281.622,222.346Z" fill="#173d7a"/>
          <path id="Path_23481" data-name="Path 23481" d="M271.773,228.033l6.378-3.683c.512-.3.448-.811-.144-1.153l-6.319-3.649a2.221,2.221,0,0,0-2-.082l-6.378,3.682c-.512.3-.448.812.144,1.154l6.319,3.649A2.221,2.221,0,0,0,271.773,228.033Z" fill="#173d7a"/>
          <path id="Path_23482" data-name="Path 23482" d="M261.924,233.719l6.378-3.682c.512-.3.448-.812-.144-1.154l-6.319-3.649a2.221,2.221,0,0,0-2-.082l-6.378,3.683c-.512.3-.449.811.143,1.153l6.32,3.649A2.221,2.221,0,0,0,261.924,233.719Z" fill="#173d7a"/>
          <path id="Path_23483" data-name="Path 23483" d="M252.074,239.406l6.378-3.683c.512-.3.448-.812-.144-1.154l-6.319-3.648a2.221,2.221,0,0,0-2-.083l-6.379,3.683c-.512.3-.448.812.144,1.153l6.319,3.649A2.223,2.223,0,0,0,252.074,239.406Z" fill="#173d7a"/>
          <path id="Path_23484" data-name="Path 23484" d="M242.224,245.093l6.379-3.683c.512-.3.448-.812-.144-1.153l-6.319-3.649a2.224,2.224,0,0,0-2-.083l-6.378,3.683c-.512.3-.448.812.144,1.154l6.319,3.648A2.222,2.222,0,0,0,242.224,245.093Z" fill="#173d7a"/>
          <path id="Path_23485" data-name="Path 23485" d="M232.375,250.779l6.378-3.682c.512-.3.449-.812-.143-1.154l-6.32-3.649a2.221,2.221,0,0,0-2-.082l-6.378,3.682c-.512.3-.448.812.144,1.154l6.319,3.649A2.221,2.221,0,0,0,232.375,250.779Z" fill="#173d7a"/>
          <path id="Path_23486" data-name="Path 23486" d="M222.525,256.466l6.378-3.683c.512-.3.448-.812-.144-1.154l-6.319-3.648a2.218,2.218,0,0,0-2-.083l-6.378,3.683c-.512.3-.448.812.144,1.153l6.319,3.649A2.221,2.221,0,0,0,222.525,256.466Z" fill="#173d7a"/>
          <path id="Path_23487" data-name="Path 23487" d="M212.676,262.153l6.378-3.683c.512-.3.448-.812-.144-1.153l-6.319-3.649a2.221,2.221,0,0,0-2-.083l-6.378,3.683c-.512.3-.449.812.143,1.154l6.32,3.648A2.221,2.221,0,0,0,212.676,262.153Z" fill="#173d7a"/>
          <path id="Path_23488" data-name="Path 23488" d="M202.828,267.839l6.378-3.683c.512-.3.448-.812-.144-1.153l-6.319-3.649a2.218,2.218,0,0,0-2-.082l-6.379,3.682c-.512.3-.448.812.144,1.154l6.32,3.648A2.217,2.217,0,0,0,202.828,267.839Z" fill="#173d7a"/>
          <path id="Path_23489" data-name="Path 23489" d="M276.959,213.967l6.378-3.682c.512-.3.449-.812-.143-1.154l-6.32-3.648a2.218,2.218,0,0,0-2-.083l-6.378,3.683c-.512.3-.448.812.144,1.153l6.319,3.649A2.217,2.217,0,0,0,276.959,213.967Z" fill="#396caa"/>
          <path id="Path_23490" data-name="Path 23490" d="M286.956,208.2l6.378-3.683c.512-.3.448-.812-.144-1.154l-6.319-3.648a2.218,2.218,0,0,0-2-.083l-6.378,3.683c-.512.3-.449.812.143,1.153l6.32,3.649A2.221,2.221,0,0,0,286.956,208.2Z" fill="#396caa"/>
          <path id="Path_23491" data-name="Path 23491" d="M296.969,202.414l13.736-7.931c.512-.3.449-.812-.143-1.154l-6.32-3.648a2.221,2.221,0,0,0-2-.083l-13.736,7.931c-.512.3-.449.812.143,1.154l6.32,3.648A2.218,2.218,0,0,0,296.969,202.414Z" fill="#173d7a"/>
          <path id="Path_23492" data-name="Path 23492" d="M289.968,195.383l11.147-6.436c.512-.3.449-.812-.143-1.153l-6.318-3.648a2.221,2.221,0,0,0-2-.083L281.506,190.5c-.512.3-.448.812.144,1.154l6.32,3.649A2.223,2.223,0,0,0,289.968,195.383Z" fill="#173d7a"/>
          <path id="Path_23493" data-name="Path 23493" d="M267.113,219.654l6.378-3.683c.512-.3.448-.812-.144-1.154l-6.319-3.648a2.221,2.221,0,0,0-2-.083l-6.378,3.683c-.512.3-.448.812.144,1.153l6.319,3.649A2.221,2.221,0,0,0,267.113,219.654Z" fill="#396caa"/>
          <path id="Path_23494" data-name="Path 23494" d="M257.261,225.34l6.378-3.683c.512-.3.448-.812-.144-1.153l-6.319-3.649a2.221,2.221,0,0,0-2-.083l-6.378,3.683c-.512.3-.449.812.143,1.154l6.32,3.648A2.217,2.217,0,0,0,257.261,225.34Z" fill="#173d7a"/>
          <path id="Path_23495" data-name="Path 23495" d="M247.411,231.027l6.378-3.682c.512-.3.448-.812-.144-1.154l-6.319-3.649a2.221,2.221,0,0,0-2-.082l-6.379,3.682c-.512.3-.448.812.144,1.154l6.32,3.649A2.221,2.221,0,0,0,247.411,231.027Z" fill="#173d7a"/>
          <path id="Path_23496" data-name="Path 23496" d="M237.56,236.714l6.379-3.683c.512-.3.448-.812-.144-1.154l-6.319-3.648a2.221,2.221,0,0,0-2-.083l-6.379,3.683c-.512.3-.448.812.144,1.153l6.319,3.649A2.221,2.221,0,0,0,237.56,236.714Z" fill="#173d7a"/>
          <path id="Path_23497" data-name="Path 23497" d="M227.711,242.4l6.379-3.683c.512-.3.448-.812-.144-1.153l-6.32-3.649a2.221,2.221,0,0,0-2-.083l-6.378,3.683c-.512.3-.448.812.144,1.154l6.319,3.648A2.221,2.221,0,0,0,227.711,242.4Z" fill="#173d7a"/>
          <path id="Path_23498" data-name="Path 23498" d="M217.862,248.087l6.378-3.683c.512-.3.449-.811-.143-1.153l-6.32-3.649a2.221,2.221,0,0,0-2-.082L209.4,243.2c-.512.3-.448.812.144,1.154l6.319,3.649A2.221,2.221,0,0,0,217.862,248.087Z" fill="#173d7a"/>
          <path id="Path_23499" data-name="Path 23499" d="M208.012,253.773l6.378-3.682c.512-.3.448-.812-.144-1.154l-6.319-3.649a2.221,2.221,0,0,0-2-.082l-6.376,3.683c-.512.3-.448.811.144,1.153l6.319,3.649A2.219,2.219,0,0,0,208.012,253.773Z" fill="#173d7a"/>
          <path id="Path_23500" data-name="Path 23500" d="M198.163,259.461l6.378-3.683c.512-.3.448-.812-.144-1.154l-6.319-3.648a2.221,2.221,0,0,0-2-.083l-6.378,3.683c-.512.3-.449.812.143,1.153l6.32,3.649A2.221,2.221,0,0,0,198.163,259.461Z" fill="#173d7a"/>
          <path id="Path_23501" data-name="Path 23501" d="M188.313,265.15l6.378-3.683c.512-.3.448-.812-.144-1.153l-6.319-3.649a2.221,2.221,0,0,0-2-.083l-6.379,3.683c-.512.3-.448.812.144,1.154l6.319,3.648A2.223,2.223,0,0,0,188.313,265.15Z" fill="#173d7a"/>
          <path id="Path_23502" data-name="Path 23502" d="M170.8,275.257l13.916-8.035c.512-.3.448-.812-.144-1.154l-6.319-3.648a2.221,2.221,0,0,0-2-.083l-13.916,8.035c-.512.3-.448.812.144,1.153l6.319,3.649A2.221,2.221,0,0,0,170.8,275.257Z" fill="#173d7a"/>
          <path id="Path_23503" data-name="Path 23503" d="M151.627,264.189l11.746-6.781c.512-.3.448-.812-.144-1.154L156.91,252.6a2.224,2.224,0,0,0-2-.082L143.165,259.3c-.512.3-.448.812.144,1.154l6.319,3.649A2.221,2.221,0,0,0,151.627,264.189Z" fill="#173d7a"/>
          <path id="Path_23504" data-name="Path 23504" d="M249.861,218.541l6.378-3.682c.512-.3.448-.812-.144-1.154l-6.319-3.649a2.221,2.221,0,0,0-2-.082l-6.379,3.683c-.512.3-.448.811.144,1.153l6.319,3.649A2.223,2.223,0,0,0,249.861,218.541Z" fill="#173d7a"/>
          <path id="Path_23505" data-name="Path 23505" d="M259.956,212.713l6.378-3.682c.512-.3.449-.812-.143-1.154l-6.32-3.649a2.221,2.221,0,0,0-2-.082l-6.378,3.682c-.512.3-.448.812.144,1.154l6.319,3.649A2.221,2.221,0,0,0,259.956,212.713Z" fill="#173d7a"/>
          <path id="Path_23506" data-name="Path 23506" d="M270.05,206.885l6.378-3.682c.512-.3.448-.812-.144-1.154l-6.319-3.649a2.221,2.221,0,0,0-2-.082L261.586,202c-.512.3-.448.812.144,1.154l6.32,3.649A2.221,2.221,0,0,0,270.05,206.885Z" fill="#396caa"/>
          <path id="Path_23507" data-name="Path 23507" d="M280.145,201.056l6.378-3.683c.513-.3.449-.811-.143-1.153l-6.32-3.649a2.221,2.221,0,0,0-2-.082l-6.378,3.682c-.512.3-.448.812.144,1.154l6.319,3.649A2.221,2.221,0,0,0,280.145,201.056Z" fill="#173d7a"/>
          <path id="Path_23508" data-name="Path 23508" d="M240.011,224.228l6.379-3.683c.512-.3.448-.812-.144-1.154l-6.319-3.648a2.224,2.224,0,0,0-2-.083l-6.378,3.683c-.512.3-.448.812.144,1.153l6.319,3.649A2.222,2.222,0,0,0,240.011,224.228Z" fill="#173d7a"/>
          <path id="Path_23509" data-name="Path 23509" d="M230.163,229.914l6.378-3.683c.513-.3.449-.812-.143-1.153l-6.32-3.649a2.221,2.221,0,0,0-2-.083l-6.378,3.683c-.512.3-.448.812.144,1.154l6.319,3.648A2.221,2.221,0,0,0,230.163,229.914Z" fill="#173d7a"/>
          <path id="Path_23510" data-name="Path 23510" d="M220.312,235.6l6.378-3.682c.512-.3.448-.812-.144-1.154l-6.319-3.649a2.221,2.221,0,0,0-2-.082l-6.378,3.682c-.512.3-.448.812.144,1.154l6.319,3.649A2.221,2.221,0,0,0,220.312,235.6Z" fill="#173d7a"/>
          <path id="Path_23511" data-name="Path 23511" d="M210.463,241.288l6.378-3.683c.512-.3.448-.812-.144-1.154l-6.319-3.648a2.218,2.218,0,0,0-2-.083L202,236.4c-.512.3-.449.812.143,1.153l6.32,3.649A2.221,2.221,0,0,0,210.463,241.288Z" fill="#173d7a"/>
          <path id="Path_23512" data-name="Path 23512" d="M200.613,246.975l6.378-3.683c.512-.3.448-.812-.144-1.154l-6.319-3.648a2.221,2.221,0,0,0-2-.083l-6.379,3.683c-.512.3-.448.812.144,1.154l6.32,3.648A2.221,2.221,0,0,0,200.613,246.975Z" fill="#173d7a"/>
          <path id="Path_23513" data-name="Path 23513" d="M190.763,252.661l6.379-3.683c.512-.3.448-.812-.144-1.153l-6.319-3.649a2.218,2.218,0,0,0-2-.082l-6.379,3.682c-.512.3-.448.812.144,1.154l6.319,3.648A2.218,2.218,0,0,0,190.763,252.661Z" fill="#173d7a"/>
          <path id="Path_23514" data-name="Path 23514" d="M180.914,258.347l6.381-3.682c.512-.3.448-.812-.144-1.154l-6.32-3.649a2.221,2.221,0,0,0-2-.082l-6.378,3.683c-.512.3-.448.811.144,1.153l6.319,3.649A2.219,2.219,0,0,0,180.914,258.347Z" fill="#173d7a"/>
          <path id="Path_23515" data-name="Path 23515" d="M171.065,264.035l6.378-3.683c.512-.3.449-.812-.143-1.154l-6.32-3.648a2.221,2.221,0,0,0-2-.083L162.6,259.15c-.512.3-.448.812.144,1.153l6.319,3.649A2.221,2.221,0,0,0,171.065,264.035Z" fill="#173d7a"/>
          <path id="Path_23516" data-name="Path 23516" d="M161.215,269.721l6.378-3.683c.512-.3.448-.812-.144-1.153l-6.319-3.649a2.221,2.221,0,0,0-2-.083l-6.378,3.683c-.512.3-.448.812.144,1.154l6.319,3.648A2.221,2.221,0,0,0,161.215,269.721Z" fill="#173d7a"/>
          <path id="Path_23517" data-name="Path 23517" d="M255.048,204.476l6.378-3.683c.512-.3.448-.812-.144-1.154l-6.319-3.648a2.221,2.221,0,0,0-2-.083l-6.378,3.683c-.512.3-.449.812.143,1.153l6.32,3.649A2.221,2.221,0,0,0,255.048,204.476Z" fill="#173d7a"/>
          <path id="Path_23518" data-name="Path 23518" d="M264.848,198.817l6.378-3.683c.512-.3.448-.812-.144-1.153l-6.319-3.649a2.221,2.221,0,0,0-2-.083l-6.379,3.683c-.512.3-.448.812.144,1.154l6.319,3.648A2.22,2.22,0,0,0,264.848,198.817Z" fill="#173d7a"/>
          <path id="Path_23519" data-name="Path 23519" d="M274.649,193.158l6.378-3.682c.513-.3.449-.812-.143-1.154l-6.32-3.649a2.221,2.221,0,0,0-2-.082l-6.378,3.682c-.512.3-.448.812.144,1.154l6.319,3.649A2.221,2.221,0,0,0,274.649,193.158Z" fill="#173d7a"/>
          <path id="Path_23520" data-name="Path 23520" d="M284.449,187.5l6.378-3.683c.512-.3.448-.812-.144-1.154l-6.319-3.648a2.221,2.221,0,0,0-2-.083l-6.378,3.683c-.512.3-.448.812.144,1.153l6.319,3.649A2.221,2.221,0,0,0,284.449,187.5Z" fill="#173d7a"/>
          <path id="Path_23521" data-name="Path 23521" d="M274.371,181.681,280.749,178c.512-.3.449-.811-.143-1.153l-2.09-1.206a2.218,2.218,0,0,0-2-.082l-6.378,3.682c-.512.3-.448.812.144,1.154l2.089,1.206A2.221,2.221,0,0,0,274.371,181.681Z" fill="#173d7a"/>
          <path id="Path_23522" data-name="Path 23522" d="M261.582,189.065l6.378-3.682c.512-.3.448-.812-.144-1.154l-2.089-1.206a2.221,2.221,0,0,0-2-.082l-6.379,3.682c-.512.3-.448.812.144,1.154l2.089,1.206A2.223,2.223,0,0,0,261.582,189.065Z" fill="#173d7a"/>
          <path id="Path_23523" data-name="Path 23523" d="M251.821,194.7l6.378-3.683c.512-.3.449-.811-.143-1.153l-2.09-1.206a2.218,2.218,0,0,0-2-.082l-6.378,3.682c-.512.3-.448.812.144,1.154l2.089,1.206A2.221,2.221,0,0,0,251.821,194.7Z" fill="#173d7a"/>
          <path id="Path_23524" data-name="Path 23524" d="M242.063,200.335l6.378-3.683c.512-.3.448-.812-.144-1.153l-2.089-1.206a2.221,2.221,0,0,0-2-.083l-6.378,3.683c-.512.3-.449.812.143,1.154l2.09,1.205A2.218,2.218,0,0,0,242.063,200.335Z" fill="#173d7a"/>
          <path id="Path_23525" data-name="Path 23525" d="M232.3,205.97l6.378-3.683c.512-.3.449-.812-.143-1.153l-2.09-1.206a2.221,2.221,0,0,0-2-.083l-6.378,3.683c-.512.3-.448.812.144,1.154l2.089,1.2A2.218,2.218,0,0,0,232.3,205.97Z" fill="#173d7a"/>
          <path id="Path_23526" data-name="Path 23526" d="M177.815,237.428l6.378-3.682c.512-.3.448-.812-.144-1.154l-2.089-1.206a2.221,2.221,0,0,0-2-.082l-6.378,3.682c-.512.3-.449.812.143,1.154l2.09,1.206A2.221,2.221,0,0,0,177.815,237.428Z" fill="#173d7a"/>
          <path id="Path_23527" data-name="Path 23527" d="M168.056,243.063l6.378-3.683c.512-.3.449-.811-.143-1.153l-2.09-1.206a2.221,2.221,0,0,0-2-.082l-6.378,3.682c-.512.3-.448.812.144,1.154l2.089,1.206A2.221,2.221,0,0,0,168.056,243.063Z" fill="#173d7a"/>
          <path id="Path_23528" data-name="Path 23528" d="M158.3,248.7l6.378-3.683c.512-.3.448-.811-.144-1.153l-2.089-1.206a2.221,2.221,0,0,0-2-.083l-6.37,3.683c-.512.3-.449.812.143,1.154l2.09,1.206A2.219,2.219,0,0,0,158.3,248.7Z" fill="#173d7a"/>
          <path id="Path_23529" data-name="Path 23529" d="M148.536,254.33l6.379-3.683c.512-.3.448-.812-.144-1.153l-2.089-1.206a2.224,2.224,0,0,0-2-.083l-6.378,3.683c-.512.3-.448.812.144,1.154l2.089,1.2A2.215,2.215,0,0,0,148.536,254.33Z" fill="#173d7a"/>
          <path id="Path_23530" data-name="Path 23530" d="M245.2,210.162l6.381-3.684c.512-.3.448-.812-.144-1.153l-6.319-3.649a2.221,2.221,0,0,0-2-.083l-6.379,3.683c-.512.3-.448.812.144,1.154l6.32,3.648A2.221,2.221,0,0,0,245.2,210.162Z" fill="#173d7a"/>
          <path id="Path_23531" data-name="Path 23531" d="M235.348,215.848l6.379-3.682c.512-.3.448-.812-.144-1.154l-6.319-3.649a2.221,2.221,0,0,0-2-.082l-6.378,3.682c-.512.3-.448.812.144,1.154l6.319,3.649A2.222,2.222,0,0,0,235.348,215.848Z" fill="#173d7a"/>
          <path id="Path_23532" data-name="Path 23532" d="M225.5,221.536l6.379-3.683c.512-.3.448-.812-.144-1.154l-6.32-3.648a2.221,2.221,0,0,0-2-.083l-6.378,3.683c-.512.3-.448.812.144,1.153l6.319,3.649A2.221,2.221,0,0,0,225.5,221.536Z" fill="#173d7a"/>
          <path id="Path_23533" data-name="Path 23533" d="M215.649,227.222l6.378-3.683c.512-.3.449-.812-.143-1.153l-6.32-3.649a2.221,2.221,0,0,0-2-.083l-6.378,3.683c-.512.3-.448.812.144,1.154l6.319,3.648A2.221,2.221,0,0,0,215.649,227.222Z" fill="#173d7a"/>
          <path id="Path_23534" data-name="Path 23534" d="M205.8,232.909l6.378-3.683c.512-.3.448-.812-.144-1.153l-6.319-3.649a2.218,2.218,0,0,0-2-.082l-6.378,3.682c-.512.3-.448.812.144,1.154l6.319,3.648A2.218,2.218,0,0,0,205.8,232.909Z" fill="#173d7a"/>
          <path id="Path_23535" data-name="Path 23535" d="M195.951,238.6l6.378-3.682c.512-.3.448-.812-.144-1.154l-6.319-3.649a2.221,2.221,0,0,0-2-.082l-6.378,3.683c-.512.3-.449.811.143,1.153l6.32,3.649A2.221,2.221,0,0,0,195.951,238.6Z" fill="#173d7a"/>
          <path id="Path_23536" data-name="Path 23536" d="M186.1,244.282l6.378-3.683c.512-.3.448-.812-.144-1.154l-6.319-3.648a2.221,2.221,0,0,0-2-.083l-6.379,3.683c-.512.3-.448.812.144,1.153L184.1,244.2A2.223,2.223,0,0,0,186.1,244.282Z" fill="#173d7a"/>
          <path id="Path_23537" data-name="Path 23537" d="M176.25,249.969l6.379-3.683c.512-.3.448-.812-.144-1.153l-6.319-3.649a2.224,2.224,0,0,0-2-.083l-6.378,3.683c-.512.3-.448.812.144,1.154l6.319,3.648A2.222,2.222,0,0,0,176.25,249.969Z" fill="#173d7a"/>
          <path id="Path_23538" data-name="Path 23538" d="M166.4,255.655l6.378-3.683c.512-.3.449-.811-.143-1.153l-6.32-3.649a2.221,2.221,0,0,0-2-.082l-6.378,3.682c-.512.3-.448.812.144,1.154l6.319,3.649A2.221,2.221,0,0,0,166.4,255.655Z" fill="#173d7a"/>
          <path id="Path_23539" data-name="Path 23539" d="M301.509,210.864l18.784-10.845c.512-.3.449-.812-.143-1.154l-6.32-3.648a2.218,2.218,0,0,0-2-.083l-18.782,10.845c-.512.3-.448.812.144,1.154l6.319,3.648A2.22,2.22,0,0,0,301.509,210.864Z" fill="#173d7a"/>
          <path id="Path_23540" data-name="Path 23540" d="M180.5,280.726l18.785-10.845c.512-.3.448-.812-.144-1.154l-6.319-3.648a2.218,2.218,0,0,0-2-.083l-18.785,10.845c-.512.3-.448.812.144,1.154l6.319,3.648A2.221,2.221,0,0,0,180.5,280.726Z" fill="#173d7a"/>
          <path id="Path_23541" data-name="Path 23541" d="M219.9,270.545l6.378-3.682c.512-.3.448-.812-.144-1.154l-7.529-4.346a2.221,2.221,0,0,0-2-.083l-6.378,3.683c-.512.3-.448.812.144,1.154l7.529,4.346A2.218,2.218,0,0,0,219.9,270.545Z" fill="#173d7a"/>
          <path id="Path_23542" data-name="Path 23542" d="M291.423,229.249l10.2-5.888c.512-.3.448-.812-.144-1.154l-7.529-4.346a2.221,2.221,0,0,0-2-.083l-10.2,5.889c-.512.3-.448.812.144,1.153l7.528,4.347A2.22,2.22,0,0,0,291.423,229.249Z" fill="#173d7a"/>
          <path id="Path_23543" data-name="Path 23543" d="M229.385,265.067l10.2-5.889c.512-.3.448-.812-.144-1.154l-7.528-4.346a2.221,2.221,0,0,0-2-.082l-10.2,5.883c-.512.3-.448.812.144,1.154l7.529,4.346A2.221,2.221,0,0,0,229.385,265.067Z" fill="#173d7a"/>
          <path id="Path_23544" data-name="Path 23544" d="M277.212,237.454l10.2-5.889c.512-.3.449-.812-.143-1.154l-7.529-4.346a2.221,2.221,0,0,0-2-.082l-10.2,5.888c-.512.3-.449.812.143,1.154l7.529,4.346A2.221,2.221,0,0,0,277.212,237.454Z" fill="#173d7a"/>
          <path id="Path_23545" data-name="Path 23545" d="M277.673,226.022l-44.347,25.6a.607.607,0,0,0,0,1.15L241,257.2a2.2,2.2,0,0,0,1.993,0l44.348-25.6Z" fill="#173d7a"/>
          <path id="Path_23546" data-name="Path 23546" d="M192.367,280.856l-7.1,4.1c-.42.243-.367.666.117.946l3.079,1.778a1.822,1.822,0,0,0,1.638.067l7.1-4.1c.42-.242.367-.666-.117-.945l-3.079-1.778A1.819,1.819,0,0,0,192.367,280.856Z" fill="#173d7a"/>
          <path id="Path_23547" data-name="Path 23547" d="M202.3,275.122l-7.1,4.1c-.42.243-.366.666.118.946l3.079,1.778a1.82,1.82,0,0,0,1.637.067l7.1-4.1c.42-.242.367-.666-.118-.945l-3.079-1.778A1.817,1.817,0,0,0,202.3,275.122Z" fill="#173d7a"/>
          <path id="Path_23548" data-name="Path 23548" d="M212.148,269.435l-7.1,4.1c-.419.243-.366.666.118.946l3.079,1.778a1.822,1.822,0,0,0,1.638.067l7.1-4.1c.42-.243.368-.666-.117-.946l-3.08-1.778A1.819,1.819,0,0,0,212.148,269.435Z" fill="#173d7a"/>
          <path id="Path_23549" data-name="Path 23549" d="M196.858,271.982l-7.1,4.1c-.42.243-.367.666.117.945l3.08,1.778a1.817,1.817,0,0,0,1.637.068l7.1-4.1c.42-.243.366-.666-.118-.946l-3.079-1.778A1.823,1.823,0,0,0,196.858,271.982Z" fill="#173d7a"/>
        </g>
      </g>
      <path id="Path_23550" data-name="Path 23550" d="M116.26,122.709l45.675-26.371,41.216-17.966,7.874,32.949s11.206,40.534-27.683,88.13c-49.449,3.407-57.985-38.67-57.985-38.67Z" fill="#d4ecff"/>
      <g id="Group_689" data-name="Group 689">
        <path id="Path_23551" data-name="Path 23551" d="M128,115.933l-11.743,6.778-5.35-1.859,16.049-9.266,76.2-33.213,1.38,5.774Z" fill="#173d7a"/>
        <path id="Path_23552" data-name="Path 23552" d="M116.261,122.71,128,115.933l1.22,5.1-11.739,6.774Z" fill="#396caa"/>
      </g>
      <g id="Group_691" data-name="Group 691">
        <g id="Group_690" data-name="Group 690" opacity="0.5">
          <path id="Path_23553" data-name="Path 23553" d="M213.872,97.783l8.563-4.944A2.45,2.45,0,0,0,223.48,90.3h0a1.192,1.192,0,0,0-1.832-.875l-8.562,4.944a2.447,2.447,0,0,0-1.045,2.536h0a1.191,1.191,0,0,0,1.831.875Z" fill="#d4ecff"/>
          <path id="Path_23554" data-name="Path 23554" d="M193.478,109.564l12.625-7.29a2.45,2.45,0,0,0,1.045-2.536h0a1.191,1.191,0,0,0-1.831-.875l-12.626,7.29a2.45,2.45,0,0,0-1.045,2.536h0a1.192,1.192,0,0,0,1.832.875Z" fill="#d4ecff"/>
          <path id="Path_23555" data-name="Path 23555" d="M228.8,137.751l8.563-4.944a2.45,2.45,0,0,0,1.049-2.536h0a1.192,1.192,0,0,0-1.832-.875l-8.568,4.945a2.448,2.448,0,0,0-1.044,2.536h0a1.191,1.191,0,0,0,1.832.874Z" fill="#d4ecff"/>
          <path id="Path_23556" data-name="Path 23556" d="M210.617,148.247l12.626-7.289a2.45,2.45,0,0,0,1.045-2.536h0a1.192,1.192,0,0,0-1.832-.875l-12.625,7.289a2.447,2.447,0,0,0-1.045,2.536h0a1.191,1.191,0,0,0,1.831.875Z" fill="#d4ecff"/>
          <path id="Path_23557" data-name="Path 23557" d="M239.131,91.3l5.349-3.088a2.45,2.45,0,0,0,1.045-2.536h0a1.192,1.192,0,0,0-1.832-.875l-5.349,3.088a2.449,2.449,0,0,0-1.045,2.536h0a1.192,1.192,0,0,0,1.832.875Z" fill="#d4ecff"/>
          <path id="Path_23558" data-name="Path 23558" d="M222.646,108.913l16.343-9.435a2.45,2.45,0,0,0,1.045-2.536h0a1.192,1.192,0,0,0-1.832-.875L221.859,105.5a2.45,2.45,0,0,0-1.045,2.536h0a1.192,1.192,0,0,0,1.832.875Z" fill="#d4ecff"/>
          <path id="Path_23559" data-name="Path 23559" d="M236.939,116.853l5.349-3.088a2.45,2.45,0,0,0,1.045-2.536h0a1.192,1.192,0,0,0-1.832-.875l-5.349,3.088a2.45,2.45,0,0,0-1.045,2.536h0a1.192,1.192,0,0,0,1.832.875Z" fill="#d4ecff"/>
          <path id="Path_23560" data-name="Path 23560" d="M207.865,166.031l14.287-8.249a2.45,2.45,0,0,0,1.045-2.536h0a1.192,1.192,0,0,0-1.832-.875l-14.287,8.249a2.447,2.447,0,0,0-1.044,2.536h0a1.191,1.191,0,0,0,1.831.875Z" fill="#d4ecff"/>
          <path id="Path_23561" data-name="Path 23561" d="M242.153,130.04l3.434-1.983a2.446,2.446,0,0,0,1.044-2.535h0a1.19,1.19,0,0,0-1.831-.875l-3.434,1.982a2.446,2.446,0,0,0-1.044,2.536h0a1.191,1.191,0,0,0,1.831.875Z" fill="#d4ecff"/>
          <path id="Path_23562" data-name="Path 23562" d="M244.621,144.811l4.264-2.462a2.45,2.45,0,0,0,1.045-2.536h0a1.192,1.192,0,0,0-1.832-.875l-4.264,2.462a2.447,2.447,0,0,0-1.044,2.536h0a1.191,1.191,0,0,0,1.831.875Z" fill="#d4ecff"/>
          <path id="Path_23563" data-name="Path 23563" d="M228.034,154.387l11.241-6.49a2.45,2.45,0,0,0,1.045-2.536h0a1.192,1.192,0,0,0-1.832-.875l-11.241,6.49a2.449,2.449,0,0,0-1.045,2.536h0a1.191,1.191,0,0,0,1.832.875Z" fill="#d4ecff"/>
          <path id="Path_23564" data-name="Path 23564" d="M242.452,154.16l8.082-4.666a2.45,2.45,0,0,0,1.045-2.536h0a1.192,1.192,0,0,0-1.832-.875l-8.082,4.666a2.45,2.45,0,0,0-1.045,2.536h0a1.192,1.192,0,0,0,1.832.875Z" fill="#d4ecff"/>
          <path id="Path_23565" data-name="Path 23565" d="M195.6,173.145l5.191-3a2.448,2.448,0,0,0,1.044-2.536h0a1.191,1.191,0,0,0-1.831-.875l-5.191,3a2.449,2.449,0,0,0-1.045,2.535h0a1.192,1.192,0,0,0,1.832.876Z" fill="#d4ecff"/>
          <path id="Path_23566" data-name="Path 23566" d="M217.043,128.344,231.33,120.1a2.448,2.448,0,0,0,1.044-2.536h0a1.191,1.191,0,0,0-1.831-.875l-14.287,8.249a2.449,2.449,0,0,0-1.045,2.536h0a1.192,1.192,0,0,0,1.832.875Z" fill="#d4ecff"/>
        </g>
        <path id="Path_23567" data-name="Path 23567" d="M215.739,121l24.9-14.376a2.45,2.45,0,0,0,1.045-2.536h0a1.192,1.192,0,0,0-1.832-.875l-24.9,14.376a2.447,2.447,0,0,0-1.045,2.536h0a1.191,1.191,0,0,0,1.832.875Z" fill="#d4ecff"/>
        <path id="Path_23568" data-name="Path 23568" d="M229.652,129.161l14.286-8.248a2.45,2.45,0,0,0,1.045-2.536h0a1.191,1.191,0,0,0-1.831-.875l-14.287,8.248a2.45,2.45,0,0,0-1.045,2.536h0a1.192,1.192,0,0,0,1.832.875Z" fill="#d4ecff"/>
        <path id="Path_23569" data-name="Path 23569" d="M206.205,134.6l5.191-3a2.45,2.45,0,0,0,1.045-2.536h0a1.192,1.192,0,0,0-1.832-.875l-5.191,3a2.446,2.446,0,0,0-1.044,2.536h0a1.191,1.191,0,0,0,1.831.875Z" fill="#d4ecff"/>
        <path id="Path_23570" data-name="Path 23570" d="M154.969,131.793l30.739-17.748a2.45,2.45,0,0,0,1.045-2.536h0a1.192,1.192,0,0,0-1.832-.875l-30.739,17.748a2.446,2.446,0,0,0-1.044,2.536h0a1.191,1.191,0,0,0,1.831.875Z" fill="#d4ecff"/>
        <path id="Path_23571" data-name="Path 23571" d="M230.062,145.119l17.174-9.916a2.45,2.45,0,0,0,1.045-2.536h0a1.192,1.192,0,0,0-1.832-.875l-17.173,9.916a2.446,2.446,0,0,0-1.045,2.536h0a1.191,1.191,0,0,0,1.831.875Z" fill="#d4ecff"/>
        <path id="Path_23572" data-name="Path 23572" d="M230.206,88.353l12.626-7.285a2.448,2.448,0,0,0,1.044-2.536h0a1.191,1.191,0,0,0-1.831-.875l-12.626,7.29a2.449,2.449,0,0,0-1.045,2.535h0a1.191,1.191,0,0,0,1.832.871Z" fill="#d4ecff"/>
        <path id="Path_23573" data-name="Path 23573" d="M244.7,160.959l14.623-8.442a2.45,2.45,0,0,0,1.045-2.536h0a1.191,1.191,0,0,0-1.831-.875l-14.623,8.442a2.447,2.447,0,0,0-1.045,2.536h0a1.191,1.191,0,0,0,1.831.875Z" fill="#d4ecff"/>
      </g>
      <g id="Group_692" data-name="Group 692">
        <path id="Path_23574" data-name="Path 23574" d="M145.1,71.537A209.41,209.41,0,0,1,182.07,50.19l25.045-11.134,8.024,3.126s-3.522,1.883-6.452,3.454L220.578,95.4s11.207,40.535-27.682,88.13a69.159,69.159,0,0,1-19.7-1.27c.118.467.2.786.2.786l-7.222-2.826q-1.009-.37-1.973-.772l-.153-.059h.01c-24.193-10.136-29.146-34.529-29.146-34.529L121.447,88.52Z" fill="#488eff"/>
        <path id="Path_23575" data-name="Path 23575" d="M182.07,50.194,207.115,39.06l8.024,3.126s-3.522,1.883-6.452,3.454L213,63.694l-44.643,29.03-38.884-1.078-8.025-3.126L145.1,71.537A209.426,209.426,0,0,1,182.07,50.194Z" fill="#488eff"/>
        <path id="Path_23576" data-name="Path 23576" d="M170.265,63.514l-8.074-3.082A200.4,200.4,0,0,1,182.07,50.194L207.115,39.06l8.028,3.126s-3.522,1.883-6.452,3.454l.256,1.067C193.322,53.552,170.265,63.514,170.265,63.514Z" fill="#488eff"/>
        <path id="Path_23577" data-name="Path 23577" d="M168.554,56.846l15.035,5.633L171,69.749l-14.924-5.591Q162.252,60.257,168.554,56.846Z" fill="#2c3964"/>
        <path id="Path_23578" data-name="Path 23578" d="M142.935,147.983,129.472,91.646l23.647-16.979A209.419,209.419,0,0,1,190.094,53.32l25.045-11.134L228.6,98.522s11.206,40.535-27.683,88.13C151.47,190.06,142.935,147.983,142.935,147.983Z" fill="#81e6ff"/>
        <path id="Path_23579" data-name="Path 23579" d="M197.784,180.527c17.57-22.309,23.438-42.618,25.242-55.894,2.016-14.838-.457-24.371-.474-24.437L210.789,51l-18.143,8.066a203.516,203.516,0,0,0-35.862,20.71L136.559,94.287l12.483,52.235.047.211a46.864,46.864,0,0,0,9.142,17.868C167.422,175.76,180.725,181.113,197.784,180.527Z" fill="#244780"/>
      </g>
      <g id="Group_693" data-name="Group 693">
        <path id="Path_23580" data-name="Path 23580" d="M134.792,217.8a2.9,2.9,0,0,1-1.182,3.283A1.745,1.745,0,0,1,131,219.986a2.892,2.892,0,0,1,1.182-3.283,1.748,1.748,0,0,1,2.609,1.094Z" fill="#d4ecff"/>
        <path id="Path_23581" data-name="Path 23581" d="M140.891,214.275a2.893,2.893,0,0,1-1.182,3.283,1.745,1.745,0,0,1-2.609-1.094,2.892,2.892,0,0,1,1.182-3.283,1.748,1.748,0,0,1,2.609,1.094Z" fill="#d4ecff"/>
        <path id="Path_23582" data-name="Path 23582" d="M146.989,210.754a2.893,2.893,0,0,1-1.182,3.283,1.745,1.745,0,0,1-2.609-1.094,2.892,2.892,0,0,1,1.182-3.283,1.748,1.748,0,0,1,2.609,1.094Z" fill="#d4ecff"/>
      </g>
      <path id="Path_23583" data-name="Path 23583" d="M138.79,344.874l18.35-10.593c1.126-.651.985-1.786-.316-2.537l-17.718-10.23a4.882,4.882,0,0,0-4.394-.182l-18.347,10.6c-1.126.65-.985,1.786.315,2.537L134.4,344.7A4.881,4.881,0,0,0,138.79,344.874Z" fill="#c4d9e8" opacity="0.5" style="isolation: isolate"/>
      <g id="Group_696" data-name="Group 696">
        <path id="Path_23584" data-name="Path 23584" d="M100.917,313.083h0V302.41l23.932-.013,8.273-4.776a8.233,8.233,0,0,1,7.407.307l7.718,4.456,23.954-.014v10.977a2.15,2.15,0,0,1-1.272,1.985L140,333.191a8.233,8.233,0,0,1-7.407-.307l-29.872-17.245C101.456,314.909,100.846,313.962,100.917,313.083Z" fill="#2c3964"/>
        <path id="Path_23585" data-name="Path 23585" d="M136.558,296.887a8.541,8.541,0,0,1,3.971,1.041l7.718,4.456,23.954-.014v10.977a2.15,2.15,0,0,1-1.272,1.985L140,333.19a6.71,6.71,0,0,1-3.438.735Z" fill="#62adbf"/>
        <path id="Path_23586" data-name="Path 23586" d="M169.489,302.372H172.2v10.977a2.15,2.15,0,0,1-1.272,1.985l-1.439.831Z" fill="#2c3964"/>
        <path id="Path_23587" data-name="Path 23587" d="M139.52,333.424a8.446,8.446,0,0,1-5.921-.067V320.893h5.921Z" fill="#2c3964"/>
        <path id="Path_23588" data-name="Path 23588" d="M140,322.253l30.933-17.859c1.9-1.1,1.66-3.011-.532-4.277l-29.869-17.244a8.239,8.239,0,0,0-7.407-.307l-30.933,17.859c-1.9,1.1-1.66,3.01.532,4.276l29.868,17.244A8.232,8.232,0,0,0,140,322.253Z" fill="#81e6ff"/>
        <g id="Group_695" data-name="Group 695">
          <g id="Group_694" data-name="Group 694">
            <path id="Path_23589" data-name="Path 23589" d="M112.295,315.9a2.759,2.759,0,0,0,1.249,2.164c.69.4,1.25.075,1.25-.721a2.763,2.763,0,0,0-1.25-2.164C112.855,314.78,112.295,315.1,112.295,315.9Z" fill="#feac00"/>
            <path id="Path_23590" data-name="Path 23590" d="M108.274,313.578a2.76,2.76,0,0,0,1.25,2.164c.689.4,1.249.075,1.249-.721a2.765,2.765,0,0,0-1.249-2.164C108.834,312.459,108.274,312.782,108.274,313.578Z" fill="#feac00"/>
            <path id="Path_23591" data-name="Path 23591" d="M104.255,311.258a2.759,2.759,0,0,0,1.249,2.164c.69.4,1.25.075,1.25-.721a2.763,2.763,0,0,0-1.25-2.164C104.815,310.138,104.255,310.461,104.255,311.258Z" fill="#feac00"/>
          </g>
        </g>
      </g>
      <path id="Path_23592" data-name="Path 23592" d="M152.18,315.219,140,322.253a8.233,8.233,0,0,1-7.407-.307l-21.676-12.51-.139-.165,17.491-9.689Z" fill="#244780"/>
      <path id="Path_23593" data-name="Path 23593" d="M147.175,318.11v10.937l4.531-2.579,2.077-10.608-3.547.483Z" fill="#2c3964"/>
      <path id="Path_23594" data-name="Path 23594" d="M161.891,320.549l-1.094.631-2.147-10.248,1.341-.578,4.106,1.4Z" fill="#721bd5"/>
      <g id="Group_701" data-name="Group 701">
        <ellipse id="Ellipse_51" data-name="Ellipse 51" cx="17.781" cy="10.266" rx="17.781" ry="10.266" transform="translate(143.033 338.517)" fill="#c4d9e8" opacity="0.5" style="isolation: isolate"/>
        <g id="Group_698" data-name="Group 698">
          <path id="Path_23595" data-name="Path 23595" d="M152.393,343.833s2.777-1.4,4.483.685,4.144,7.009,4.22,10.336-2.634,3.1-4.243,2.315-6.312-7.609-6.6-8.946a4.634,4.634,0,0,1,.788-3.5C151.5,344.371,152.393,343.833,152.393,343.833Z" fill="#2c3964"/>
          <path id="Path_23596" data-name="Path 23596" d="M151.786,343.163l-.129,2.878a1.635,1.635,0,0,0,.813,1.5,3.2,3.2,0,0,0,2.142.333c2.093-.336,2.279-.934,2.429-3.81S151.786,343.163,151.786,343.163Z" fill="#805700"/>
          <g id="Group_697" data-name="Group 697">
            <path id="Path_23597" data-name="Path 23597" d="M162.56,338.3s2.777-1.4,4.483.684,4.144,7.01,4.219,10.337-2.633,3.1-4.242,2.315-6.313-7.609-6.6-8.946a4.634,4.634,0,0,1,.788-3.5C161.663,338.838,162.56,338.3,162.56,338.3Z" fill="#2c3964"/>
            <path id="Path_23598" data-name="Path 23598" d="M161.953,337.63l-.129,2.878a1.631,1.631,0,0,0,.813,1.5,3.2,3.2,0,0,0,2.142.333c2.093-.336,2.279-.934,2.429-3.81S161.953,337.63,161.953,337.63Z" fill="#805700"/>
            <path id="Path_23599" data-name="Path 23599" d="M137.169,284.8c.822-13.376,14.486,1.968,14.486,1.968l9.351,9.166,8.421,9.251a8.3,8.3,0,0,1,2.092,6.668l-3.406,25.939a2.549,2.549,0,0,1-2.556,2.216,8.738,8.738,0,0,1-1.262-.11,3.169,3.169,0,0,1-2.815-3.363l.623-24.261-17.685-10.661S136.347,298.176,137.169,284.8Z" fill="#feac00"/>
          </g>
          <path id="Path_23600" data-name="Path 23600" d="M127,289.9c.821-13.377,14.485,1.967,14.485,1.967l9.352,9.167,8.421,9.25a8.3,8.3,0,0,1,2.091,6.668l-3.406,25.94a2.548,2.548,0,0,1-2.556,2.215,8.6,8.6,0,0,1-1.262-.11,3.169,3.169,0,0,1-2.815-3.363l.623-24.261-17.685-10.661S126.181,303.272,127,289.9Z" fill="#feac00"/>
          <path id="Path_23601" data-name="Path 23601" d="M135.087,246.955c-10.359,4.295-10.151,10.418-10.151,10.418s2.029,22.449,1.336,37.442c-.289,6.267,33.3,6.745,28.29-9.975-5.906-19.715-3.693-35.675-6.457-38.083S137.766,245.848,135.087,246.955Z" fill="url(#linear-gradient)"/>
          <circle id="Ellipse_52" data-name="Ellipse 52" cx="7.978" cy="7.978" r="7.978" transform="translate(131.016 231.571)" fill="#ffc2b0"/>
          <path id="Path_23602" data-name="Path 23602" d="M131.754,252.389c.542,2.1,3.3,3.211,6.155,2.475s4.735-3.038,4.193-5.142-3.3-3.211-6.155-2.475S131.212,250.286,131.754,252.389Z" fill="#ffc2b0"/>
          <path id="Path_23603" data-name="Path 23603" d="M139.24,246.492a25.254,25.254,0,0,0,.089,3.7c.056,1.032-3.557,2-4.491,1.062s-.561-1.906-.784-5.418S139.24,246.492,139.24,246.492Z" fill="#ffc2b0"/>
          <path id="Path_23604" data-name="Path 23604" d="M145.5,240.345s-3.824-1.623-7.179-.947a3.515,3.515,0,0,0-2.028,1.205,1.192,1.192,0,0,1-.614.444c-.594.135-1.569-2.334-2.725-2.39s-1.928.763-.98,2.28.627,3.217.191,3.461-5.063-3.3-.982-11.386,14.449-3.731,16.062-2.092c0,0,1.7,1.48,3.08.162C150.326,231.083,151.876,242.684,145.5,240.345Z" fill="#2c3964"/>
          <path id="Path_23605" data-name="Path 23605" d="M130.747,273.778v6.067a2.465,2.465,0,0,0,.806,1.826l12.458,11.36L142.6,295.2l-16.456-11.934a3.344,3.344,0,0,1-1.363-2.358l-1.112-10.578Z" fill="#ffc2b0"/>
          <path id="Path_23606" data-name="Path 23606" d="M125.812,254.345s-3.78,5.685-5.188,20.651c0,0,6.457,2.088,10.123.9S125.812,254.345,125.812,254.345Z" fill="url(#linear-gradient-2)"/>
          <path id="Path_23607" data-name="Path 23607" d="M131.436,261.533A105.405,105.405,0,0,1,133,273.177a2.375,2.375,0,0,1-1.565,2.294h0Z" fill="#244780"/>
        </g>
        <g id="Group_699" data-name="Group 699">
          <path id="Path_23608" data-name="Path 23608" d="M134.669,300.919l2.754-.363L155.2,290.29a2.47,2.47,0,0,1,2.224.093l12.6,7.27,1.665-.22v1.658h0a.647.647,0,0,1-.382.583l-20.155,11.634a2.47,2.47,0,0,1-2.224-.092L135.211,303.3a.9.9,0,0,1-.544-.748h0Z" fill="#2c3964"/>
          <path id="Path_23609" data-name="Path 23609" d="M148.028,294.433l1.263-.73h13.888l6.846,3.95,1.665-.22v1.658h0a.647.647,0,0,1-.382.583L151.16,311.307a2.07,2.07,0,0,1-1.147.215Z" fill="#396caa"/>
          <path id="Path_23610" data-name="Path 23610" d="M170.95,297.532l.739-.1v1.658h0a.647.647,0,0,1-.382.583l-.355.2Z" fill="#5793ce"/>
          <path id="Path_23611" data-name="Path 23611" d="M150.954,311.4a2.578,2.578,0,0,1-1.889-.117v-2.821h1.889Z" fill="#274f89"/>
          <path id="Path_23612" data-name="Path 23612" d="M151.155,309.651,171.3,298.019c.571-.329.5-.9-.159-1.284l-13.719-7.919a2.47,2.47,0,0,0-2.224-.092l-20.146,11.633c-.57.329-.5.9.159,1.284l13.719,7.918A2.472,2.472,0,0,0,151.155,309.651Z" fill="#d4e6ff"/>
          <path id="Path_23613" data-name="Path 23613" d="M151.5,307.889l16.754-9.672c.473-.274.414-.752-.133-1.068l-7.352-4.134a2.053,2.053,0,0,0-1.849-.076l-16.753,9.672c-.473.273-.414.752.133,1.068l7.352,4.134A2.054,2.054,0,0,0,151.5,307.889Z" fill="#f4f8ff"/>
        </g>
        <path id="Path_23614" data-name="Path 23614" d="M156.647,288.435l.209,1.39a10.314,10.314,0,0,1-.091,3.565l-.248,1.225a1.725,1.725,0,0,1-1.381,1.353h0a.948.948,0,0,1-1.1-.763.5.5,0,0,1-.01-.066l-.33-2.973s-.761,1-1.127,1,.41-2.976,1.241-4.66S156.647,288.435,156.647,288.435Z" fill="#ffc2b0"/>
        <path id="Path_23615" data-name="Path 23615" d="M149.818,266.34l2.161,4.279a8.408,8.408,0,0,1,.885,3.248L153.8,288.5l2.844-.067,1.291-16.441a5.994,5.994,0,0,0-.074-1.519l-1.474-8.334Z" fill="#ffc2b0"/>
        <g id="Group_700" data-name="Group 700">
          <path id="Path_23616" data-name="Path 23616" d="M151.676,310.688l1.689-2.206L171.131,298.2a2.47,2.47,0,0,0,1.03-1.973l-.016-14.545,1.022-1.333-.961-.556h0a.646.646,0,0,0-.7.04l-20.135,11.658a2.469,2.469,0,0,0-1.029,1.973l.017,15.841a.9.9,0,0,0,.376.844h0Z" fill="#2c3964"/>
          <path id="Path_23617" data-name="Path 23617" d="M163.962,302.347l1.262-.731,6.929-12.034-.008-7.9,1.022-1.333-.961-.556h0a.647.647,0,0,0-.7.04l-20.135,11.658a2.092,2.092,0,0,0-.759.886Z" fill="#2c3964"/>
          <path id="Path_23618" data-name="Path 23618" d="M172.714,280.935l.454-.591-.961-.556h0a.647.647,0,0,0-.7.04l-.355.206Z" fill="#d4e6ff"/>
          <path id="Path_23619" data-name="Path 23619" d="M151.193,291.612a2.573,2.573,0,0,0-.841,1.7l1.967,1.136.943-1.637Z" fill="#2c3964"/>
          <path id="Path_23620" data-name="Path 23620" d="M152.337,292.042l20.134-11.657c.57-.33,1.032.019,1.033.779l.017,15.84a2.467,2.467,0,0,1-1.029,1.973l-20.135,11.658c-.57.33-1.032-.019-1.033-.78l-.017-15.841A2.47,2.47,0,0,1,152.337,292.042Z" fill="#d4e6ff"/>
        </g>
        <path id="Path_23621" data-name="Path 23621" d="M142.6,295.2l.323.669a4.474,4.474,0,0,0,1.683,1.866l2,1.232a1.99,1.99,0,0,0,2.041.048l.068-.042a1.2,1.2,0,0,0,.321-1.666,1.151,1.151,0,0,0-.151-.182l-2.09-2.148s1.174.9,1.5.537c.242-.265-1.138-1.561-2.2-1.6a4.167,4.167,0,0,1-2.084-.875Z" fill="#ffc2b0"/>
        <path id="Path_23622" data-name="Path 23622" d="M147.9,246.73s7.661,8.336,10.753,15.984a15.641,15.641,0,0,1-9.033,6.573C143.205,271.143,147.9,246.73,147.9,246.73Z" fill="url(#linear-gradient-3)"/>
        <path id="Path_23623" data-name="Path 23623" d="M151.059,268.791l-1.242-12,2.926,11.239A16.52,16.52,0,0,1,151.059,268.791Z" fill="#244780"/>
        <path id="Path_23624" data-name="Path 23624" d="M142.159,245.047l2.058-.566a4.971,4.971,0,0,1-2.418,1.94c-1.434.394-1.658-.82-1.658-.82Z" fill="#fff"/>
      </g>
      <g id="Group_707" data-name="Group 707" transform="translate(-5.026 -3.975)">
        <g id="Group_784" data-name="Group 784" transform="translate(166.4 105.781)">
          <g id="Group_783" data-name="Group 783" style="isolation: isolate">
            <g id="Group_782" data-name="Group 782" clip-path="url(#clip-path)">
              <g id="Group_781" data-name="Group 781" transform="translate(2.642 0.258)">
                <g id="Group_780" data-name="Group 780">
                  <g id="Group_779" data-name="Group 779">
                    <g id="Group_778" data-name="Group 778">
                      <g id="Group_777" data-name="Group 777">
                        <g id="Group_776-2" data-name="Group 776" clip-path="url(#clip-path-2)">
                          <path id="Path_23909" data-name="Path 23909" d="M173.934,118.1a3.958,3.958,0,0,0-1.933.635,7.3,7.3,0,0,0-2.983,3.284l1.18,1.358a5.583,5.583,0,0,1,2.032-2.428,2.123,2.123,0,0,1,1.065-.361,1.621,1.621,0,0,1,1.626,1.384c.548,1.707-.174,3.953-1.865,8.265l-.852,2.15.112.345.377,1.135,7.539-4.321-.658-2.019-4.567,2.618-.018-.045.652-1.522c1.25-3.179,2.048-5.8,1.3-8.054a3.013,3.013,0,0,0-3.008-2.424" transform="translate(-168.212 -102.136)" fill="#81e6ff"/>
                          <path id="Path_23910" data-name="Path 23910" d="M179.171,124.062l.008-.045.876-4.689c.1-.906.171-1.72.249-2.727l.067-.036c.2.782.429,1.541.673,2.277l1.16,3.49-3.033,1.73m2.448-10.619-2.481,1.429-1.884,10.6.527,1.583,5.036-2.883,1.072,3.257,1.982-1.142-1.072-3.255,1.435-.828-.611-1.84-1.435.828-2.568-7.749" transform="translate(-165.602 -103.61)" fill="#81e6ff"/>
                          <path id="Path_23911" data-name="Path 23911" d="M186.525,109.616l-1.473.844.567,16.713,1.473-.845-.567-16.712" transform="translate(-163.132 -104.823)" fill="#81e6ff"/>
                          <path id="Path_23912" data-name="Path 23912" d="M194.491,106.5l-7.474,4.276.673,2.029,5.225-3.013.009.045-1.111,13.472,2.225-1.273L195,108.063l-.513-1.561" transform="translate(-162.509 -105.81)" fill="#81e6ff"/>
                        </g>
                      </g>
                    </g>
                  </g>
                </g>
              </g>
            </g>
          </g>
        </g>
      </g>
    </g>
  </g>
</svg>
