<svg xmlns="http://www.w3.org/2000/svg" xmlns:xlink="http://www.w3.org/1999/xlink" width="470" height="470" viewBox="0 0 470 470">
  <defs>
    <linearGradient id="linear-gradient" x1="0.157" y1="0.834" x2="0.821" y2="0.187" gradientUnits="objectBoundingBox">
      <stop offset="0" stop-color="#fff"/>
      <stop offset="0.193" stop-color="#fbfeff"/>
      <stop offset="0.37" stop-color="#f0fcff"/>
      <stop offset="0.54" stop-color="#ddf8ff"/>
      <stop offset="0.706" stop-color="#c3f3ff"/>
      <stop offset="0.867" stop-color="#a2ecff"/>
      <stop offset="1" stop-color="#81e6ff"/>
    </linearGradient>
    <linearGradient id="linear-gradient-2" x1="0.153" y1="0.831" x2="0.825" y2="0.19" gradientUnits="objectBoundingBox">
      <stop offset="0" stop-color="#488eff"/>
      <stop offset="0.003" stop-color="#498eff"/>
      <stop offset="0.134" stop-color="#78acff"/>
      <stop offset="0.269" stop-color="#a1c5ff"/>
      <stop offset="0.406" stop-color="#c3daff"/>
      <stop offset="0.546" stop-color="#ddeaff"/>
      <stop offset="0.689" stop-color="#f0f5ff"/>
      <stop offset="0.837" stop-color="#fbfcff"/>
      <stop offset="1" stop-color="#fff"/>
    </linearGradient>
    <linearGradient id="linear-gradient-3" x1="0.157" y1="0.834" x2="0.821" y2="0.187" gradientUnits="objectBoundingBox">
      <stop offset="0" stop-color="#fff"/>
      <stop offset="0.163" stop-color="#fbfcff"/>
      <stop offset="0.311" stop-color="#f0f5ff"/>
      <stop offset="0.454" stop-color="#ddeaff"/>
      <stop offset="0.594" stop-color="#c3daff"/>
      <stop offset="0.731" stop-color="#a1c5ff"/>
      <stop offset="0.866" stop-color="#78acff"/>
      <stop offset="0.997" stop-color="#498eff"/>
      <stop offset="1" stop-color="#488eff"/>
    </linearGradient>
    <linearGradient id="linear-gradient-4" x1="0.279" y1="0.72" x2="0.825" y2="0.19" gradientUnits="objectBoundingBox">
      <stop offset="0" stop-color="#fff"/>
      <stop offset="0.163" stop-color="#fbfcff"/>
      <stop offset="0.311" stop-color="#f0f5ff"/>
      <stop offset="0.454" stop-color="#ddeaff"/>
      <stop offset="0.594" stop-color="#c3daff"/>
      <stop offset="0.731" stop-color="#a1c5ff"/>
      <stop offset="0.866" stop-color="#78acff"/>
      <stop offset="1" stop-color="#498eff"/>
      <stop offset="1" stop-color="#488eff"/>
    </linearGradient>
  </defs>
  <g id="Group_1357" data-name="Group 1357" transform="translate(-81.328 -10.925)">
    <g id="Group_1321" data-name="Group 1321" transform="translate(413.192 149.4)" opacity="0.3">
      <path id="Path_24290" data-name="Path 24290" d="M403.7,163.6l-48.825-30.618a1.2,1.2,0,0,0-.983-.132v-.007l-1.357.238,0,.008a1.212,1.212,0,0,0-1.174,1.013l-14.822,89.147a1.221,1.221,0,0,0,.555,1.234L385.919,255.1a1.2,1.2,0,0,0,.806.17v.017l1.7-.306.05-.008.026,0v0a1.213,1.213,0,0,0,.932-.986l14.822-89.147A1.221,1.221,0,0,0,403.7,163.6Z" transform="translate(-336.522 -132.802)" opacity="0.8" fill="url(#linear-gradient)"/>
      <path id="Path_24291" data-name="Path 24291" d="M385.919,255.019,337.094,224.4a1.221,1.221,0,0,1-.555-1.234l14.822-89.147a1.22,1.22,0,0,1,1.851-.834L402.037,163.8a1.221,1.221,0,0,1,.555,1.234L387.77,254.185A1.22,1.22,0,0,1,385.919,255.019Z" transform="translate(-336.522 -132.719)" opacity="0.8" fill="url(#linear-gradient-2)"/>
    </g>
    <g id="Group_1328" data-name="Group 1328" transform="translate(422.077 167.759)">
      <g id="Group_1327" data-name="Group 1327">
        <g id="Group_1322" data-name="Group 1322" transform="translate(9.009)" opacity="0.2">
          <path id="Path_24292" data-name="Path 24292" d="M350.423,145.961l-.288,1.624a.318.318,0,0,0,.152.331l38.355,23.889a.228.228,0,0,0,.33-.14l.282-1.578a.463.463,0,0,0-.221-.482L350.81,145.8A.268.268,0,0,0,350.423,145.961Z" transform="translate(-348.752 -145.764)" fill="#488eff"/>
          <path id="Path_24293" data-name="Path 24293" d="M349.937,148.824l-.289,1.624a.316.316,0,0,0,.153.33l38.355,23.889a.228.228,0,0,0,.33-.139l.28-1.578a.463.463,0,0,0-.221-.483l-38.223-23.807A.267.267,0,0,0,349.937,148.824Z" transform="translate(-348.955 -144.573)" fill="#488eff"/>
          <path id="Path_24294" data-name="Path 24294" d="M349.451,151.687l-.289,1.623a.316.316,0,0,0,.152.331l38.355,23.889a.228.228,0,0,0,.331-.14l.28-1.578a.462.462,0,0,0-.221-.482l-38.223-23.807A.266.266,0,0,0,349.451,151.687Z" transform="translate(-349.157 -143.381)" fill="#488eff"/>
        </g>
        <g id="Group_1323" data-name="Group 1323" transform="translate(6.929 12.164)" opacity="0.2">
          <path id="Path_24295" data-name="Path 24295" d="M348.956,154.55l-.289,1.623a.317.317,0,0,0,.152.331l38.355,23.889a.23.23,0,0,0,.331-.14l.28-1.578a.462.462,0,0,0-.221-.482l-38.223-23.807A.266.266,0,0,0,348.956,154.55Z" transform="translate(-347.284 -154.353)" fill="#488eff"/>
          <path id="Path_24296" data-name="Path 24296" d="M348.468,157.412l-.289,1.624a.321.321,0,0,0,.153.331l38.355,23.889a.228.228,0,0,0,.33-.14l.28-1.578a.461.461,0,0,0-.221-.482l-38.222-23.809A.268.268,0,0,0,348.468,157.412Z" transform="translate(-347.486 -153.161)" fill="#488eff"/>
          <path id="Path_24297" data-name="Path 24297" d="M347.982,160.275l-.289,1.624a.316.316,0,0,0,.153.33L386.2,186.118a.228.228,0,0,0,.33-.139l.28-1.578a.463.463,0,0,0-.221-.483l-38.223-23.807A.267.267,0,0,0,347.982,160.275Z" transform="translate(-347.689 -151.97)" fill="#488eff"/>
        </g>
        <g id="Group_1324" data-name="Group 1324" transform="translate(4.848 24.326)" opacity="0.2">
          <path id="Path_24298" data-name="Path 24298" d="M347.486,163.138l-.289,1.623a.318.318,0,0,0,.152.331L385.7,188.982a.228.228,0,0,0,.331-.14l.28-1.578a.462.462,0,0,0-.221-.482l-38.223-23.807A.266.266,0,0,0,347.486,163.138Z" transform="translate(-345.815 -162.941)" fill="#488eff"/>
          <path id="Path_24299" data-name="Path 24299" d="M347,166l-.288,1.623a.317.317,0,0,0,.152.331l38.355,23.889a.23.23,0,0,0,.331-.14l.28-1.578a.462.462,0,0,0-.221-.482l-38.223-23.807A.267.267,0,0,0,347,166Z" transform="translate(-346.017 -161.749)" fill="#488eff"/>
          <path id="Path_24300" data-name="Path 24300" d="M346.513,168.863l-.289,1.624a.321.321,0,0,0,.153.331l38.355,23.889a.228.228,0,0,0,.33-.14l.28-1.578a.461.461,0,0,0-.221-.482L346.9,168.7A.268.268,0,0,0,346.513,168.863Z" transform="translate(-346.22 -160.558)" fill="#488eff"/>
        </g>
        <g id="Group_1325" data-name="Group 1325" transform="translate(2.769 36.489)" opacity="0.2">
          <path id="Path_24301" data-name="Path 24301" d="M346.017,171.726l-.289,1.623a.317.317,0,0,0,.153.331l38.355,23.889a.228.228,0,0,0,.33-.139l.28-1.579a.462.462,0,0,0-.221-.482L346.4,171.563A.266.266,0,0,0,346.017,171.726Z" transform="translate(-344.346 -171.529)" fill="#488eff"/>
          <path id="Path_24302" data-name="Path 24302" d="M345.532,174.589l-.289,1.623a.316.316,0,0,0,.152.331l38.355,23.889a.228.228,0,0,0,.331-.14l.28-1.578a.462.462,0,0,0-.221-.482l-38.223-23.807A.266.266,0,0,0,345.532,174.589Z" transform="translate(-344.549 -170.337)" fill="#488eff"/>
          <path id="Path_24303" data-name="Path 24303" d="M345.044,177.452l-.287,1.623a.317.317,0,0,0,.152.331L383.263,203.3a.23.23,0,0,0,.331-.14l.28-1.578a.462.462,0,0,0-.221-.482l-38.223-23.807A.267.267,0,0,0,345.044,177.452Z" transform="translate(-344.751 -169.146)" fill="#488eff"/>
        </g>
        <g id="Group_1326" data-name="Group 1326" transform="translate(0 48.652)" opacity="0.2">
          <path id="Path_24304" data-name="Path 24304" d="M344.548,180.314l-.287,1.624a.318.318,0,0,0,.152.331l38.355,23.889a.228.228,0,0,0,.33-.14l.282-1.578a.463.463,0,0,0-.221-.482l-38.223-23.808A.268.268,0,0,0,344.548,180.314Z" transform="translate(-342.189 -180.117)" fill="#488eff"/>
          <path id="Path_24305" data-name="Path 24305" d="M344.062,183.177l-.289,1.623a.317.317,0,0,0,.153.331l38.355,23.889a.228.228,0,0,0,.33-.139l.28-1.579a.462.462,0,0,0-.221-.482l-38.223-23.807A.266.266,0,0,0,344.062,183.177Z" transform="translate(-342.391 -178.926)" fill="#488eff"/>
          <path id="Path_24306" data-name="Path 24306" d="M343.577,186.04l-.289,1.623a.316.316,0,0,0,.152.331l38.355,23.889a.228.228,0,0,0,.331-.14l.28-1.578a.462.462,0,0,0-.221-.482l-38.223-23.807A.266.266,0,0,0,343.577,186.04Z" transform="translate(-342.594 -177.734)" fill="#488eff"/>
          <path id="Path_24307" data-name="Path 24307" d="M343.089,188.9l-.288,1.623a.317.317,0,0,0,.152.331l25.331,15.78a.229.229,0,0,0,.331-.139l.28-1.579a.462.462,0,0,0-.221-.482l-25.2-15.7A.267.267,0,0,0,343.089,188.9Z" transform="translate(-342.796 -176.542)" fill="#488eff"/>
        </g>
      </g>
    </g>
    <g id="Group_1329" data-name="Group 1329" transform="translate(263.846 100.765)">
      <path id="Path_24308" data-name="Path 24308" d="M406.374,188.857,260.466,99.015a3.716,3.716,0,0,0-2.612-.5l-.007-.007-.054.011-.03.006-3.307.727-.018,0-.095.02,0,.01a3.746,3.746,0,0,0-2.9,3.052l-20.274,122.5a7.437,7.437,0,0,0,3.439,7.549l143.334,88.258a4.554,4.554,0,0,0,4.152.326l0,.014,2.352-.462c.072-.011.143-.026.214-.041l.17-.033-.006-.02a4.574,4.574,0,0,0,3.41-3.691l20.357-123A4.812,4.812,0,0,0,406.374,188.857Z" transform="translate(-231.07 -98.46)" fill="#244780"/>
      <path id="Path_24309" data-name="Path 24309" d="M377.943,320.429,234.609,232.171a7.437,7.437,0,0,1-3.439-7.549l20.274-122.5a3.766,3.766,0,0,1,5.69-2.592l145.907,89.841a4.813,4.813,0,0,1,2.224,4.883l-20.357,123A4.61,4.61,0,0,1,377.943,320.429Z" transform="translate(-231.07 -98.247)" fill="#d4e6ff"/>
      <path id="Path_24310" data-name="Path 24310" d="M377.679,314.965,235.547,227.486a4.5,4.5,0,0,1-2.078-4.56l19.605-118.453a2.386,2.386,0,0,1,3.606-1.643l141.984,87.387a4.754,4.754,0,0,1,2.2,4.824L381.285,313.322A2.387,2.387,0,0,1,377.679,314.965Z" transform="translate(-230.096 -96.79)" fill="#244780"/>
    </g>
    <g id="Group_1330" data-name="Group 1330" transform="translate(152.329 233.246)">
      <path id="Path_24311" data-name="Path 24311" d="M411.422,282.141,266.668,193.009a6.767,6.767,0,0,0-7.09,0L154.113,257.784a3.71,3.71,0,0,0-1.762,3.44v6.467l.026-2.818a3.709,3.709,0,0,0,1.732,3.641l144.668,89.079a6.81,6.81,0,0,0,7.131,0l105.51-64.807a3.66,3.66,0,0,0,1.739-3.393l.028,2.815V285.3h0A3.679,3.679,0,0,0,411.422,282.141Z" transform="translate(-152.322 -192.005)" fill="#244780"/>
      <path id="Path_24312" data-name="Path 24312" d="M298.783,353.263,154.115,264.184a3.755,3.755,0,0,1,0-6.4l105.465-64.78a6.767,6.767,0,0,1,7.09,0l144.754,89.131a3.71,3.71,0,0,1,0,6.319l-105.51,64.807A6.809,6.809,0,0,1,298.783,353.263Z" transform="translate(-152.329 -192.005)" fill="#d4e6ff"/>
      <path id="Path_24313" data-name="Path 24313" d="M375.987,279.685a3.241,3.241,0,0,1-1.544,2.408L320.7,315.714a6.055,6.055,0,0,1-6.345-.014L192.881,240.894a3.245,3.245,0,0,1-1.558-2.436c-.014-.014-.014-.014,0-.028a3.268,3.268,0,0,1,1.558-3.229l53.7-33.593a6.036,6.036,0,0,1,6.316,0L374.443,276.47A3.272,3.272,0,0,1,375.987,279.685Z" transform="translate(-136.108 -188.379)" fill="#fff" style="mix-blend-mode: multiply;isolation: isolate"/>
      <path id="Path_24314" data-name="Path 24314" d="M240.159,300.146l-50.605-31.16a1.314,1.314,0,0,1,0-2.239L223.7,245.36a2.365,2.365,0,0,1,2.48,0l50.636,31.179a1.3,1.3,0,0,1,0,2.211l-34.158,21.4A2.381,2.381,0,0,1,240.159,300.146Z" transform="translate(-137.094 -169.941)" fill="#fff" style="mix-blend-mode: multiply;isolation: isolate"/>
    </g>
    <g id="Group_1331" data-name="Group 1331" transform="translate(302.809 92.924)">
      <path id="Path_24315" data-name="Path 24315" d="M362.454,140.55,286.955,93.2a1.857,1.857,0,0,0-1.52-.2v-.013l-2.1.368,0,.013a1.878,1.878,0,0,0-1.817,1.566L258.608,232.785a1.883,1.883,0,0,0,.858,1.906l75.5,47.345a1.852,1.852,0,0,0,1.245.263l0,.025,2.63-.472c.027,0,.052-.009.078-.014l.038-.007v0a1.876,1.876,0,0,0,1.442-1.522l22.919-137.85A1.885,1.885,0,0,0,362.454,140.55Z" transform="translate(-258.582 -92.924)" opacity="0.8" fill="url(#linear-gradient-3)"/>
      <path id="Path_24316" data-name="Path 24316" d="M334.965,281.909l-75.5-47.345a1.883,1.883,0,0,1-.858-1.906L281.527,94.809a1.885,1.885,0,0,1,2.862-1.289l75.5,47.344a1.886,1.886,0,0,1,.858,1.908L337.827,280.62A1.886,1.886,0,0,1,334.965,281.909Z" transform="translate(-258.582 -92.796)" opacity="0.8" fill="url(#linear-gradient-4)"/>
    </g>
    <g id="Group_1332" data-name="Group 1332" transform="translate(356.807 127.002)" opacity="0.6">
      <path id="Path_24317" data-name="Path 24317" d="M298.462,117.183l-.289,1.623a.319.319,0,0,0,.152.331l38.356,23.889a.228.228,0,0,0,.33-.14l.28-1.578a.462.462,0,0,0-.221-.482L298.848,117.02A.266.266,0,0,0,298.462,117.183Z" transform="translate(-296.102 -116.986)" fill="#fff"/>
      <path id="Path_24318" data-name="Path 24318" d="M297.977,120.045l-.289,1.624a.315.315,0,0,0,.152.33l38.355,23.889a.229.229,0,0,0,.331-.139l.28-1.578a.463.463,0,0,0-.221-.483l-38.223-23.807A.267.267,0,0,0,297.977,120.045Z" transform="translate(-296.305 -115.795)" fill="#fff"/>
      <path id="Path_24319" data-name="Path 24319" d="M297.489,122.908l-.288,1.623a.316.316,0,0,0,.152.331l38.355,23.889a.229.229,0,0,0,.331-.139l.28-1.579a.462.462,0,0,0-.221-.482l-38.223-23.807A.267.267,0,0,0,297.489,122.908Z" transform="translate(-296.507 -114.603)" fill="#fff"/>
      <path id="Path_24320" data-name="Path 24320" d="M297,125.771l-.289,1.623a.318.318,0,0,0,.153.331l25.331,15.78a.227.227,0,0,0,.33-.139l.282-1.578a.465.465,0,0,0-.221-.483l-25.2-15.7A.266.266,0,0,0,297,125.771Z" transform="translate(-296.71 -113.411)" fill="#fff"/>
    </g>
    <g id="Group_1334" data-name="Group 1334" transform="translate(322.321 142.014)">
      <path id="Path_24321" data-name="Path 24321" d="M273.849,127.655l-1.488,8.459a.113.113,0,0,0,.054.118l6.712,4.165a.081.081,0,0,0,.118-.05l1.486-8.442a.165.165,0,0,0-.079-.171l-6.663-4.137A.1.1,0,0,0,273.849,127.655Z" transform="translate(-272.359 -127.586)" fill="#488eff" opacity="0.4"/>
      <g id="Group_1333" data-name="Group 1333" transform="translate(9.456 6.131)" opacity="0.5">
        <path id="Path_24322" data-name="Path 24322" d="M280.04,132.027l-.166.93a.183.183,0,0,0,.086.19l21.959,13.675a.129.129,0,0,0,.188-.079l.161-.9a.266.266,0,0,0-.127-.276l-21.882-13.629A.151.151,0,0,0,280.04,132.027Z" transform="translate(-278.688 -131.915)" fill="#fff"/>
        <path id="Path_24323" data-name="Path 24323" d="M279.76,133.666l-.164.93a.178.178,0,0,0,.086.188l21.957,13.677a.131.131,0,0,0,.19-.079l.16-.9a.265.265,0,0,0-.126-.276l-21.882-13.63A.153.153,0,0,0,279.76,133.666Z" transform="translate(-278.804 -131.233)" fill="#fff"/>
        <path id="Path_24324" data-name="Path 24324" d="M279.483,135.305l-.166.929a.182.182,0,0,0,.088.19L301.362,150.1a.131.131,0,0,0,.19-.079l.16-.9a.265.265,0,0,0-.126-.276L279.7,135.212A.153.153,0,0,0,279.483,135.305Z" transform="translate(-278.92 -130.551)" fill="#fff"/>
        <path id="Path_24325" data-name="Path 24325" d="M279.2,136.944l-.164.929a.181.181,0,0,0,.086.19l14.5,9.034a.131.131,0,0,0,.19-.079l.16-.9a.265.265,0,0,0-.126-.276l-14.427-8.987A.153.153,0,0,0,279.2,136.944Z" transform="translate(-279.036 -129.868)" fill="#fff"/>
      </g>
    </g>
    <g id="Group_1336" data-name="Group 1336" transform="translate(372.656 172.945)" opacity="0.6">
      <g id="Group_1335" data-name="Group 1335" opacity="0.5">
        <path id="Path_24326" data-name="Path 24326" d="M308.812,149.528l-.15.844a.164.164,0,0,0,.079.173l19.941,12.42a.12.12,0,0,0,.173-.072l.146-.821a.24.24,0,0,0-.116-.249l-19.873-12.378A.137.137,0,0,0,308.812,149.528Z" transform="translate(-307.585 -149.426)" fill="#fff"/>
        <path id="Path_24327" data-name="Path 24327" d="M308.559,151.017l-.15.844a.165.165,0,0,0,.079.171l19.941,12.42a.119.119,0,0,0,.173-.072l.146-.82a.241.241,0,0,0-.115-.251L308.76,150.932A.139.139,0,0,0,308.559,151.017Z" transform="translate(-307.69 -148.807)" fill="#fff"/>
        <path id="Path_24328" data-name="Path 24328" d="M308.306,152.505l-.15.844a.168.168,0,0,0,.079.173l19.942,12.42a.119.119,0,0,0,.171-.074l.146-.82a.241.241,0,0,0-.115-.251L308.507,152.42A.139.139,0,0,0,308.306,152.505Z" transform="translate(-307.795 -148.187)" fill="#fff"/>
        <path id="Path_24329" data-name="Path 24329" d="M308.053,153.994l-.15.844a.167.167,0,0,0,.079.171l13.171,8.2a.118.118,0,0,0,.171-.072l.146-.82a.241.241,0,0,0-.115-.251l-13.1-8.162A.139.139,0,0,0,308.053,153.994Z" transform="translate(-307.9 -147.567)" fill="#fff"/>
      </g>
    </g>
    <g id="Group_1338" data-name="Group 1338" transform="translate(355.289 202.742)" opacity="0.6">
      <g id="Group_1337" data-name="Group 1337" opacity="0.5">
        <path id="Path_24330" data-name="Path 24330" d="M296.043,170.568l-.15.844a.167.167,0,0,0,.079.171l9.411,5.855a.121.121,0,0,0,.173-.074l.146-.82a.242.242,0,0,0-.116-.251l-9.342-5.811A.139.139,0,0,0,296.043,170.568Z" transform="translate(-295.532 -170.466)" fill="#fff"/>
        <path id="Path_24331" data-name="Path 24331" d="M295.79,172.056l-.15.844a.168.168,0,0,0,.079.173l9.411,5.853a.119.119,0,0,0,.173-.072l.146-.821a.242.242,0,0,0-.115-.249l-9.343-5.812A.14.14,0,0,0,295.79,172.056Z" transform="translate(-295.637 -169.846)" fill="#fff"/>
      </g>
    </g>
    <g id="Group_1339" data-name="Group 1339" transform="translate(329.686 160.366)" opacity="0.6">
      <path id="Path_24332" data-name="Path 24332" d="M278.563,140.657l-.166.929a.183.183,0,0,0,.088.19l21.957,13.677a.132.132,0,0,0,.19-.081l.16-.9a.265.265,0,0,0-.126-.276l-21.882-13.629A.152.152,0,0,0,278.563,140.657Z" transform="translate(-277.212 -140.544)" fill="#fff"/>
      <path id="Path_24333" data-name="Path 24333" d="M278.283,142.3l-.164.929a.183.183,0,0,0,.086.19l21.957,13.675a.131.131,0,0,0,.19-.079l.161-.9a.268.268,0,0,0-.127-.276L278.5,142.2A.152.152,0,0,0,278.283,142.3Z" transform="translate(-277.327 -139.862)" fill="#fff"/>
      <path id="Path_24334" data-name="Path 24334" d="M278.006,143.934l-.166.93a.184.184,0,0,0,.088.19l21.957,13.675a.131.131,0,0,0,.19-.079l.16-.9a.265.265,0,0,0-.126-.276l-21.882-13.629A.152.152,0,0,0,278.006,143.934Z" transform="translate(-277.443 -139.18)" fill="#fff"/>
      <path id="Path_24335" data-name="Path 24335" d="M277.727,145.573l-.166.93a.182.182,0,0,0,.086.188l14.5,9.034a.131.131,0,0,0,.19-.079l.16-.9a.265.265,0,0,0-.126-.276l-14.426-8.988A.153.153,0,0,0,277.727,145.573Z" transform="translate(-277.559 -138.498)" fill="#fff"/>
    </g>
    <g id="Group_1340" data-name="Group 1340" transform="translate(327.506 172.945)" opacity="0.6">
      <path id="Path_24336" data-name="Path 24336" d="M277.024,149.539l-.166.929a.183.183,0,0,0,.088.19L298.9,164.335a.132.132,0,0,0,.19-.081l.16-.9a.265.265,0,0,0-.126-.276l-21.882-13.629A.152.152,0,0,0,277.024,149.539Z" transform="translate(-275.673 -149.426)" fill="#fff"/>
      <path id="Path_24337" data-name="Path 24337" d="M276.746,151.178l-.166.929a.185.185,0,0,0,.086.19l21.959,13.675a.129.129,0,0,0,.188-.079l.161-.9a.266.266,0,0,0-.127-.276l-21.881-13.629A.151.151,0,0,0,276.746,151.178Z" transform="translate(-275.788 -148.744)" fill="#fff"/>
      <path id="Path_24338" data-name="Path 24338" d="M276.466,152.816l-.164.93a.181.181,0,0,0,.086.19l21.957,13.675a.131.131,0,0,0,.19-.079l.16-.9a.265.265,0,0,0-.126-.276l-21.882-13.629A.152.152,0,0,0,276.466,152.816Z" transform="translate(-275.904 -148.061)" fill="#fff"/>
      <path id="Path_24339" data-name="Path 24339" d="M276.189,154.455l-.166.93a.181.181,0,0,0,.088.188l14.5,9.034a.131.131,0,0,0,.19-.079l.16-.9a.265.265,0,0,0-.126-.276l-14.426-8.987A.153.153,0,0,0,276.189,154.455Z" transform="translate(-276.02 -147.379)" fill="#fff"/>
    </g>
    <g id="Group_1341" data-name="Group 1341" transform="translate(325.304 185.65)" opacity="0.6">
      <path id="Path_24340" data-name="Path 24340" d="M275.468,158.51l-.164.929a.181.181,0,0,0,.086.19L297.348,173.3a.131.131,0,0,0,.19-.079l.16-.9a.265.265,0,0,0-.126-.276l-21.882-13.629A.152.152,0,0,0,275.468,158.51Z" transform="translate(-274.117 -158.397)" fill="#fff"/>
      <path id="Path_24341" data-name="Path 24341" d="M275.191,160.148l-.166.93a.184.184,0,0,0,.088.19l21.957,13.675a.13.13,0,0,0,.19-.079l.16-.9a.265.265,0,0,0-.126-.276l-21.882-13.629A.152.152,0,0,0,275.191,160.148Z" transform="translate(-274.233 -157.715)" fill="#fff"/>
      <path id="Path_24342" data-name="Path 24342" d="M274.911,161.787l-.164.93a.183.183,0,0,0,.086.19l21.957,13.675a.13.13,0,0,0,.19-.079l.161-.9a.268.268,0,0,0-.127-.276l-21.882-13.629A.152.152,0,0,0,274.911,161.787Z" transform="translate(-274.349 -157.032)" fill="#fff"/>
      <path id="Path_24343" data-name="Path 24343" d="M274.634,163.426l-.166.93a.181.181,0,0,0,.088.188l14.5,9.034a.129.129,0,0,0,.188-.079l.161-.9a.266.266,0,0,0-.127-.276l-14.426-8.987A.153.153,0,0,0,274.634,163.426Z" transform="translate(-274.465 -156.35)" fill="#fff"/>
    </g>
    <g id="Group_1343" data-name="Group 1343" transform="translate(351.754 213.057)" opacity="0.8">
      <g id="Group_1342" data-name="Group 1342">
        <path id="Path_24344" data-name="Path 24344" d="M294.145,177.861l-.166.93a.184.184,0,0,0,.088.19l28,17.485a.132.132,0,0,0,.19-.081l.16-.9a.262.262,0,0,0-.126-.275l-27.927-17.438A.152.152,0,0,0,294.145,177.861Z" transform="translate(-292.794 -177.749)" fill="#488eff"/>
        <path id="Path_24345" data-name="Path 24345" d="M293.867,179.5l-.166.93a.183.183,0,0,0,.086.19l28,17.484a.131.131,0,0,0,.19-.079l.16-.9a.265.265,0,0,0-.126-.276l-27.928-17.437A.15.15,0,0,0,293.867,179.5Z" transform="translate(-292.909 -177.067)" fill="#488eff"/>
        <path id="Path_24346" data-name="Path 24346" d="M293.588,181.139l-.166.929a.182.182,0,0,0,.088.19l28,17.485a.129.129,0,0,0,.188-.079l.161-.9a.266.266,0,0,0-.127-.276l-27.927-17.438A.153.153,0,0,0,293.588,181.139Z" transform="translate(-293.025 -176.385)" fill="#488eff"/>
        <path id="Path_24347" data-name="Path 24347" d="M293.31,182.778l-.166.929a.182.182,0,0,0,.088.19l20.547,12.842a.129.129,0,0,0,.188-.079l.161-.9a.263.263,0,0,0-.127-.276l-20.47-12.8A.153.153,0,0,0,293.31,182.778Z" transform="translate(-293.141 -175.702)" fill="#488eff"/>
      </g>
    </g>
    <g id="Group_1345" data-name="Group 1345" transform="translate(348.707 231.625)" opacity="0.8">
      <g id="Group_1344" data-name="Group 1344">
        <path id="Path_24348" data-name="Path 24348" d="M291.994,190.973l-.166.929a.183.183,0,0,0,.088.19l28,17.485a.131.131,0,0,0,.188-.081l.161-.9a.264.264,0,0,0-.127-.275L292.214,190.88A.152.152,0,0,0,291.994,190.973Z" transform="translate(-290.643 -190.86)" fill="#488eff"/>
        <path id="Path_24349" data-name="Path 24349" d="M291.715,192.612l-.166.929a.184.184,0,0,0,.088.19l28,17.485a.132.132,0,0,0,.19-.081l.16-.9a.263.263,0,0,0-.126-.275l-27.927-17.438A.152.152,0,0,0,291.715,192.612Z" transform="translate(-290.758 -190.178)" fill="#488eff"/>
        <path id="Path_24350" data-name="Path 24350" d="M291.436,194.25l-.164.93a.183.183,0,0,0,.086.19l28,17.485a.132.132,0,0,0,.19-.081l.16-.9a.265.265,0,0,0-.126-.276l-27.928-17.437A.152.152,0,0,0,291.436,194.25Z" transform="translate(-290.874 -189.495)" fill="#488eff"/>
        <path id="Path_24351" data-name="Path 24351" d="M291.159,195.889l-.166.93a.181.181,0,0,0,.088.188l20.547,12.844a.132.132,0,0,0,.19-.081l.16-.9a.263.263,0,0,0-.126-.275l-20.472-12.8A.153.153,0,0,0,291.159,195.889Z" transform="translate(-290.99 -188.813)" fill="#488eff"/>
      </g>
    </g>
    <g id="Group_1346" data-name="Group 1346" transform="translate(323.15 198.099)" opacity="0.6">
      <path id="Path_24352" data-name="Path 24352" d="M273.948,167.3l-.166.929a.182.182,0,0,0,.088.19L295.827,182.1a.131.131,0,0,0,.19-.079l.16-.9a.265.265,0,0,0-.126-.276l-21.882-13.63A.153.153,0,0,0,273.948,167.3Z" transform="translate(-272.597 -167.188)" fill="#fff"/>
      <path id="Path_24353" data-name="Path 24353" d="M273.668,168.939l-.164.929a.181.181,0,0,0,.086.19l21.957,13.677a.132.132,0,0,0,.19-.081l.161-.9a.268.268,0,0,0-.127-.276l-21.882-13.63A.153.153,0,0,0,273.668,168.939Z" transform="translate(-272.712 -166.505)" fill="#fff"/>
      <path id="Path_24354" data-name="Path 24354" d="M273.391,170.578l-.166.929a.182.182,0,0,0,.088.19l21.957,13.677a.132.132,0,0,0,.19-.081l.16-.9a.263.263,0,0,0-.126-.275l-21.882-13.63A.153.153,0,0,0,273.391,170.578Z" transform="translate(-272.828 -165.823)" fill="#fff"/>
      <path id="Path_24355" data-name="Path 24355" d="M273.113,172.217l-.166.929a.184.184,0,0,0,.086.19l14.5,9.034a.132.132,0,0,0,.19-.081l.16-.9a.265.265,0,0,0-.126-.276l-14.426-8.988A.153.153,0,0,0,273.113,172.217Z" transform="translate(-272.944 -165.141)" fill="#fff"/>
    </g>
    <g id="Group_1349" data-name="Group 1349" transform="translate(326.43 114.212)">
      <path id="Path_24356" data-name="Path 24356" d="M275.766,122.838l-.5,2.844a.315.315,0,0,0,.152.33L294.255,137.7a.227.227,0,0,0,.33-.14l.493-2.8a.461.461,0,0,0-.221-.482l-18.706-11.61A.266.266,0,0,0,275.766,122.838Z" transform="translate(-275.26 -101.842)" fill="#fff" opacity="0.5"/>
      <g id="Group_1348" data-name="Group 1348" transform="translate(3.896)">
        <g id="Group_1347" data-name="Group 1347">
          <path id="Path_24357" data-name="Path 24357" d="M283.251,110.021c-.372,2.116.836,6.495,3.035,7.884s4.552-.741,4.924-2.855-1.107-4.955-3.306-6.343S283.622,107.907,283.251,110.021Z" transform="translate(-275.858 -107.955)" fill="#fff"/>
          <path id="Path_24358" data-name="Path 24358" d="M295.643,127.151c-3.357,2.28-8.823-.524-10.353-1.388l-.184-.113-.212-.127c-.028-.014-.043-.028-.071-.042-6.741-4.744-6.812-8.837-6.812-9.007a5.2,5.2,0,0,1,2.592-1.643c2.039-.581,4.617-.1,7.279,1.586A18.489,18.489,0,0,1,295.643,127.151Z" transform="translate(-278.011 -105.191)" fill="#fff"/>
        </g>
      </g>
    </g>
    <g id="Group_1350" data-name="Group 1350" transform="translate(343.556 157.422)">
      <path id="Path_24359" data-name="Path 24359" d="M304.189,138.981,288.2,235.2l-.847-.516,15.989-96.22Z" transform="translate(-287.353 -138.466)" fill="#fff" opacity="0.6"/>
    </g>
    <path id="Path_24360" data-name="Path 24360" d="M297.4,188.473l-4.15,23.51a.229.229,0,0,1-.34.142l-30.279-18.737a.3.3,0,0,1-.156-.34l.467-2.677,15.154-7.421,3.569,11.429Z" transform="translate(45.844 37.473)" fill="#488eff"/>
    <path id="Path_24361" data-name="Path 24361" d="M297.653,191.462l-.255,1.459-4.15,23.51a.229.229,0,0,1-.34.142l-30.279-18.737a.3.3,0,0,1-.156-.34l.467-2.677,3.937-22.348a.275.275,0,0,1,.4-.17l30.138,18.652A.5.5,0,0,1,297.653,191.462Z" transform="translate(45.844 33.026)" fill="none" stroke="#fff" stroke-miterlimit="10" stroke-width="0.25"/>
    <path id="Path_24362" data-name="Path 24362" d="M272.294,136.563l-1.488,8.458a.117.117,0,0,0,.055.119l6.71,4.165a.081.081,0,0,0,.118-.05l1.486-8.444a.164.164,0,0,0-.078-.171l-6.665-4.135A.1.1,0,0,0,272.294,136.563Z" transform="translate(49.315 18.135)" fill="#488eff" opacity="0.4"/>
    <path id="Path_24363" data-name="Path 24363" d="M270.74,145.469l-1.488,8.459a.112.112,0,0,0,.054.118l6.71,4.165a.081.081,0,0,0,.117-.05l1.486-8.442a.165.165,0,0,0-.078-.173l-6.663-4.135A.1.1,0,0,0,270.74,145.469Z" transform="translate(48.668 21.842)" fill="#488eff" opacity="0.4"/>
    <path id="Path_24364" data-name="Path 24364" d="M269.185,154.375l-1.488,8.459a.113.113,0,0,0,.054.118l6.71,4.165a.082.082,0,0,0,.119-.05l1.486-8.442a.165.165,0,0,0-.079-.171l-6.663-4.137A.1.1,0,0,0,269.185,154.375Z" transform="translate(48.021 25.549)" fill="#488eff" opacity="0.4"/>
    <path id="Path_24365" data-name="Path 24365" d="M267.63,163.28l-1.488,8.459a.113.113,0,0,0,.054.118l6.712,4.165a.081.081,0,0,0,.118-.05l1.486-8.442a.165.165,0,0,0-.079-.171l-6.663-4.137A.1.1,0,0,0,267.63,163.28Z" transform="translate(47.373 29.257)" fill="#488eff" opacity="0.4"/>
    <path id="Path_24366" data-name="Path 24366" d="M310.442,153.5c-.329,4.186-3.066,6.78-6.113,5.792s-5.25-5.182-4.92-9.368,3.065-6.78,6.112-5.792S310.771,149.317,310.442,153.5Z" transform="translate(61.208 21.229)" fill="#fff" opacity="0.5"/>
    <path id="Path_24367" data-name="Path 24367" d="M308.319,169.232c-.33,4.186-3.066,6.78-6.112,5.792s-5.25-5.182-4.921-9.368,3.066-6.78,6.113-5.792S308.648,165.046,308.319,169.232Z" transform="translate(60.324 27.776)" fill="none" stroke="#488eff" stroke-miterlimit="10" stroke-width="1" opacity="0.8"/>
    <g id="Group_1352" data-name="Group 1352" transform="translate(373.546 213.745)" opacity="0.6">
      <g id="Group_1351" data-name="Group 1351" opacity="0.5">
        <path id="Path_24368" data-name="Path 24368" d="M308.934,178.337l-.15.844a.165.165,0,0,0,.079.171l9.411,5.855a.12.12,0,0,0,.173-.072l.146-.821a.242.242,0,0,0-.116-.251l-9.342-5.811A.139.139,0,0,0,308.934,178.337Z" transform="translate(-308.423 -178.235)" fill="#fff"/>
        <path id="Path_24369" data-name="Path 24369" d="M308.681,179.825l-.15.844a.168.168,0,0,0,.079.173l9.411,5.853a.119.119,0,0,0,.173-.072l.146-.82a.243.243,0,0,0-.115-.251l-9.343-5.812A.14.14,0,0,0,308.681,179.825Z" transform="translate(-308.528 -177.615)" fill="#fff"/>
      </g>
    </g>
    <path id="Path_24370" data-name="Path 24370" d="M321.211,177c-.33,4.186-3.066,6.78-6.113,5.792s-5.25-5.181-4.921-9.367,3.066-6.781,6.113-5.794S321.539,172.815,321.211,177Z" transform="translate(65.69 31.01)" fill="none" stroke="#488eff" stroke-miterlimit="10" stroke-width="1" opacity="0.8"/>
    <g id="Group_1353" data-name="Group 1353" transform="translate(261.739 147.463)">
      <path id="Path_24371" data-name="Path 24371" d="M244.377,131.836a7.936,7.936,0,0,0-3.788-.3l.006-.016-2.018.382,0,0c-4.657.4-8.4,5.07-8.932,11.872-.653,8.3,3.718,16.624,9.759,18.581a7.878,7.878,0,0,0,4.1.242v.01l5.9-1.045-3.771.661c4.454-.639,7.983-5.223,8.5-11.814C254.79,142.114,250.42,133.794,244.377,131.836Z" transform="translate(-229.582 -131.433)" fill="#805700"/>
      <path id="Path_24372" data-name="Path 24372" d="M251.531,150.743c-.653,8.3-6.081,13.449-12.124,11.49s-10.412-10.276-9.759-18.581,6.081-13.449,12.123-11.49S252.184,142.44,251.531,150.743Z" transform="translate(-229.582 -131.303)" fill="#feac00"/>
      <path id="Path_24373" data-name="Path 24373" d="M231.966,142.526l1.981-1.347,3.028,5.049,9.069-6.236,1.184,1.991-10.972,7.679Z" transform="translate(-228.59 -127.871)" fill="#fff"/>
    </g>
    <g id="Group_1354" data-name="Group 1354" transform="translate(156.475 191.271)">
      <path id="Path_24374" data-name="Path 24374" d="M173.614,290.169a4.913,4.913,0,0,1-.108,2.357,7.674,7.674,0,0,1-1.824,2.878,14.575,14.575,0,0,1-2.94,2.432,24.05,24.05,0,0,0-2.461,1.726,16.726,16.726,0,0,0-1.753,2.29v.486a7.791,7.791,0,0,1-2.446,1.918,6.143,6.143,0,0,1-4.511.255,3.2,3.2,0,0,1-2.1-2.619,16.005,16.005,0,0,1,0-1.67" transform="translate(-155.179 -109.169)" fill="#080749"/>
      <path id="Path_24375" data-name="Path 24375" d="M162.71,292.547a23.986,23.986,0,0,0,5.38-2.49c2.675-1.919,4.63-1.429,5.3-.29.678,1.16.946,4.989-4.751,8.315a10.588,10.588,0,0,0-3.931,3.478,7.366,7.366,0,0,1-2.68,2.41,5.592,5.592,0,0,1-2.97.51c-3.9-.319-4.718-4.267-2.814-7.258S162.71,292.547,162.71,292.547Z" transform="translate(-155.256 -109.753)" fill="#05264f"/>
      <path id="Path_24376" data-name="Path 24376" d="M197.683,304.649v.143a2.648,2.648,0,0,1-.591,1.711c-1.792,2.1-6.02,2.978-6.9,3.148a.886.886,0,0,1-.157.027c-2.389.374-5.07.517-6.23.639a14.851,14.851,0,0,0-2.328.408v.263a19.632,19.632,0,0,1-3.293.551h-.013a5.81,5.81,0,0,1-3.563-.795,3.4,3.4,0,0,1-.977-1.663v-.075l.013-.632v-.292l3.116-.217h.014l1.541-.109,1.425-.088,1.323-.088Z" transform="translate(-147.606 -103.141)" fill="#805700"/>
      <path id="Path_24377" data-name="Path 24377" d="M184.246,302.321a18.639,18.639,0,0,0,5.183,1.122c2.177,0,6.42-.054,7.508.707a1.691,1.691,0,0,1,.85,1.361c-.013,2.913-6.889,4.678-11.023,5a60.845,60.845,0,0,0-6.309.6c-1.959.326-4,.48-5.229-.13-2.131-1.055-2.279-4.276-.973-6.4S184.246,302.321,184.246,302.321Z" transform="translate(-147.697 -104.11)" fill="#05264f"/>
      <path id="Path_24378" data-name="Path 24378" d="M174.866,300.807s-.156,3.253-.2,3.832-.35,1.1-.262,1.62c.142.827,2.093,1.654,4.766,1.357s4.856-1.783,5.345-2.6-.256-1.068-.382-1.411c-.2-.54,0-5.378-.36-3.733" transform="translate(-147.291 -105.27)" fill="#f1bf9c"/>
      <path id="Path_24379" data-name="Path 24379" d="M156.469,292.908l-.149,2.939a2.027,2.027,0,0,0-.252,1.269c.191.8,2.447,2.33,5.539.7,3.464-1.824,3.082-4.54,3.1-4.688.184-1.231-.51-.072-.51-1.048" transform="translate(-154.931 -108.372)" fill="#f1bf9c"/>
      <path id="Path_24380" data-name="Path 24380" d="M202.59,271.412c-1.1,9.829-4.617,26.47-5.821,34.84-1.232,8.554-2.96,24.119-2.96,24.119s-1.246,1.969-5.764,2.578c-4.447.595-6.331-2.1-6.331-2.1s-2.095-23.287-1.784-28.159,1.742-13.861,1.53-18.648c-.142-3.441-.1-11.627-1.8-18.85-.241.765-.5,1.459-.751,2.053-2.578,5.821-7.449,18.326-8.809,23.071-1.3,4.617-4.05,28.3-4.05,28.3a4.168,4.168,0,0,1-1.374,1.4,11.955,11.955,0,0,1-3.512,1.586c-4.05,1.133-5.467-1.19-5.467-1.19-.482-2.832-.722-30.548.637-35.845a122.649,122.649,0,0,0,3.314-18.694c.312-5.1.935-16.428.312-23.071a19.491,19.491,0,0,1,.5-6.571,17.518,17.518,0,0,1,1.9-4.872s38.933,2.124,40.236,8.044a43.815,43.815,0,0,1,.807,5.722C204.091,253.185,203.468,263.609,202.59,271.412Z" transform="translate(-155.231 -133.647)" fill="#244780"/>
      <path id="Path_24381" data-name="Path 24381" d="M201.887,245.127a41.055,41.055,0,0,1-31.894-1.77s-7.251-3.583-11.047-7.124a17.518,17.518,0,0,1,1.9-4.872s38.933,2.124,40.236,8.044A43.815,43.815,0,0,1,201.887,245.127Z" transform="translate(-153.72 -133.647)" fill="#244780" opacity="0.5" style="mix-blend-mode: multiply;isolation: isolate"/>
      <path id="Path_24382" data-name="Path 24382" d="M186.309,308.772" transform="translate(-142.331 -101.425)" fill="#3a3a3a"/>
      <path id="Path_24383" data-name="Path 24383" d="M184.641,188.118a9.672,9.672,0,0,1-2.733,1.161l-.17.042a1.246,1.246,0,0,0-.212.071,7.309,7.309,0,0,0-.736.269,1.038,1.038,0,0,0-.567.524c-.354.921,0,6.387,0,6.387l-1.728-.595L168,192.367s.142-2.818,0-5.41-.354-16.428,3.087-18.808,13.341-.921,14.46.411c0,0,.326,2.11,1.006,6.047S186.609,186.83,184.641,188.118Z" transform="translate(-149.978 -160.489)" fill="#f1bf9c"/>
      <path id="Path_24384" data-name="Path 24384" d="M176.028,183.956a5.778,5.778,0,0,1,1.685-.991,1.038,1.038,0,0,0-.567.524c-.354.921,0,6.387,0,6.387l-1.728-.595C175.291,187.539,175.15,184.721,176.028,183.956Z" transform="translate(-146.903 -153.792)" fill="#f4ccb0"/>
      <path id="Path_24385" data-name="Path 24385" d="M184.88,162.866c-1.088,1.262-5,1.576-5,1.576a26.077,26.077,0,0,0-7.757.884c-6.3,2.18-7.741,7.792-7.465,11.717.282,3.978,2.481,6.785,3.042,8.1s.609,3.65,1.03,4.4,7.508,1.92,8.255,1.453a9.872,9.872,0,0,0,2.743-4.215c.14-1.123-.047-3.885.234-4.868s1.545-2.246,2.248-2.106,1.123,1.358,1.4,2.575.889,1.217,1.17.936.14-3.324.329-4.259a9.5,9.5,0,0,0,.467-3.932c-.093-2.762.738-2.02,2.048-3.611C191.455,167.647,187,160.4,184.88,162.866Z" transform="translate(-151.357 -162.366)" fill="#244780"/>
      <path id="Path_24386" data-name="Path 24386" d="M167.166,184.934l1.209-1.269s10.208,2.389,12.716,6.343" transform="translate(-150.299 -153.5)" fill="#fff"/>
      <path id="Path_24387" data-name="Path 24387" d="M200.8,231.236a55.281,55.281,0,0,0,1.36,14.12c1.7,8.087,1.657,18.808,1.657,18.808a20.536,20.536,0,0,1-3.328,1.02,45.39,45.39,0,0,1-17.037.326,41.8,41.8,0,0,1-12.109-3.937,74.117,74.117,0,0,1-.255-8.469,69.565,69.565,0,0,0-.821,7.917,54.186,54.186,0,0,1-10.2-6.826,108.191,108.191,0,0,1,3.4-18.015c2.011-6.784,1.841-11.9-2.634-19.672-5.538-9.616-8.016-22.943-2.2-28.608a9.531,9.531,0,0,1,10.976-2.393l1.36-1.473s10.013,2.223,17.462,6.94v1.473c.17.071.354.156.524.241C195.6,195.8,200.894,199.229,203.5,204s8.243,15.593,9.489,25.875C213.57,234.635,205.058,237.879,200.8,231.236Z" transform="translate(-155.239 -153.347)" fill="#488eff"/>
      <path id="Path_24388" data-name="Path 24388" d="M189.621,225.471c-7.594-12.947-7.445-18.775-7.445-18.775s2.272,5.8,4.13,9.388c.892,1.721,3.3,5.7,3.3,5.7A33.543,33.543,0,0,0,189.621,225.471Z" transform="translate(-144.051 -143.914)" fill="#244780" opacity="0.5" style="mix-blend-mode: multiply;isolation: isolate"/>
      <path id="Path_24389" data-name="Path 24389" d="M176.913,260.45a21.458,21.458,0,0,1-.759,2.063c-2.566,5.818-7.447,18.319-8.8,23.064-1.316,4.623-4.058,28.3-4.058,28.3a4.192,4.192,0,0,1-1.372,1.4c.557-6.53,2.112-24.191,2.94-27.768a42.91,42.91,0,0,1,2.749-9.074c1.3-2.973,7.52-17.4,3.957-24.436a39.642,39.642,0,0,1-3.694-11.253c1.27,5.8,6.747,10.541,6.747,10.541Z" transform="translate(-152.48 -128.907)" fill="#244780" opacity="0.5" style="mix-blend-mode: multiply;isolation: isolate"/>
      <path id="Path_24390" data-name="Path 24390" d="M182.273,190.672v.708s-7.874-3.385-12.18-4.787A90.066,90.066,0,0,1,182.273,190.672Z" transform="translate(-149.08 -152.282)" fill="#244780" opacity="0.5" style="mix-blend-mode: multiply;isolation: isolate"/>
    </g>
    <g id="Group_1356" data-name="Group 1356" transform="translate(214.643 249.746)">
      <g id="Group_1355" data-name="Group 1355">
        <path id="Path_24391" data-name="Path 24391" d="M229.821,215.478l-6.829-4.2a.4.4,0,0,1,0-.674l7.153-4.471a.714.714,0,0,1,.748,0l6.836,4.2a.39.39,0,0,1,0,.666l-7.158,4.474A.713.713,0,0,1,229.821,215.478Z" transform="translate(-185.308 -202.665)" fill="#244780"/>
        <path id="Path_24392" data-name="Path 24392" d="M236.135,219.361l-6.829-4.2a.4.4,0,0,1,0-.674l7.153-4.47a.711.711,0,0,1,.748,0l6.836,4.2a.39.39,0,0,1,0,.666l-7.158,4.474A.716.716,0,0,1,236.135,219.361Z" transform="translate(-182.68 -201.05)" fill="#244780"/>
        <path id="Path_24393" data-name="Path 24393" d="M242.449,223.241l-6.829-4.2a.4.4,0,0,1,0-.674l7.152-4.471a.717.717,0,0,1,.748,0l6.836,4.2a.392.392,0,0,1,0,.667l-7.158,4.472A.716.716,0,0,1,242.449,223.241Z" transform="translate(-180.052 -199.434)" fill="#244780"/>
        <path id="Path_24394" data-name="Path 24394" d="M248.763,227.122l-6.829-4.2a.4.4,0,0,1,0-.674l7.152-4.471a.714.714,0,0,1,.748,0l6.836,4.2a.39.39,0,0,1,0,.666l-7.158,4.474A.713.713,0,0,1,248.763,227.122Z" transform="translate(-177.424 -197.819)" fill="#244780"/>
        <path id="Path_24395" data-name="Path 24395" d="M255.077,231l-6.829-4.2a.4.4,0,0,1,0-.676l7.152-4.47a.711.711,0,0,1,.748,0l6.838,4.2a.39.39,0,0,1,0,.666L255.828,231A.716.716,0,0,1,255.077,231Z" transform="translate(-174.795 -196.203)" fill="#244780"/>
        <path id="Path_24396" data-name="Path 24396" d="M261.391,234.885l-6.829-4.2a.4.4,0,0,1,0-.674l7.152-4.471a.717.717,0,0,1,.748,0l6.838,4.2a.392.392,0,0,1,0,.667l-7.158,4.474A.716.716,0,0,1,261.391,234.885Z" transform="translate(-172.167 -194.587)" fill="#244780"/>
        <path id="Path_24397" data-name="Path 24397" d="M267.705,238.768l-6.828-4.2a.4.4,0,0,1,0-.674l7.152-4.471a.714.714,0,0,1,.748,0l6.838,4.2a.39.39,0,0,1,0,.666l-7.158,4.474A.716.716,0,0,1,267.705,238.768Z" transform="translate(-169.539 -192.972)" fill="#244780"/>
        <path id="Path_24398" data-name="Path 24398" d="M274.019,242.649l-6.828-4.2a.4.4,0,0,1,0-.676l7.152-4.47a.711.711,0,0,1,.748,0l6.838,4.2a.39.39,0,0,1,0,.666l-7.156,4.474A.719.719,0,0,1,274.019,242.649Z" transform="translate(-166.911 -191.356)" fill="#244780"/>
        <path id="Path_24399" data-name="Path 24399" d="M280.333,246.529l-6.828-4.2a.4.4,0,0,1,0-.674l7.152-4.471a.717.717,0,0,1,.748,0l6.838,4.2a.391.391,0,0,1,0,.666l-7.158,4.474A.719.719,0,0,1,280.333,246.529Z" transform="translate(-164.283 -189.741)" fill="#244780"/>
        <path id="Path_24400" data-name="Path 24400" d="M286.647,250.412l-6.828-4.2a.4.4,0,0,1,0-.674l7.152-4.471a.714.714,0,0,1,.748,0l6.838,4.2a.391.391,0,0,1,0,.666l-7.158,4.474A.719.719,0,0,1,286.647,250.412Z" transform="translate(-161.654 -188.125)" fill="#244780"/>
        <path id="Path_24401" data-name="Path 24401" d="M292.961,254.293l-6.828-4.2a.4.4,0,0,1,0-.674l7.152-4.471a.714.714,0,0,1,.748,0l6.838,4.2a.391.391,0,0,1,0,.666l-7.158,4.474A.719.719,0,0,1,292.961,254.293Z" transform="translate(-159.026 -186.509)" fill="#244780"/>
        <path id="Path_24402" data-name="Path 24402" d="M299.275,258.173l-6.828-4.2a.4.4,0,0,1,0-.674l7.153-4.471a.712.712,0,0,1,.746,0l6.838,4.2a.391.391,0,0,1,0,.666l-7.158,4.474A.715.715,0,0,1,299.275,258.173Z" transform="translate(-156.398 -184.894)" fill="#244780"/>
        <path id="Path_24403" data-name="Path 24403" d="M317.566,259.531l-3.178-1.953h0l-7.852-4.814a.714.714,0,0,0-.748,0l-7.152,4.471a.4.4,0,0,0,0,.674l4.192,2.566h0l6.828,4.2a.719.719,0,0,0,.752,0l7.158-4.474A.391.391,0,0,0,317.566,259.531Z" transform="translate(-153.822 -183.258)" fill="#244780"/>
        <path id="Path_24404" data-name="Path 24404" d="M232.221,225.319l-6.829-4.2a.4.4,0,0,1,0-.674l7.152-4.471a.717.717,0,0,1,.748,0l6.838,4.2a.392.392,0,0,1,0,.667l-7.158,4.474A.716.716,0,0,1,232.221,225.319Z" transform="translate(-184.309 -198.569)" fill="#244780"/>
        <path id="Path_24405" data-name="Path 24405" d="M238.535,229.2l-6.828-4.2a.4.4,0,0,1,0-.674l7.152-4.471a.714.714,0,0,1,.748,0l6.838,4.2a.39.39,0,0,1,0,.666l-7.158,4.474A.716.716,0,0,1,238.535,229.2Z" transform="translate(-181.681 -196.954)" fill="#244780"/>
        <path id="Path_24406" data-name="Path 24406" d="M244.849,233.083l-6.828-4.2a.4.4,0,0,1,0-.674l7.152-4.471a.711.711,0,0,1,.748,0l6.838,4.2a.39.39,0,0,1,0,.666l-7.156,4.474A.719.719,0,0,1,244.849,233.083Z" transform="translate(-179.053 -195.338)" fill="#244780"/>
        <path id="Path_24407" data-name="Path 24407" d="M251.163,236.963l-6.828-4.2a.4.4,0,0,1,0-.674l7.152-4.471a.717.717,0,0,1,.748,0l6.838,4.2a.391.391,0,0,1,0,.666l-7.158,4.474A.719.719,0,0,1,251.163,236.963Z" transform="translate(-176.425 -193.722)" fill="#244780"/>
        <path id="Path_24408" data-name="Path 24408" d="M257.477,240.846l-6.828-4.2a.4.4,0,0,1,0-.674l7.152-4.47a.711.711,0,0,1,.748,0l6.838,4.2a.391.391,0,0,1,0,.666l-7.158,4.474A.719.719,0,0,1,257.477,240.846Z" transform="translate(-173.796 -192.107)" fill="#244780"/>
        <path id="Path_24409" data-name="Path 24409" d="M263.791,244.727l-6.828-4.2a.4.4,0,0,1,0-.674l7.152-4.471a.714.714,0,0,1,.748,0l6.838,4.2a.392.392,0,0,1,0,.667l-7.158,4.472A.719.719,0,0,1,263.791,244.727Z" transform="translate(-171.168 -190.491)" fill="#244780"/>
        <path id="Path_24410" data-name="Path 24410" d="M270.105,248.607l-6.828-4.2a.4.4,0,0,1,0-.674l7.153-4.471a.712.712,0,0,1,.746,0l6.838,4.2a.391.391,0,0,1,0,.666l-7.158,4.474A.716.716,0,0,1,270.105,248.607Z" transform="translate(-168.54 -188.876)" fill="#244780"/>
        <path id="Path_24411" data-name="Path 24411" d="M276.419,252.49l-6.828-4.2a.4.4,0,0,1,0-.676l7.153-4.47a.709.709,0,0,1,.746,0l6.838,4.2a.391.391,0,0,1,0,.666l-7.158,4.474A.718.718,0,0,1,276.419,252.49Z" transform="translate(-165.912 -187.26)" fill="#244780"/>
        <path id="Path_24412" data-name="Path 24412" d="M282.733,256.37l-6.828-4.2a.4.4,0,0,1,0-.674l7.153-4.471a.715.715,0,0,1,.746,0l6.838,4.2a.392.392,0,0,1,0,.667l-7.158,4.472A.719.719,0,0,1,282.733,256.37Z" transform="translate(-163.284 -185.644)" fill="#244780"/>
        <path id="Path_24413" data-name="Path 24413" d="M289.047,260.253l-6.828-4.2a.4.4,0,0,1,0-.674l7.153-4.471a.712.712,0,0,1,.746,0l6.838,4.2a.391.391,0,0,1,0,.666l-7.158,4.474A.719.719,0,0,1,289.047,260.253Z" transform="translate(-160.655 -184.029)" fill="#244780"/>
        <path id="Path_24414" data-name="Path 24414" d="M295.361,264.134l-6.828-4.2a.4.4,0,0,1,0-.676l7.153-4.47a.711.711,0,0,1,.748,0l6.836,4.2a.391.391,0,0,1,0,.666l-7.158,4.474A.719.719,0,0,1,295.361,264.134Z" transform="translate(-158.027 -182.413)" fill="#244780"/>
        <path id="Path_24415" data-name="Path 24415" d="M301.675,268.014l-6.828-4.2a.4.4,0,0,1,0-.674L302,258.673a.717.717,0,0,1,.748,0l6.836,4.2a.391.391,0,0,1,0,.666l-7.158,4.474A.719.719,0,0,1,301.675,268.014Z" transform="translate(-155.399 -180.798)" fill="#244780"/>
        <path id="Path_24416" data-name="Path 24416" d="M235.005,216.938l-3.178-1.954h0l-7.85-4.814a.714.714,0,0,0-.748,0l-7.152,4.471a.4.4,0,0,0,0,.674l4.192,2.565h0l6.828,4.2a.719.719,0,0,0,.752,0l7.158-4.474A.391.391,0,0,0,235.005,216.938Z" transform="translate(-188.188 -200.987)" fill="#244780"/>
        <path id="Path_24417" data-name="Path 24417" d="M245.726,216.419l-6.828-4.2a.4.4,0,0,1,0-.676l3.138-1.977a.714.714,0,0,1,.748,0l6.838,4.2a.392.392,0,0,1,0,.667l-3.143,1.98A.719.719,0,0,1,245.726,216.419Z" transform="translate(-178.688 -201.237)" fill="#244780"/>
        <path id="Path_24418" data-name="Path 24418" d="M252.04,220.3l-6.828-4.2a.4.4,0,0,1,0-.674l3.138-1.978a.714.714,0,0,1,.748,0l6.838,4.2a.39.39,0,0,1,0,.666l-3.143,1.981A.719.719,0,0,1,252.04,220.3Z" transform="translate(-176.059 -199.621)" fill="#244780"/>
        <path id="Path_24419" data-name="Path 24419" d="M258.354,224.182l-6.828-4.2a.4.4,0,0,1,0-.674l3.138-1.977a.711.711,0,0,1,.748,0l6.838,4.2a.391.391,0,0,1,0,.666l-3.144,1.981A.719.719,0,0,1,258.354,224.182Z" transform="translate(-173.431 -198.005)" fill="#244780"/>
        <path id="Path_24420" data-name="Path 24420" d="M264.668,228.063l-6.828-4.2a.4.4,0,0,1,0-.674l3.138-1.978a.717.717,0,0,1,.748,0l6.838,4.2a.392.392,0,0,1,0,.667l-3.144,1.98A.719.719,0,0,1,264.668,228.063Z" transform="translate(-170.803 -196.39)" fill="#244780"/>
        <path id="Path_24421" data-name="Path 24421" d="M270.982,231.944l-6.828-4.2a.4.4,0,0,1,0-.674l3.138-1.978a.714.714,0,0,1,.748,0l6.838,4.2a.391.391,0,0,1,0,.666l-3.144,1.981A.719.719,0,0,1,270.982,231.944Z" transform="translate(-168.175 -194.774)" fill="#244780"/>
        <path id="Path_24422" data-name="Path 24422" d="M277.3,235.826l-6.828-4.2a.4.4,0,0,1,0-.674l3.14-1.977a.709.709,0,0,1,.746,0l6.838,4.2a.391.391,0,0,1,0,.666l-3.144,1.981A.719.719,0,0,1,277.3,235.826Z" transform="translate(-165.546 -193.159)" fill="#244780"/>
        <path id="Path_24423" data-name="Path 24423" d="M283.61,239.707l-6.828-4.2a.4.4,0,0,1,0-.674l3.14-1.979a.715.715,0,0,1,.746,0l6.838,4.2a.392.392,0,0,1,0,.667l-3.144,1.98A.719.719,0,0,1,283.61,239.707Z" transform="translate(-162.918 -191.543)" fill="#244780"/>
        <path id="Path_24424" data-name="Path 24424" d="M289.924,243.588l-6.828-4.2a.4.4,0,0,1,0-.674l3.14-1.979a.712.712,0,0,1,.746,0l6.838,4.2a.391.391,0,0,1,0,.666l-3.144,1.981A.716.716,0,0,1,289.924,243.588Z" transform="translate(-160.29 -189.927)" fill="#244780"/>
        <path id="Path_24425" data-name="Path 24425" d="M296.239,247.47l-6.829-4.2a.4.4,0,0,1,0-.676l3.14-1.977a.709.709,0,0,1,.746,0l6.838,4.2a.391.391,0,0,1,0,.666l-3.144,1.981A.716.716,0,0,1,296.239,247.47Z" transform="translate(-157.662 -188.312)" fill="#244780"/>
        <path id="Path_24426" data-name="Path 24426" d="M302.553,251.351l-6.829-4.2a.4.4,0,0,1,0-.674l3.138-1.978a.715.715,0,0,1,.746,0l6.838,4.2a.391.391,0,0,1,0,.666l-3.144,1.98A.716.716,0,0,1,302.553,251.351Z" transform="translate(-155.034 -186.696)" fill="#244780"/>
        <path id="Path_24427" data-name="Path 24427" d="M308.867,255.233l-6.829-4.2a.4.4,0,0,1,0-.674l3.138-1.977a.711.711,0,0,1,.748,0l6.836,4.2a.391.391,0,0,1,0,.666l-3.144,1.981A.716.716,0,0,1,308.867,255.233Z" transform="translate(-152.406 -185.081)" fill="#244780"/>
        <path id="Path_24428" data-name="Path 24428" d="M315.181,259.114l-6.829-4.2a.4.4,0,0,1,0-.676l3.138-1.977a.714.714,0,0,1,.748,0l6.836,4.2a.392.392,0,0,1,0,.667l-3.144,1.98A.716.716,0,0,1,315.181,259.114Z" transform="translate(-149.777 -183.465)" fill="#244780"/>
        <path id="Path_24429" data-name="Path 24429" d="M244.5,210.528l-3.178-1.953h0l-7.85-4.815a.717.717,0,0,0-.748,0l-3.138,1.979a.4.4,0,0,0,0,.674l4.191,2.565h0l6.828,4.2a.719.719,0,0,0,.752,0l3.144-1.98A.392.392,0,0,0,244.5,210.528Z" transform="translate(-182.566 -203.655)" fill="#244780"/>
        <path id="Path_24430" data-name="Path 24430" d="M227.522,230.543l-6.828-4.2a.4.4,0,0,1,0-.674l7.152-4.471a.714.714,0,0,1,.748,0l6.838,4.2a.39.39,0,0,1,0,.666l-7.156,4.474A.716.716,0,0,1,227.522,230.543Z" transform="translate(-186.265 -196.395)" fill="#244780"/>
        <path id="Path_24431" data-name="Path 24431" d="M233.836,234.426l-6.828-4.2a.4.4,0,0,1,0-.674l7.152-4.47a.711.711,0,0,1,.748,0l6.838,4.2a.391.391,0,0,1,0,.666l-7.158,4.474A.719.719,0,0,1,233.836,234.426Z" transform="translate(-183.637 -194.779)" fill="#244780"/>
        <path id="Path_24432" data-name="Path 24432" d="M240.15,238.306l-6.828-4.2a.4.4,0,0,1,0-.674l7.152-4.471a.717.717,0,0,1,.748,0l6.838,4.2a.392.392,0,0,1,0,.667l-7.158,4.473A.719.719,0,0,1,240.15,238.306Z" transform="translate(-181.009 -193.163)" fill="#244780"/>
        <path id="Path_24433" data-name="Path 24433" d="M246.464,242.187l-6.828-4.2a.4.4,0,0,1,0-.674l7.153-4.471a.712.712,0,0,1,.746,0l6.838,4.2a.391.391,0,0,1,0,.666l-7.158,4.474A.716.716,0,0,1,246.464,242.187Z" transform="translate(-178.38 -191.548)" fill="#244780"/>
        <path id="Path_24434" data-name="Path 24434" d="M252.778,246.07l-6.828-4.2a.4.4,0,0,1,0-.676l7.153-4.47a.709.709,0,0,1,.746,0l6.838,4.2a.391.391,0,0,1,0,.666l-7.158,4.474A.718.718,0,0,1,252.778,246.07Z" transform="translate(-175.752 -189.932)" fill="#244780"/>
        <path id="Path_24435" data-name="Path 24435" d="M259.092,249.95l-6.828-4.2a.4.4,0,0,1,0-.674l7.153-4.471a.715.715,0,0,1,.746,0l6.838,4.2a.392.392,0,0,1,0,.667l-7.158,4.474A.722.722,0,0,1,259.092,249.95Z" transform="translate(-173.124 -188.317)" fill="#244780"/>
        <path id="Path_24436" data-name="Path 24436" d="M265.406,253.833l-6.828-4.2a.4.4,0,0,1,0-.674l7.153-4.471a.712.712,0,0,1,.746,0l6.838,4.2a.391.391,0,0,1,0,.666l-7.158,4.474A.719.719,0,0,1,265.406,253.833Z" transform="translate(-170.496 -186.701)" fill="#244780"/>
        <path id="Path_24437" data-name="Path 24437" d="M271.72,257.714l-6.828-4.2a.4.4,0,0,1,0-.676l7.153-4.47a.709.709,0,0,1,.746,0l6.838,4.2a.391.391,0,0,1,0,.666l-7.158,4.474A.719.719,0,0,1,271.72,257.714Z" transform="translate(-167.867 -185.086)" fill="#244780"/>
        <path id="Path_24438" data-name="Path 24438" d="M278.034,261.594l-6.828-4.2a.4.4,0,0,1,0-.674l7.153-4.471a.717.717,0,0,1,.748,0l6.836,4.2a.391.391,0,0,1,0,.666l-7.158,4.474A.719.719,0,0,1,278.034,261.594Z" transform="translate(-165.239 -183.47)" fill="#244780"/>
        <path id="Path_24439" data-name="Path 24439" d="M284.348,265.477l-6.828-4.2a.4.4,0,0,1,0-.674l7.153-4.471a.714.714,0,0,1,.748,0l6.836,4.2a.391.391,0,0,1,0,.666l-7.158,4.474A.719.719,0,0,1,284.348,265.477Z" transform="translate(-162.611 -181.854)" fill="#244780"/>
        <path id="Path_24440" data-name="Path 24440" d="M230.981,222.655l-5.417-3.339h0l-7.85-4.814a.711.711,0,0,0-.748,0l-7.153,4.47a.4.4,0,0,0,0,.674L214,222.21h0l9.067,5.584a.719.719,0,0,0,.752,0l7.158-4.472A.392.392,0,0,0,230.981,222.655Z" transform="translate(-190.795 -199.185)" fill="#244780"/>
        <path id="Path_24441" data-name="Path 24441" d="M305.094,268.355l-3.178-1.953h0l-10.264-6.282a.714.714,0,0,0-.748,0l-7.152,4.471a.4.4,0,0,0,0,.674l6.6,4.035h0l6.828,4.2a.719.719,0,0,0,.752,0l7.158-4.474A.391.391,0,0,0,305.094,268.355Z" transform="translate(-160.017 -180.196)" fill="#244780"/>
        <path id="Path_24442" data-name="Path 24442" d="M223.744,236.473l-6.828-4.2a.4.4,0,0,1,0-.674l7.153-4.471a.712.712,0,0,1,.746,0l6.838,4.2a.391.391,0,0,1,0,.666l-7.158,4.474A.719.719,0,0,1,223.744,236.473Z" transform="translate(-187.837 -193.927)" fill="#244780"/>
        <path id="Path_24443" data-name="Path 24443" d="M230.058,240.354l-6.828-4.2a.4.4,0,0,1,0-.674l7.153-4.471a.712.712,0,0,1,.746,0l6.838,4.2a.391.391,0,0,1,0,.666l-7.158,4.474A.719.719,0,0,1,230.058,240.354Z" transform="translate(-185.209 -192.311)" fill="#244780"/>
        <path id="Path_24444" data-name="Path 24444" d="M236.372,244.234l-6.828-4.2a.4.4,0,0,1,0-.674l7.153-4.471a.712.712,0,0,1,.746,0l6.838,4.2a.391.391,0,0,1,0,.666l-7.158,4.474A.716.716,0,0,1,236.372,244.234Z" transform="translate(-182.581 -190.696)" fill="#244780"/>
        <path id="Path_24445" data-name="Path 24445" d="M242.686,248.117l-6.828-4.2a.4.4,0,0,1,0-.676l7.153-4.47a.711.711,0,0,1,.748,0l6.836,4.2a.391.391,0,0,1,0,.666l-7.158,4.474A.719.719,0,0,1,242.686,248.117Z" transform="translate(-179.953 -189.08)" fill="#244780"/>
        <path id="Path_24446" data-name="Path 24446" d="M249,252l-6.828-4.2a.4.4,0,0,1,0-.674l7.153-4.471a.717.717,0,0,1,.748,0l6.836,4.2a.392.392,0,0,1,0,.667L249.752,252A.718.718,0,0,1,249,252Z" transform="translate(-177.325 -187.465)" fill="#244780"/>
        <path id="Path_24447" data-name="Path 24447" d="M255.314,255.878l-6.828-4.2a.4.4,0,0,1,0-.674l7.153-4.471a.714.714,0,0,1,.748,0l6.836,4.2a.391.391,0,0,1,0,.666l-7.158,4.474A.716.716,0,0,1,255.314,255.878Z" transform="translate(-174.696 -185.849)" fill="#244780"/>
        <path id="Path_24448" data-name="Path 24448" d="M261.629,259.761l-6.829-4.2a.4.4,0,0,1,0-.676l7.153-4.47a.711.711,0,0,1,.748,0l6.836,4.2a.39.39,0,0,1,0,.666l-7.158,4.474A.716.716,0,0,1,261.629,259.761Z" transform="translate(-172.068 -184.234)" fill="#244780"/>
        <path id="Path_24449" data-name="Path 24449" d="M267.943,263.641l-6.829-4.2a.4.4,0,0,1,0-.674l7.153-4.471a.717.717,0,0,1,.748,0l6.836,4.2a.392.392,0,0,1,0,.667l-7.158,4.474A.716.716,0,0,1,267.943,263.641Z" transform="translate(-169.44 -182.618)" fill="#244780"/>
        <path id="Path_24450" data-name="Path 24450" d="M274.257,267.524l-6.829-4.2a.4.4,0,0,1,0-.674l7.152-4.471a.714.714,0,0,1,.748,0l6.836,4.2a.39.39,0,0,1,0,.666l-7.158,4.474A.716.716,0,0,1,274.257,267.524Z" transform="translate(-166.812 -181.002)" fill="#244780"/>
        <path id="Path_24451" data-name="Path 24451" d="M228.357,229.343l-9.465-5.863h0l-7.85-4.815a.717.717,0,0,0-.748,0l-7.152,4.471a.4.4,0,0,0,0,.674l4.192,2.565h0l13.114,8.107a.719.719,0,0,0,.752,0l7.158-4.474A.391.391,0,0,0,228.357,229.343Z" transform="translate(-193.572 -197.451)" fill="#244780"/>
        <path id="Path_24452" data-name="Path 24452" d="M299.8,273.36l-3.178-1.954h0l-14.939-9.138a.714.714,0,0,0-.748,0l-7.153,4.471a.4.4,0,0,0,0,.674l11.279,6.889h0l6.828,4.2a.722.722,0,0,0,.752,0l7.158-4.474A.391.391,0,0,0,299.8,273.36Z" transform="translate(-164.169 -179.302)" fill="#244780"/>
        <path id="Path_24453" data-name="Path 24453" d="M234.262,241.365l-3.178-1.953h0l-7.852-4.815a.712.712,0,0,0-.746,0l-7.153,4.471a.4.4,0,0,0,0,.674l4.191,2.565h0l6.828,4.2a.719.719,0,0,0,.752,0l7.158-4.473A.392.392,0,0,0,234.262,241.365Z" transform="translate(-188.497 -190.819)" fill="#244780"/>
        <path id="Path_24454" data-name="Path 24454" d="M203.345,232.259l-6.828-4.2a.4.4,0,0,1,0-.674l7.152-4.471a.714.714,0,0,1,.748,0l6.838,4.2a.39.39,0,0,1,0,.666l-7.158,4.474A.713.713,0,0,1,203.345,232.259Z" transform="translate(-196.329 -195.68)" fill="#244780"/>
        <path id="Path_24455" data-name="Path 24455" d="M209.659,236.142l-6.828-4.2a.4.4,0,0,1,0-.676l7.152-4.47a.711.711,0,0,1,.748,0l6.838,4.2a.39.39,0,0,1,0,.666l-7.156,4.474A.719.719,0,0,1,209.659,236.142Z" transform="translate(-193.7 -194.065)" fill="#244780"/>
        <path id="Path_24456" data-name="Path 24456" d="M215.973,240.022l-6.828-4.2a.4.4,0,0,1,0-.674l7.152-4.471a.717.717,0,0,1,.748,0l6.838,4.2a.392.392,0,0,1,0,.667l-7.158,4.472A.719.719,0,0,1,215.973,240.022Z" transform="translate(-191.072 -192.449)" fill="#244780"/>
        <path id="Path_24457" data-name="Path 24457" d="M262.995,269.082l-6.828-4.2a.4.4,0,0,1,0-.674l7.153-4.471a.714.714,0,0,1,.748,0l6.836,4.2a.391.391,0,0,1,0,.666l-7.158,4.474A.715.715,0,0,1,262.995,269.082Z" transform="translate(-171.499 -180.353)" fill="#244780"/>
        <path id="Path_24458" data-name="Path 24458" d="M269.309,272.965l-6.828-4.2a.4.4,0,0,1,0-.676l7.153-4.47a.711.711,0,0,1,.748,0l6.836,4.2a.391.391,0,0,1,0,.666l-7.158,4.474A.719.719,0,0,1,269.309,272.965Z" transform="translate(-168.871 -178.737)" fill="#244780"/>
        <path id="Path_24459" data-name="Path 24459" d="M281.937,280.726l-6.828-4.2a.4.4,0,0,1,0-.674l7.154-4.471a.714.714,0,0,1,.748,0l6.836,4.2a.39.39,0,0,1,0,.666l-7.158,4.474A.716.716,0,0,1,281.937,280.726Z" transform="translate(-163.615 -175.506)" fill="#244780"/>
        <path id="Path_24460" data-name="Path 24460" d="M278.625,274.19l-6.828-4.2a.4.4,0,0,1,0-.676l2.9-1.814a.717.717,0,0,1,.748,0l6.838,4.2a.392.392,0,0,1,0,.667l-2.91,1.817A.718.718,0,0,1,278.625,274.19Z" transform="translate(-164.993 -177.122)" fill="#244780"/>
        <path id="Path_24461" data-name="Path 24461" d="M275.621,276.068l-6.828-4.2a.4.4,0,0,1,0-.674l2.9-1.814a.711.711,0,0,1,.748,0l6.838,4.2a.39.39,0,0,1,0,.666l-2.909,1.818A.718.718,0,0,1,275.621,276.068Z" transform="translate(-166.244 -176.34)" fill="#244780"/>
        <path id="Path_24462" data-name="Path 24462" d="M224.752,244.83l7.153-4.471a.714.714,0,0,1,.748,0l42.188,25.991a.39.39,0,0,1,0,.666l-7.158,4.474a.716.716,0,0,1-.751,0L224.752,245.5A.4.4,0,0,1,224.752,244.83Z" transform="translate(-184.576 -188.421)" fill="#244780"/>
      </g>
    </g>
    <path id="Rectangle_725" data-name="Rectangle 725" d="M0,0H415a55,55,0,0,1,55,55V470a0,0,0,0,1,0,0H55A55,55,0,0,1,0,415V0A0,0,0,0,1,0,0Z" transform="translate(81.328 10.925)" fill="#488eff" opacity="0.05"/>
  </g>
</svg>
