<svg xmlns="http://www.w3.org/2000/svg" xmlns:xlink="http://www.w3.org/1999/xlink" width="470" height="470" viewBox="0 0 470 470">
  <defs>
    <linearGradient id="linear-gradient" x1="-2.371" y1="3.446" x2="-2.38" y2="3.442" gradientUnits="objectBoundingBox">
      <stop offset="0" stop-color="#fff"/>
      <stop offset="0.193" stop-color="#fbfeff"/>
      <stop offset="0.37" stop-color="#f0fcff"/>
      <stop offset="0.54" stop-color="#ddf8ff"/>
      <stop offset="0.706" stop-color="#c3f3ff"/>
      <stop offset="0.867" stop-color="#a2ecff"/>
      <stop offset="1" stop-color="#81e6ff"/>
    </linearGradient>
    <linearGradient id="linear-gradient-2" x1="-3.905" y1="4.774" x2="-3.923" y2="4.774" xlink:href="#linear-gradient"/>
    <linearGradient id="linear-gradient-3" x1="-9.441" y1="14.889" x2="-9.461" y2="14.889" gradientUnits="objectBoundingBox">
      <stop offset="0" stop-color="#fff"/>
      <stop offset="0.141" stop-color="#f6fdff"/>
      <stop offset="0.365" stop-color="#e0f8ff"/>
      <stop offset="0.642" stop-color="#baf1ff"/>
      <stop offset="0.96" stop-color="#88e7ff"/>
      <stop offset="1" stop-color="#81e6ff"/>
    </linearGradient>
  </defs>
  <g id="Group_775" data-name="Group 775" transform="translate(-189.682 167.486)">
    <ellipse id="Ellipse_54" data-name="Ellipse 54" cx="28.199" cy="16.281" rx="28.199" ry="16.281" transform="translate(324.02 206.648)" fill="#173d7a" opacity="0.05"/>
    <g id="Group_745" data-name="Group 745">
      <g id="Group_744" data-name="Group 744">
        <g id="Group_742" data-name="Group 742">
          <path id="Path_23840" data-name="Path 23840" d="M300.06-34.338l-7.379-4.26V-91.586l7.379,4.26Z" fill="#244780"/>
          <path id="Path_23841" data-name="Path 23841" d="M317.584-24.223l-7.379-4.26V-99.266l7.379,4.26Z" fill="#244780"/>
          <path id="Path_23842" data-name="Path 23842" d="M335.1-14.107l-7.379-4.26v-84.8l7.379,4.26Z" fill="#488eff"/>
          <path id="Path_23843" data-name="Path 23843" d="M352.62-3.992l-7.379-4.26v-101.5l7.379,4.26Z" fill="#244780"/>
          <path id="Path_23844" data-name="Path 23844" d="M370.14,6.124l-7.379-4.26V-112.051l7.379,4.26Z" fill="#488eff"/>
          <path id="Path_23845" data-name="Path 23845" d="M387.661,16.238l-7.379-4.26V-115.376l7.379,4.26Z" fill="#244780"/>
        </g>
        <g id="Group_743" data-name="Group 743">
          <path id="Path_23846" data-name="Path 23846" d="M296.37-101.483,333.6-122.975v12.91l33.718-19.467v10.39l36.771-21.23" fill="#fff" stroke="#feac00" stroke-linecap="round" stroke-linejoin="round" stroke-width="2.128"/>
          <path id="Path_23847" data-name="Path 23847" d="M406.985-142.487l-11.314-1,6.523,11.3Z" fill="#feac00"/>
        </g>
      </g>
    </g>
    <g id="Group_764" data-name="Group 764">
      <g id="Group_752" data-name="Group 752">
        <g id="Group_751" data-name="Group 751">
          <g id="Group_748" data-name="Group 748">
            <g id="Group_747" data-name="Group 747">
              <g id="Group_746" data-name="Group 746">
                <path id="Path_23848" data-name="Path 23848" d="M397.2,153.89l-32.707-19.007.018,6.3,32.707,19.007Z" fill="#244780"/>
                <path id="Path_23849" data-name="Path 23849" d="M471.21,111.162,438.5,92.155l-74.008,42.728L397.2,153.89Z" fill="#d4e6ff"/>
                <path id="Path_23850" data-name="Path 23850" d="M397.2,153.891l.018,6.3,74.008-42.728-.018-6.3Z" fill="#244780" stroke="#2c3964" stroke-width="1"/>
              </g>
              <path id="Path_23851" data-name="Path 23851" d="M396.857,82.434l-11.734-6.819.136,47.953,11.734,6.819Z" fill="#244780"/>
              <path id="Path_23852" data-name="Path 23852" d="M396.857,82.435l.136,47.953,35.956-20.759-.136-47.953Z" fill="#244780" stroke="#244780" stroke-width="1"/>
            </g>
          </g>
          <g id="Group_750" data-name="Group 750">
            <path id="Path_23853" data-name="Path 23853" d="M303.854-3.3l195.125-112.65a2.234,2.234,0,0,1,2.255-.221l7.252,4.214a2.236,2.236,0,0,0-2.256.221L311.106.922a6.95,6.95,0,0,0-3.157,5.46l.394,139.123a2.213,2.213,0,0,0,.921,2.025l-7.251-4.214a2.21,2.21,0,0,1-.921-2.025L300.7,2.167A6.952,6.952,0,0,1,303.854-3.3Z" fill="#d4e6ff"/>
            <path id="Path_23854" data-name="Path 23854" d="M311.106.922a6.95,6.95,0,0,0-3.157,5.46l.394,139.123c.007,2.008,1.43,2.811,3.177,1.8L506.64,34.652a6.948,6.948,0,0,0,3.156-5.459l-.394-139.12c-.005-2.007-1.429-2.811-3.176-1.8Z" fill="#2c3964"/>
            <g id="Group_749" data-name="Group 749">
              <path id="Path_23855" data-name="Path 23855" d="M313.764,8.074l.33,118.66c.01,1.276.9,1.79,2.027,1.153L436.253,58.52l65.724-37.946a4.36,4.36,0,0,0,2.006-3.478l-.329-118.65c-.011-1.286-.906-1.8-2.027-1.153L335.082-6.557,315.77,4.6A4.4,4.4,0,0,0,313.764,8.074Z" fill="#fff"/>
            </g>
          </g>
        </g>
      </g>
      <g id="Group_756" data-name="Group 756">
        <g id="Group_754" data-name="Group 754">
          <g id="Group_753" data-name="Group 753">
            <path id="Path_23856" data-name="Path 23856" d="M338.433,10.91a7.393,7.393,0,0,1,3.344-5.792L475.969-72.353c1.847-1.066,3.344-.2,3.344,1.931v9.1L338.433,20.01Z" fill="#81e6ff"/>
            <path id="Path_23857" data-name="Path 23857" d="M479.313-61.324V21.56a7.389,7.389,0,0,1-3.344,5.792L341.777,104.828c-1.846,1.066-3.344.2-3.344-1.931V20.013Z" fill="url(#linear-gradient)"/>
          </g>
          <path id="Path_23858" data-name="Path 23858" d="M470.361-62.636c0-1.309-.919-1.84-2.053-1.186a4.539,4.539,0,0,0-2.052,3.555c0,1.309.919,1.84,2.052,1.186A4.537,4.537,0,0,0,470.361-62.636Z" fill="#488eff"/>
          <path id="Path_23859" data-name="Path 23859" d="M459.607-56.427c0-1.309-.919-1.84-2.053-1.186a4.539,4.539,0,0,0-2.052,3.555c0,1.309.919,1.84,2.052,1.186A4.537,4.537,0,0,0,459.607-56.427Z" fill="#488eff"/>
          <path id="Path_23860" data-name="Path 23860" d="M448.853-50.219c0-1.308-.919-1.84-2.053-1.184a4.54,4.54,0,0,0-2.052,3.555c0,1.308.919,1.84,2.052,1.184A4.537,4.537,0,0,0,448.853-50.219Z" fill="#488eff"/>
        </g>
        <g id="Group_785" data-name="Group 785">
          <path id="Path_23861" data-name="Path 23861" d="M379.653,35.361,458.094-9.927V-24.96L379.653,20.328Z" fill="none" stroke="#feac00" stroke-miterlimit="10" stroke-width="0.5"/>
          <path id="Path_23862" data-name="Path 23862" d="M445.653-2.641l13.019-7.517V-25.189l-13.019,7.517Z" fill="#244780"/>
          <g id="Group_755" data-name="Group 755" transform="translate(0.43)">
            <path id="Path_23863" data-name="Path 23863" d="M452.755-18.037c1.288-.743,2.332-.141,2.332,1.347a5.154,5.154,0,0,1-2.332,4.038c-1.288.743-2.332.141-2.331-1.346A5.151,5.151,0,0,1,452.755-18.037Z" transform="translate(-0.43)" fill="none" stroke="#fff" stroke-miterlimit="10" stroke-width="1.435"/>
            <line id="Line_30" data-name="Line 30" x1="2.64" y2="4.571" transform="translate(448.363 -12.868)" fill="none" stroke="#fff" stroke-miterlimit="10" stroke-width="1.435"/>
          </g>
        </g>
      </g>
      <g id="Group_763" data-name="Group 763">
        <g id="Group_758" data-name="Group 758">
          <g id="Group_757" data-name="Group 757">
            <path id="Path_23864" data-name="Path 23864" d="M331.9,84.274a4.38,4.38,0,0,1,1.98-3.431l79.478-45.886c1.093-.631,1.98-.119,1.98,1.143v5.39L331.9,89.662Z" fill="#81e6ff"/>
            <path id="Path_23865" data-name="Path 23865" d="M415.333,41.49V90.579a4.375,4.375,0,0,1-1.98,3.429L333.875,139.9c-1.093.631-1.98.119-1.98-1.144V89.662Z" fill="url(#linear-gradient-2)"/>
          </g>
          <path id="Path_23866" data-name="Path 23866" d="M410.027,40.713c0-.776-.545-1.09-1.216-.7a2.69,2.69,0,0,0-1.215,2.106c0,.776.545,1.09,1.215.7A2.688,2.688,0,0,0,410.027,40.713Z" fill="#488eff"/>
          <path id="Path_23867" data-name="Path 23867" d="M403.662,44.39c0-.776-.545-1.089-1.216-.7a2.69,2.69,0,0,0-1.215,2.106c0,.776.545,1.09,1.215.7A2.687,2.687,0,0,0,403.662,44.39Z" fill="#488eff"/>
          <path id="Path_23868" data-name="Path 23868" d="M397.293,48.067c0-.775-.545-1.089-1.216-.7a2.686,2.686,0,0,0-1.215,2.1c0,.776.545,1.09,1.215.7A2.686,2.686,0,0,0,397.293,48.067Z" fill="#488eff"/>
        </g>
        <g id="Group_762" data-name="Group 762">
          <path id="Path_23869" data-name="Path 23869" d="M405.8,58.127c0-1.364-.958-1.917-2.14-1.235a4.731,4.731,0,0,0-2.14,3.707c0,1.364.958,1.917,2.14,1.235A4.728,4.728,0,0,0,405.8,58.127Z" fill="#488eff"/>
          <path id="Path_23870" data-name="Path 23870" d="M405.8,69.322c0-1.365-.958-1.919-2.14-1.236a4.731,4.731,0,0,0-2.14,3.707c0,1.364.958,1.917,2.14,1.235A4.727,4.727,0,0,0,405.8,69.322Z" fill="#488eff"/>
          <path id="Path_23871" data-name="Path 23871" d="M405.8,80.517c0-1.365-.958-1.919-2.14-1.236a4.731,4.731,0,0,0-2.14,3.707c0,1.364.958,1.917,2.14,1.235A4.727,4.727,0,0,0,405.8,80.517Z" fill="#488eff"/>
          <g id="Group_759" data-name="Group 759" opacity="0.2">
            <path id="Path_23872" data-name="Path 23872" d="M346.623,91.059l49.455-28.553V61.271L346.623,89.824Z" fill="#2c3964"/>
            <path id="Path_23873" data-name="Path 23873" d="M346.623,93.532l49.455-28.553V63.742L346.623,92.295Z" fill="#2c3964"/>
            <path id="Path_23874" data-name="Path 23874" d="M346.623,96l49.454-28.553V66.213L346.622,94.766Z" fill="#2c3964"/>
            <path id="Path_23875" data-name="Path 23875" d="M360.913,90.222l35.165-20.3V68.684l-35.165,20.3Z" fill="#2c3964"/>
          </g>
          <g id="Group_760" data-name="Group 760" opacity="0.2">
            <path id="Path_23876" data-name="Path 23876" d="M346.623,102.872l49.455-28.553V73.084l-49.455,28.553Z" fill="#2c3964"/>
            <path id="Path_23877" data-name="Path 23877" d="M346.623,105.343,396.078,76.79V75.555l-49.455,28.553Z" fill="#2c3964"/>
            <path id="Path_23878" data-name="Path 23878" d="M346.623,107.814l49.455-28.553V78.026L346.623,106.58Z" fill="#2c3964"/>
            <path id="Path_23879" data-name="Path 23879" d="M360.913,102.035l35.165-20.3V80.5l-35.165,20.3Z" fill="#2c3964"/>
          </g>
          <g id="Group_761" data-name="Group 761" opacity="0.2">
            <path id="Path_23880" data-name="Path 23880" d="M346.623,114.68l49.455-28.553V84.892l-49.455,28.553Z" fill="#2c3964"/>
            <path id="Path_23881" data-name="Path 23881" d="M346.623,117.155,396.078,88.6V87.367L346.623,115.92Z" fill="#2c3964"/>
            <path id="Path_23882" data-name="Path 23882" d="M346.623,119.626l49.455-28.553V89.838l-49.455,28.553Z" fill="#2c3964"/>
            <path id="Path_23883" data-name="Path 23883" d="M360.913,113.847l35.165-20.3V92.312l-35.165,20.3Z" fill="#2c3964"/>
          </g>
        </g>
      </g>
    </g>
    <g id="Group_766" data-name="Group 766">
      <path id="Path_23884" data-name="Path 23884" d="M490.658,85.224l.012,4.185c-.011-3.809,2.5-7.623,7.537-10.529,10-5.773,26.153-5.773,36.087,0,4.937,2.868,7.409,6.623,7.42,10.383l-.012-4.185c-.011-3.76-2.483-7.514-7.419-10.384-9.934-5.773-26.089-5.773-36.088,0C493.162,77.6,490.647,81.412,490.658,85.224Z" fill="#244780"/>
      <path id="Path_23885" data-name="Path 23885" d="M546.359,89.242l-.012-4.185c.012,4.038-2.377,8.082-7.159,11.351l.012,4.187C543.982,97.324,546.37,93.281,546.359,89.242Z" fill="#244780"/>
      <path id="Path_23886" data-name="Path 23886" d="M486.006,85.237l.012,4.185c.013,4.444,2.933,8.88,8.765,12.27,11.134,6.47,28.882,6.8,40.772,1.006l-.012-4.185c-11.89,5.795-29.638,5.464-40.772-1.007C488.939,94.117,486.019,89.68,486.006,85.237Z" fill="#244780"/>
      <path id="Path_23887" data-name="Path 23887" d="M535.543,98.513l.012,4.186,14.06,8.171-.012-4.186Z" fill="#244780"/>
      <path id="Path_23888" data-name="Path 23888" d="M498.2,76.724c-10,5.773-10.057,15.133-.123,20.907s26.1,5.774,36.1,0,10.053-15.137.118-20.91S508.2,70.951,498.2,76.724Z" opacity="0.64" fill="url(#linear-gradient-3)" style="isolation: isolate"/>
      <path id="Path_23889" data-name="Path 23889" d="M517.934,77.713c-2.2,1.27-2.213,3.33-.027,4.6a8.754,8.754,0,0,0,7.942,0c2.2-1.27,2.211-3.33.026-4.6A8.752,8.752,0,0,0,517.934,77.713Z" fill="#fff" opacity="0.4" style="isolation: isolate"/>
      <path id="Path_23890" data-name="Path 23890" d="M510.656,77.137a.96.96,0,0,0-.011,1.817,3.464,3.464,0,0,0,3.138,0,.96.96,0,0,0,.01-1.817A3.455,3.455,0,0,0,510.656,77.137Z" fill="#fff" opacity="0.4" style="isolation: isolate"/>
      <path id="Path_23891" data-name="Path 23891" d="M494.916,72.789c-11.824,6.827-11.887,17.893-.145,24.717,11.134,6.471,28.882,6.8,40.772,1.007l14.06,8.17,3.644-2.1-14.06-8.172c10.044-6.868,9.53-17.148-1.6-23.619C525.843,65.965,506.735,65.965,494.916,72.789ZM534.171,95.6c-10,5.773-26.165,5.773-36.1,0s-9.875-15.133.124-20.907,26.154-5.773,36.088,0,9.886,15.133-.113,20.907" fill="#488eff"/>
      <g id="Group_765" data-name="Group 765">
        <path id="Path_23892" data-name="Path 23892" d="M546.359,106.731l.012,4.186,27.143,15.771L573.5,122.5Z" fill="#244780"/>
        <path id="Path_23893" data-name="Path 23893" d="M573.5,122.5l.012,4.186,7.14-4.123-.012-4.186Z" fill="#244780"/>
        <path id="Path_23894" data-name="Path 23894" d="M546.359,106.728,573.5,122.5l7.142-4.123L553.5,102.608Z" fill="#488eff"/>
      </g>
    </g>
    <g id="Rectangle_13" data-name="Rectangle 13" transform="translate(189.682 -167.486)" fill="#488eff" stroke="#488eff" stroke-width="1" opacity="0.03">
      <path d="M0,0H415a55,55,0,0,1,55,55V470a0,0,0,0,1,0,0H55A55,55,0,0,1,0,415V0A0,0,0,0,1,0,0Z" stroke="none"/>
      <path d="M1,.5H415A54.5,54.5,0,0,1,469.5,55V469a.5.5,0,0,1-.5.5H55A54.5,54.5,0,0,1,.5,415V1A.5.5,0,0,1,1,.5Z" fill="none"/>
    </g>
  </g>
</svg>
