<svg xmlns="http://www.w3.org/2000/svg" width="470" height="470" viewBox="0 0 470 470">
  <g id="Group_741" data-name="Group 741" transform="translate(-60.986 39.482)">
    <path id="Path_23630" data-name="Path 23630" d="M139.187,290.628l57.767-32.939c2.112-1.22,1.847-3.351-.592-4.759l-33.238-19.19c-2.439-1.408-6.129-1.561-8.242-.341L97.115,266.338c-2.113,1.22-1.848,3.35.592,4.759l33.237,19.189C133.384,291.7,137.074,291.848,139.187,290.628Z" fill="#173d7a" opacity="0.1"/>
    <g id="Group_713" data-name="Group 713">
      <path id="Path_23631" data-name="Path 23631" d="M375.105,320.23,260.481,254.052c-3.242-1.872-2.835-5.142.909-7.3L339.44,201.7c3.744-2.162,9.408-2.4,12.651-.525l114.623,66.178c3.243,1.872,2.836,5.143-.908,7.3L387.756,319.7C384.012,321.867,378.348,322.1,375.105,320.23Z" fill="#173d7a" opacity="0.1"/>
      <path id="Path_23632" data-name="Path 23632" d="M499.337,140.377,379.619,71.258a4.832,4.832,0,0,0-4.057-.5l.008-.012-.218.082-.053.02-4.326,1.656,3.883,1.9c-.018.072-.04.138-.056.211l-19.5,88.764c-.976,4.442.978,9.628,4.365,11.583L476.5,242.422l-.417,4.951,4.729-1.832a6.648,6.648,0,0,0,3.386-4.817l19.5-88.763C504.678,147.519,502.723,142.332,499.337,140.377Z" fill="#173d7a"/>
      <path id="Path_23633" data-name="Path 23633" d="M499.337,140.377,379.619,71.258a4.832,4.832,0,0,0-4.057-.5l.008-.012-.218.082-.053.02-4.326,1.656,3.883,1.9c-.018.072-.04.138-.056.211l-12.852,58.5,58.576,45.636,82.594-33.607A9.3,9.3,0,0,0,499.337,140.377Z" fill="#396caa"/>
      <path id="Path_23634" data-name="Path 23634" d="M494.823,154.022l9.113-3.881a11.418,11.418,0,0,0-3.692-9.125l-14.426,6.068Z" fill="#274f89"/>
      <path id="Path_23635" data-name="Path 23635" d="M471.928,246.9,352.21,177.784c-3.387-1.956-5.341-7.142-4.365-11.584l19.5-88.763c.976-4.443,4.512-6.459,7.9-4.5l119.718,69.119c3.387,1.955,5.341,7.141,4.365,11.584l-19.5,88.763C478.851,246.842,475.315,248.858,471.928,246.9Z" fill="#d4ecff"/>
      <path id="Path_23636" data-name="Path 23636" d="M496.111,141.632,376.393,72.513a4.731,4.731,0,0,0-4.713-.205,4.921,4.921,0,0,1,3.564.626l119.718,69.118c3.387,1.956,5.341,7.143,4.365,11.585l-19.5,88.763a6.742,6.742,0,0,1-3.185,4.707c2.021-.442,3.708-2.274,4.334-5.128l19.5-88.763C501.452,148.774,499.5,143.587,496.111,141.632Z" fill="#fff"/>
      <path id="Path_23637" data-name="Path 23637" d="M469.333,240.3,356.74,175.327c-3.1-1.789-4.887-6.535-3.994-10.6L370.59,83.5c.893-4.065,4.129-5.91,7.228-4.121l112.593,64.974c3.1,1.789,4.887,6.535,3.994,10.6L476.561,236.18C475.668,240.245,472.432,242.09,469.333,240.3Z" fill="#fff"/>
      <path id="Path_23638" data-name="Path 23638" d="M469.333,240.3,356.74,175.327c-3.1-1.789-4.887-6.535-3.994-10.6L370.59,83.5c.893-4.065,4.129-5.91,7.228-4.121l112.593,64.974c3.1,1.789,4.887,6.535,3.994,10.6L476.561,236.18C475.668,240.245,472.432,242.09,469.333,240.3Z" fill="#244780"/>
      <path id="Path_23639" data-name="Path 23639" d="M470.314,239.9,357.721,174.927c-3.1-1.789-4.887-6.535-3.994-10.6L371.571,83.1a6.234,6.234,0,0,1,2.837-4.275c-1.784.459-3.26,2.132-3.818,4.675l-17.844,81.226c-.893,4.065.895,8.811,3.994,10.6L469.333,240.3a4.325,4.325,0,0,0,4.391.155A4.49,4.49,0,0,1,470.314,239.9Z" fill="#5793ce"/>
      <path id="Path_23640" data-name="Path 23640" d="M473.581,249.913l-16.365-2.161L351.579,186.763c-3.387-1.956-9.3-1.71-13.213.547l-74.854,43.2-9.895-1.306v5.614l.01,0a3.854,3.854,0,0,0,2.272,3.468l119.718,69.119c3.386,1.955,9.3,1.71,13.212-.548l81.519-47.049c2.2-1.27,3.3-2.906,3.233-4.443h0Z" fill="#2c3964"/>
      <path id="Path_23641" data-name="Path 23641" d="M394.209,211.375l-7.505-4.333H304.19l-40.678,23.469-9.895-1.306v5.614l.01,0a3.854,3.854,0,0,0,2.272,3.468l119.718,69.119a12.385,12.385,0,0,0,6.818,1.278Z" fill="#244780"/>
      <path id="Path_23642" data-name="Path 23642" d="M258.008,229.785l-4.391-.58v5.614l.01,0a3.854,3.854,0,0,0,2.272,3.468l2.109,1.218Z" fill="#5793ce"/>
      <path id="Path_23643" data-name="Path 23643" d="M376.822,307.968a15.329,15.329,0,0,0,11.227-.7V294.748H376.822Z" fill="#244780"/>
      <path id="Path_23644" data-name="Path 23644" d="M375.617,301.8,255.9,232.681c-3.387-1.955-2.962-5.371.948-7.629L338.366,178c3.911-2.258,9.826-2.5,13.213-.548L471.3,246.575c3.387,1.955,2.962,5.37-.949,7.628l-81.519,47.049C384.919,303.51,379,303.755,375.617,301.8Z" fill="#d4e6ff"/>
      <path id="Path_23645" data-name="Path 23645" d="M470.348,252.152,388.829,299.2c-3.91,2.257-9.826,2.5-13.212.548L255.9,230.63a4.457,4.457,0,0,1-2.106-2.3c-.53,1.6.146,3.222,2.106,4.354L375.617,301.8c3.386,1.956,9.3,1.71,13.212-.547l81.519-47.05c2.629-1.517,3.675-3.557,3.055-5.325A6.37,6.37,0,0,1,470.348,252.152Z" fill="#fff"/>
      <g id="Group_710" data-name="Group 710">
        <path id="Path_23646" data-name="Path 23646" d="M306.816,209.8l-5.416-3.127c-.435-.251-.381-.69.121-.98L307.915,202a1.886,1.886,0,0,1,1.7-.07l5.417,3.127c.434.251.38.69-.122.98l-6.394,3.691A1.886,1.886,0,0,1,306.816,209.8Z" fill="#2c3964"/>
        <path id="Path_23647" data-name="Path 23647" d="M315.181,214.628l-5.416-3.127c-.435-.251-.381-.69.121-.98l6.394-3.691a1.887,1.887,0,0,1,1.7-.071l5.417,3.128c.435.251.38.689-.122.979l-6.394,3.692A1.886,1.886,0,0,1,315.181,214.628Z" fill="#2c3964"/>
        <path id="Path_23648" data-name="Path 23648" d="M323.547,219.458l-5.417-3.128c-.435-.251-.381-.69.122-.979l6.393-3.692a1.886,1.886,0,0,1,1.7-.07l5.417,3.127c.435.251.38.69-.122.98l-6.394,3.691A1.885,1.885,0,0,1,323.547,219.458Z" fill="#2c3964"/>
        <path id="Path_23649" data-name="Path 23649" d="M335.116,215.469l-5.417-3.127c-.435-.251-.38-.69.122-.98l5.367-3.1a1.886,1.886,0,0,1,1.7-.07l5.417,3.127c.435.252.38.69-.122.98l-5.367,3.1A1.886,1.886,0,0,1,335.116,215.469Z" fill="#2c3964"/>
        <path id="Path_23650" data-name="Path 23650" d="M343.481,220.3l-5.417-3.128c-.435-.251-.38-.689.122-.979l5.367-3.1a1.886,1.886,0,0,1,1.7-.07l5.417,3.127c.435.251.38.69-.122.98l-5.367,3.1A1.887,1.887,0,0,1,343.481,220.3Z" fill="#2c3964"/>
        <path id="Path_23651" data-name="Path 23651" d="M351.846,225.128,346.429,222c-.435-.251-.38-.69.122-.98l5.367-3.1a1.887,1.887,0,0,1,1.7-.071l5.417,3.128c.435.251.38.689-.122.979l-5.367,3.1A1.886,1.886,0,0,1,351.846,225.128Z" fill="#2c3964"/>
        <path id="Path_23652" data-name="Path 23652" d="M360.211,229.958l-5.417-3.127c-.434-.252-.38-.69.122-.98l5.367-3.1a1.887,1.887,0,0,1,1.7-.07l5.417,3.127c.435.251.38.69-.122.98l-5.367,3.1A1.889,1.889,0,0,1,360.211,229.958Z" fill="#2c3964"/>
        <path id="Path_23653" data-name="Path 23653" d="M368.576,234.787l-5.416-3.127c-.435-.251-.381-.69.121-.98l5.367-3.1a1.887,1.887,0,0,1,1.7-.071l5.417,3.128c.435.251.38.69-.122.979l-5.367,3.1A1.883,1.883,0,0,1,368.576,234.787Z" fill="#2c3964"/>
        <path id="Path_23654" data-name="Path 23654" d="M376.941,239.617l-5.416-3.127c-.435-.251-.381-.69.121-.98l5.368-3.1a1.884,1.884,0,0,1,1.7-.07l5.417,3.127c.435.251.381.69-.122.98l-5.367,3.1A1.886,1.886,0,0,1,376.941,239.617Z" fill="#2c3964"/>
        <path id="Path_23655" data-name="Path 23655" d="M385.307,244.447l-5.417-3.128c-.435-.251-.381-.689.122-.979l5.367-3.1a1.886,1.886,0,0,1,1.7-.07l5.416,3.127c.435.251.381.69-.122.98l-5.367,3.1A1.885,1.885,0,0,1,385.307,244.447Z" fill="#2c3964"/>
        <path id="Path_23656" data-name="Path 23656" d="M393.672,249.276l-5.417-3.127c-.435-.251-.381-.69.122-.98l5.367-3.1a1.887,1.887,0,0,1,1.7-.071l5.416,3.128c.435.251.381.689-.121.979l-5.368,3.1A1.884,1.884,0,0,1,393.672,249.276Z" fill="#2c3964"/>
        <path id="Path_23657" data-name="Path 23657" d="M402.037,254.106l-5.417-3.127c-.435-.252-.38-.69.122-.98l5.367-3.1a1.886,1.886,0,0,1,1.7-.07l5.416,3.127c.435.251.381.69-.121.98l-5.367,3.1A1.89,1.89,0,0,1,402.037,254.106Z" fill="#2c3964"/>
        <path id="Path_23658" data-name="Path 23658" d="M410.4,258.935l-5.417-3.127c-.435-.251-.38-.69.122-.98l5.367-3.1a1.887,1.887,0,0,1,1.7-.071l5.417,3.128c.434.251.38.689-.122.979l-5.367,3.1A1.883,1.883,0,0,1,410.4,258.935Z" fill="#2c3964"/>
        <path id="Path_23659" data-name="Path 23659" d="M347.441,213.183l-5.416-3.128c-.435-.251-.381-.689.121-.979l5.368-3.1a1.881,1.881,0,0,1,1.7-.07l5.417,3.127c.435.251.38.69-.122.98l-5.367,3.1A1.887,1.887,0,0,1,347.441,213.183Z" fill="#2c3964"/>
        <path id="Path_23660" data-name="Path 23660" d="M338.951,208.281l-5.416-3.127c-.435-.252-.381-.69.121-.98l5.368-3.1a1.884,1.884,0,0,1,1.7-.07l5.417,3.127c.435.251.381.69-.122.98l-5.367,3.1A1.886,1.886,0,0,1,338.951,208.281Z" fill="#2c3964"/>
        <path id="Path_23661" data-name="Path 23661" d="M330.448,203.371l-11.667-6.735c-.435-.251-.38-.69.122-.98l5.367-3.1a1.886,1.886,0,0,1,1.7-.07l11.666,6.736c.435.251.381.689-.122.979l-5.367,3.1A1.884,1.884,0,0,1,330.448,203.371Z" fill="#2c3964"/>
        <path id="Path_23662" data-name="Path 23662" d="M336.392,197.4l-9.468-5.466c-.435-.251-.38-.689.122-.979l5.367-3.1a1.886,1.886,0,0,1,1.7-.07l9.467,5.466c.435.251.381.689-.121.979l-5.368,3.1A1.881,1.881,0,0,1,336.392,197.4Z" fill="#2c3964"/>
        <path id="Path_23663" data-name="Path 23663" d="M355.806,218.012l-5.416-3.127c-.435-.251-.381-.69.122-.98l5.367-3.1a1.888,1.888,0,0,1,1.7-.07l5.417,3.128c.435.251.381.689-.122.979l-5.367,3.1A1.886,1.886,0,0,1,355.806,218.012Z" fill="#2c3964"/>
        <path id="Path_23664" data-name="Path 23664" d="M364.172,222.842l-5.417-3.128c-.435-.251-.381-.689.122-.979l5.367-3.1a1.886,1.886,0,0,1,1.7-.07l5.416,3.127c.435.251.381.69-.122.98l-5.367,3.1A1.885,1.885,0,0,1,364.172,222.842Z" fill="#2c3964"/>
        <path id="Path_23665" data-name="Path 23665" d="M372.537,227.671l-5.417-3.127c-.435-.251-.38-.69.122-.98l5.367-3.1a1.887,1.887,0,0,1,1.7-.071l5.416,3.128c.435.251.381.689-.121.979l-5.368,3.1A1.884,1.884,0,0,1,372.537,227.671Z" fill="#2c3964"/>
        <path id="Path_23666" data-name="Path 23666" d="M380.9,232.5l-5.417-3.127c-.435-.251-.38-.69.122-.98l5.367-3.1a1.886,1.886,0,0,1,1.7-.07l5.417,3.127c.434.251.38.69-.122.98l-5.367,3.1A1.886,1.886,0,0,1,380.9,232.5Z" fill="#2c3964"/>
        <path id="Path_23667" data-name="Path 23667" d="M389.267,237.331,383.85,234.2c-.435-.251-.38-.689.122-.979l5.367-3.1a1.883,1.883,0,0,1,1.7-.07l5.417,3.127c.435.251.38.69-.122.98l-5.367,3.1A1.887,1.887,0,0,1,389.267,237.331Z" fill="#2c3964"/>
        <path id="Path_23668" data-name="Path 23668" d="M397.632,242.16l-5.417-3.127c-.435-.251-.38-.69.122-.98l5.367-3.1a1.889,1.889,0,0,1,1.7-.07l5.417,3.127c.435.252.38.69-.122.98l-5.367,3.1A1.886,1.886,0,0,1,397.632,242.16Z" fill="#2c3964"/>
        <path id="Path_23669" data-name="Path 23669" d="M406,246.99l-5.417-3.128c-.435-.251-.38-.689.122-.979l5.367-3.1a1.886,1.886,0,0,1,1.7-.07l5.417,3.127c.435.251.38.69-.122.98l-5.367,3.1A1.887,1.887,0,0,1,406,246.99Z" fill="#2c3964"/>
        <path id="Path_23670" data-name="Path 23670" d="M414.362,251.819l-5.417-3.127c-.434-.251-.38-.69.122-.98l5.367-3.1a1.887,1.887,0,0,1,1.7-.071l5.417,3.128c.435.251.38.689-.122.979l-5.367,3.1A1.886,1.886,0,0,1,414.362,251.819Z" fill="#2c3964"/>
        <path id="Path_23671" data-name="Path 23671" d="M422.727,256.649l-5.416-3.127c-.435-.252-.381-.69.121-.98l5.367-3.1a1.886,1.886,0,0,1,1.7-.07l5.417,3.127c.435.251.38.69-.122.98l-5.367,3.1A1.886,1.886,0,0,1,422.727,256.649Z" fill="#2c3964"/>
        <path id="Path_23672" data-name="Path 23672" d="M437.6,265.235l-11.819-6.824c-.435-.251-.381-.689.122-.979l5.367-3.1a1.881,1.881,0,0,1,1.7-.07l11.819,6.823c.435.251.381.69-.121.98l-5.368,3.1A1.884,1.884,0,0,1,437.6,265.235Z" fill="#2c3964"/>
        <path id="Path_23673" data-name="Path 23673" d="M453.884,255.832l-9.975-5.759c-.435-.251-.381-.69.122-.98l5.367-3.1a1.887,1.887,0,0,1,1.7-.071l9.975,5.76c.435.251.381.689-.122.979l-5.367,3.1A1.886,1.886,0,0,1,453.884,255.832Z" fill="#2c3964"/>
        <path id="Path_23674" data-name="Path 23674" d="M370.456,217.067l-5.417-3.127c-.435-.251-.381-.69.122-.98l5.367-3.1a1.887,1.887,0,0,1,1.7-.071l5.416,3.128c.435.251.381.689-.122.979l-5.367,3.1A1.884,1.884,0,0,1,370.456,217.067Z" fill="#2c3964"/>
        <path id="Path_23675" data-name="Path 23675" d="M361.882,212.117l-5.416-3.127c-.435-.251-.381-.69.121-.98l5.368-3.1a1.885,1.885,0,0,1,1.7-.071l5.417,3.128c.435.251.38.69-.122.979l-5.367,3.1A1.883,1.883,0,0,1,361.882,212.117Z" fill="#2c3964"/>
        <path id="Path_23676" data-name="Path 23676" d="M353.309,207.168l-5.417-3.128c-.435-.251-.38-.689.122-.979l5.367-3.1a1.886,1.886,0,0,1,1.7-.07l5.417,3.127c.435.251.38.69-.122.98l-5.367,3.1A1.887,1.887,0,0,1,353.309,207.168Z" fill="#2c3964"/>
        <path id="Path_23677" data-name="Path 23677" d="M344.736,202.218l-5.417-3.127c-.435-.251-.38-.69.122-.98l5.367-3.1a1.886,1.886,0,0,1,1.7-.07l5.417,3.127c.435.251.38.69-.122.98l-5.367,3.1A1.886,1.886,0,0,1,344.736,202.218Z" fill="#2c3964"/>
        <path id="Path_23678" data-name="Path 23678" d="M378.821,221.9l-5.417-3.128c-.435-.251-.38-.689.122-.979l5.367-3.1a1.886,1.886,0,0,1,1.7-.07l5.416,3.127c.435.251.381.69-.121.98l-5.368,3.1A1.885,1.885,0,0,1,378.821,221.9Z" fill="#2c3964"/>
        <path id="Path_23679" data-name="Path 23679" d="M387.186,226.726l-5.417-3.127c-.435-.251-.38-.69.122-.98l5.367-3.1a1.887,1.887,0,0,1,1.7-.071l5.417,3.128c.434.251.38.689-.122.979l-5.367,3.1A1.883,1.883,0,0,1,387.186,226.726Z" fill="#2c3964"/>
        <path id="Path_23680" data-name="Path 23680" d="M395.551,231.556l-5.417-3.127c-.435-.251-.38-.69.122-.98l5.367-3.1a1.886,1.886,0,0,1,1.7-.07l5.417,3.127c.435.251.38.69-.122.98l-5.367,3.1A1.886,1.886,0,0,1,395.551,231.556Z" fill="#2c3964"/>
        <path id="Path_23681" data-name="Path 23681" d="M403.916,236.386l-5.417-3.128c-.435-.251-.38-.689.122-.979l5.367-3.1a1.883,1.883,0,0,1,1.7-.07l5.417,3.127c.435.251.38.69-.122.98l-5.367,3.1A1.887,1.887,0,0,1,403.916,236.386Z" fill="#2c3964"/>
        <path id="Path_23682" data-name="Path 23682" d="M412.281,241.215l-5.417-3.127c-.435-.251-.38-.69.122-.98l5.367-3.1a1.89,1.89,0,0,1,1.7-.07l5.417,3.128c.435.251.38.689-.122.979l-5.367,3.1A1.886,1.886,0,0,1,412.281,241.215Z" fill="#2c3964"/>
        <path id="Path_23683" data-name="Path 23683" d="M420.646,246.045l-5.417-3.128c-.434-.251-.38-.689.122-.979l5.367-3.1a1.887,1.887,0,0,1,1.7-.07l5.417,3.127c.435.251.38.69-.122.98l-5.367,3.1A1.887,1.887,0,0,1,420.646,246.045Z" fill="#2c3964"/>
        <path id="Path_23684" data-name="Path 23684" d="M429.011,250.874l-5.416-3.127c-.435-.251-.381-.69.121-.98l5.367-3.1a1.887,1.887,0,0,1,1.7-.071l5.417,3.128c.435.251.38.689-.122.979l-5.367,3.1A1.886,1.886,0,0,1,429.011,250.874Z" fill="#2c3964"/>
        <path id="Path_23685" data-name="Path 23685" d="M437.376,255.7l-5.416-3.127c-.435-.251-.381-.69.121-.98l5.368-3.1a1.884,1.884,0,0,1,1.7-.07l5.417,3.127c.435.251.381.69-.122.98l-5.367,3.1A1.886,1.886,0,0,1,437.376,255.7Z" fill="#2c3964"/>
        <path id="Path_23686" data-name="Path 23686" d="M445.742,260.534l-5.417-3.128c-.435-.251-.381-.689.122-.979l5.367-3.1a1.881,1.881,0,0,1,1.7-.07l5.417,3.127c.435.251.381.69-.122.98l-5.367,3.1A1.885,1.885,0,0,1,445.742,260.534Z" fill="#2c3964"/>
        <path id="Path_23687" data-name="Path 23687" d="M366.051,205.122l-5.417-3.128c-.435-.251-.38-.69.122-.979l5.367-3.1a1.887,1.887,0,0,1,1.7-.071l5.417,3.128c.434.251.38.69-.122.979l-5.367,3.1A1.887,1.887,0,0,1,366.051,205.122Z" fill="#2c3964"/>
        <path id="Path_23688" data-name="Path 23688" d="M357.727,200.316l-5.416-3.127c-.435-.252-.381-.69.121-.98l5.367-3.1a1.886,1.886,0,0,1,1.7-.07l5.417,3.127c.435.251.38.69-.122.98l-5.367,3.1A1.886,1.886,0,0,1,357.727,200.316Z" fill="#2c3964"/>
        <path id="Path_23689" data-name="Path 23689" d="M349.4,195.51l-5.417-3.127c-.435-.251-.38-.69.122-.98l5.367-3.1a1.887,1.887,0,0,1,1.7-.071l5.417,3.128c.434.251.38.689-.122.979l-5.367,3.1A1.887,1.887,0,0,1,349.4,195.51Z" fill="#2c3964"/>
        <path id="Path_23690" data-name="Path 23690" d="M341.08,190.705l-5.416-3.128c-.435-.251-.381-.689.121-.979l5.368-3.1a1.884,1.884,0,0,1,1.7-.07l5.417,3.127c.435.251.38.69-.122.98l-5.367,3.1A1.887,1.887,0,0,1,341.08,190.705Z" fill="#2c3964"/>
        <path id="Path_23691" data-name="Path 23691" d="M349.639,185.763l-5.416-3.127c-.435-.251-.381-.69.121-.98l1.775-1.024a1.883,1.883,0,0,1,1.7-.07l5.416,3.127c.435.251.381.69-.122.98l-1.774,1.024A1.886,1.886,0,0,1,349.639,185.763Z" fill="#2c3964"/>
        <path id="Path_23692" data-name="Path 23692" d="M360.5,192.035l-5.417-3.128c-.435-.251-.381-.69.122-.98l1.774-1.024a1.886,1.886,0,0,1,1.7-.07l5.416,3.127c.435.251.381.69-.121.98l-1.775,1.024A1.885,1.885,0,0,1,360.5,192.035Z" fill="#2c3964"/>
        <path id="Path_23693" data-name="Path 23693" d="M368.79,196.82l-5.416-3.127c-.435-.251-.381-.69.121-.98l1.775-1.024a1.885,1.885,0,0,1,1.7-.071l5.417,3.128c.435.251.381.689-.122.979l-1.774,1.025A1.886,1.886,0,0,1,368.79,196.82Z" fill="#2c3964"/>
        <path id="Path_23694" data-name="Path 23694" d="M377.079,201.606l-5.417-3.128c-.434-.251-.38-.689.122-.979l1.774-1.025a1.886,1.886,0,0,1,1.7-.07l5.417,3.127c.435.251.38.69-.122.98l-1.774,1.024A1.887,1.887,0,0,1,377.079,201.606Z" fill="#2c3964"/>
        <path id="Path_23695" data-name="Path 23695" d="M385.368,206.391l-5.417-3.127c-.435-.251-.38-.69.122-.98l1.774-1.024a1.887,1.887,0,0,1,1.7-.071l5.417,3.128c.435.251.38.69-.122.979l-1.774,1.025A1.886,1.886,0,0,1,385.368,206.391Z" fill="#2c3964"/>
        <path id="Path_23696" data-name="Path 23696" d="M431.643,233.108l-5.417-3.127c-.435-.251-.38-.69.122-.98l1.774-1.024a1.887,1.887,0,0,1,1.7-.071l5.417,3.128c.435.251.38.689-.122.979l-1.774,1.025A1.886,1.886,0,0,1,431.643,233.108Z" fill="#2c3964"/>
        <path id="Path_23697" data-name="Path 23697" d="M439.932,237.894l-5.417-3.128c-.435-.251-.38-.689.122-.979l1.774-1.025a1.886,1.886,0,0,1,1.7-.07l5.417,3.127c.435.251.38.69-.122.98l-1.774,1.024A1.887,1.887,0,0,1,439.932,237.894Z" fill="#2c3964"/>
        <path id="Path_23698" data-name="Path 23698" d="M448.221,242.679l-5.417-3.127c-.435-.251-.38-.69.122-.98l1.774-1.024a1.887,1.887,0,0,1,1.7-.071l5.417,3.128c.435.251.38.69-.122.979l-1.774,1.025A1.886,1.886,0,0,1,448.221,242.679Z" fill="#2c3964"/>
        <path id="Path_23699" data-name="Path 23699" d="M456.51,247.465l-5.417-3.128c-.435-.251-.381-.689.122-.979l1.774-1.025a1.886,1.886,0,0,1,1.7-.07l5.416,3.127c.435.251.381.69-.121.98l-1.775,1.024A1.885,1.885,0,0,1,456.51,247.465Z" fill="#2c3964"/>
        <path id="Path_23700" data-name="Path 23700" d="M374.416,209.951,369,206.824c-.435-.251-.38-.69.122-.98l5.367-3.1a1.886,1.886,0,0,1,1.7-.07L381.6,205.8c.435.252.38.69-.122.98l-5.367,3.1A1.886,1.886,0,0,1,374.416,209.951Z" fill="#2c3964"/>
        <path id="Path_23701" data-name="Path 23701" d="M382.781,214.781l-5.417-3.128c-.435-.251-.38-.689.122-.979l5.367-3.1a1.886,1.886,0,0,1,1.7-.07l5.417,3.127c.435.251.38.69-.122.98l-5.367,3.1A1.887,1.887,0,0,1,382.781,214.781Z" fill="#2c3964"/>
        <path id="Path_23702" data-name="Path 23702" d="M391.146,219.61l-5.417-3.127c-.435-.251-.38-.69.122-.98l5.367-3.1a1.887,1.887,0,0,1,1.7-.071l5.417,3.128c.435.251.38.689-.122.979l-5.367,3.1A1.886,1.886,0,0,1,391.146,219.61Z" fill="#2c3964"/>
        <path id="Path_23703" data-name="Path 23703" d="M399.511,224.44l-5.417-3.127c-.434-.252-.38-.69.122-.98l5.367-3.1a1.886,1.886,0,0,1,1.7-.07l5.417,3.127c.435.251.38.69-.122.98l-5.367,3.1A1.886,1.886,0,0,1,399.511,224.44Z" fill="#2c3964"/>
        <path id="Path_23704" data-name="Path 23704" d="M407.876,229.27l-5.416-3.128c-.435-.251-.381-.69.121-.98l5.368-3.1a1.885,1.885,0,0,1,1.7-.071l5.417,3.128c.435.251.38.69-.122.979l-5.367,3.1A1.887,1.887,0,0,1,407.876,229.27Z" fill="#2c3964"/>
        <path id="Path_23705" data-name="Path 23705" d="M416.241,234.1l-5.416-3.127c-.435-.251-.381-.69.122-.98l5.367-3.1a1.884,1.884,0,0,1,1.7-.07l5.417,3.127c.435.252.381.69-.122.98l-5.367,3.1A1.886,1.886,0,0,1,416.241,234.1Z" fill="#2c3964"/>
        <path id="Path_23706" data-name="Path 23706" d="M424.607,238.929,419.19,235.8c-.435-.251-.381-.689.122-.979l5.367-3.1a1.886,1.886,0,0,1,1.7-.07l5.416,3.127c.435.251.381.69-.122.98l-5.367,3.1A1.885,1.885,0,0,1,424.607,238.929Z" fill="#2c3964"/>
        <path id="Path_23707" data-name="Path 23707" d="M432.972,243.758l-5.417-3.127c-.435-.251-.38-.69.122-.98l5.367-3.1a1.887,1.887,0,0,1,1.7-.071l5.416,3.128c.435.251.381.689-.121.979l-5.368,3.1A1.884,1.884,0,0,1,432.972,243.758Z" fill="#2c3964"/>
        <path id="Path_23708" data-name="Path 23708" d="M441.337,248.588l-5.417-3.127c-.435-.252-.38-.69.122-.98l5.367-3.1a1.886,1.886,0,0,1,1.7-.07l5.416,3.127c.435.251.381.69-.121.98l-5.367,3.1A1.89,1.89,0,0,1,441.337,248.588Z" fill="#2c3964"/>
        <path id="Path_23709" data-name="Path 23709" d="M326.591,210.547l-15.953-9.21c-.435-.251-.38-.69.122-.98l5.367-3.1a1.887,1.887,0,0,1,1.7-.071l15.953,9.211c.435.251.38.689-.122.979l-5.367,3.1A1.886,1.886,0,0,1,326.591,210.547Z" fill="#2c3964"/>
        <path id="Path_23710" data-name="Path 23710" d="M429.359,269.88l-15.953-9.21c-.435-.251-.381-.69.122-.98l5.367-3.1a1.884,1.884,0,0,1,1.7-.07l15.953,9.21c.435.252.381.69-.122.98l-5.367,3.1A1.884,1.884,0,0,1,429.359,269.88Z" fill="#2c3964"/>
        <path id="Path_23711" data-name="Path 23711" d="M395.9,261.234l-5.416-3.127c-.435-.251-.381-.69.121-.98L397,253.436a1.887,1.887,0,0,1,1.7-.071l5.417,3.128c.435.251.38.689-.122.979l-6.394,3.692A1.886,1.886,0,0,1,395.9,261.234Z" fill="#2c3964"/>
        <path id="Path_23712" data-name="Path 23712" d="M335.158,226.161l-8.663-5c-.435-.251-.381-.69.122-.98l6.393-3.691a1.887,1.887,0,0,1,1.7-.071l8.663,5c.435.251.38.69-.122.98l-6.393,3.691A1.887,1.887,0,0,1,335.158,226.161Z" fill="#2c3964"/>
        <path id="Path_23713" data-name="Path 23713" d="M387.845,256.581l-8.662-5c-.435-.251-.381-.69.121-.98l6.394-3.691a1.886,1.886,0,0,1,1.7-.07l8.663,5c.435.251.38.69-.122.98l-6.394,3.691A1.887,1.887,0,0,1,387.845,256.581Z" fill="#2c3964"/>
        <path id="Path_23714" data-name="Path 23714" d="M347.227,233.129l-8.663-5c-.435-.251-.38-.69.122-.98l6.393-3.691a1.883,1.883,0,0,1,1.7-.07l8.663,5c.435.251.38.69-.122.98l-6.393,3.691A1.883,1.883,0,0,1,347.227,233.129Z" fill="#2c3964"/>
        <path id="Path_23715" data-name="Path 23715" d="M346.835,223.42,384.5,245.166a.516.516,0,0,1,0,.977l-6.52,3.764a1.87,1.87,0,0,1-1.693,0l-37.663-21.745Z" fill="#2c3964"/>
        <path id="Path_23716" data-name="Path 23716" d="M419.284,269.991l6.034,3.483c.357.206.312.565-.1.8l-2.615,1.51a1.545,1.545,0,0,1-1.391.058l-6.034-3.484c-.356-.206-.311-.565.1-.8l2.616-1.51A1.545,1.545,0,0,1,419.284,269.991Z" fill="#396caa"/>
        <path id="Path_23717" data-name="Path 23717" d="M410.85,265.121l6.034,3.483c.356.206.312.566-.1.8l-2.616,1.51a1.543,1.543,0,0,1-1.39.058l-6.034-3.483c-.357-.206-.312-.566.1-.8l2.615-1.51A1.545,1.545,0,0,1,410.85,265.121Z" fill="#396caa"/>
        <path id="Path_23718" data-name="Path 23718" d="M402.485,260.291l6.034,3.484c.356.206.311.565-.1.8l-2.616,1.51a1.548,1.548,0,0,1-1.391.058l-6.033-3.484c-.357-.206-.312-.565.1-.8l2.615-1.51A1.545,1.545,0,0,1,402.485,260.291Z" fill="#396caa"/>
        <path id="Path_23719" data-name="Path 23719" d="M415.469,262.454l6.034,3.483c.357.206.312.566-.1.8l-2.615,1.51a1.545,1.545,0,0,1-1.391.058l-6.034-3.483c-.356-.206-.312-.566.1-.8l2.616-1.51A1.542,1.542,0,0,1,415.469,262.454Z" fill="#396caa"/>
      </g>
      <g id="Group_711" data-name="Group 711">
        <path id="Path_23720" data-name="Path 23720" d="M448.513,168.216,403.454,142.2l.58-2.929,45.059,26.015Z" fill="#d4ecff"/>
        <path id="Path_23721" data-name="Path 23721" d="M432.375,173.158,400.922,155l.58-2.929,31.453,18.16Z" fill="#d4ecff"/>
        <path id="Path_23722" data-name="Path 23722" d="M429.4,164.31,402.188,148.6l.58-2.929,27.211,15.71Z" fill="#fff"/>
        <path id="Path_23723" data-name="Path 23723" d="M447.246,174.615l-13.605-7.855.58-2.929,13.605,7.855Z" fill="#feac00"/>
        <path id="Path_23724" data-name="Path 23724" d="M398.656,116.644l-13.605-7.855.58-2.929,13.605,7.855Z" fill="#d4ecff"/>
        <path id="Path_23725" data-name="Path 23725" d="M397.179,123.452,383.574,115.6l.58-2.929,13.605,7.855Z" fill="#fff"/>
        <path id="Path_23726" data-name="Path 23726" d="M463.956,217.875l-13.605-7.855.58-2.929,13.605,7.855Z" fill="#d4ecff"/>
        <path id="Path_23727" data-name="Path 23727" d="M394.227,137.067l-13.605-7.855.58-2.929,13.605,7.855Z" fill="#d4ecff"/>
      </g>
      <g id="Group_712" data-name="Group 712">
        <path id="Path_23728" data-name="Path 23728" d="M423.623,139.176a1.7,1.7,0,0,1-2.446.753,2.128,2.128,0,0,1-.876-2.671,1.7,1.7,0,0,1,2.446-.754A2.13,2.13,0,0,1,423.623,139.176Z" fill="#feac00"/>
        <path id="Path_23729" data-name="Path 23729" d="M429.483,142.559a1.7,1.7,0,0,1-2.446.754,2.13,2.13,0,0,1-.876-2.672,1.7,1.7,0,0,1,2.446-.753A2.127,2.127,0,0,1,429.483,142.559Z" fill="#fff"/>
        <path id="Path_23730" data-name="Path 23730" d="M435.343,145.943a1.7,1.7,0,0,1-2.446.753,2.131,2.131,0,0,1-.876-2.672,1.7,1.7,0,0,1,2.446-.753A2.129,2.129,0,0,1,435.343,145.943Z" fill="#d4ecff"/>
        <path id="Path_23731" data-name="Path 23731" d="M441.2,149.326a1.7,1.7,0,0,1-2.447.753,2.129,2.129,0,0,1-.876-2.671,1.7,1.7,0,0,1,2.446-.754A2.13,2.13,0,0,1,441.2,149.326Z" fill="#feac00"/>
      </g>
      <path id="Path_23732" data-name="Path 23732" d="M341.452,268.847,307.38,249.175c-.992-.572-.868-1.573.277-2.234l20.562-11.871a4.3,4.3,0,0,1,3.87-.161l34.073,19.672c.992.573.867,1.573-.278,2.234l-20.562,11.872A4.3,4.3,0,0,1,341.452,268.847Z" fill="#fff"/>
    </g>
    <g id="Group_718" data-name="Group 718">
      <g id="Group_717" data-name="Group 717">
        <g id="Group_716" data-name="Group 716">
          <g id="Group_714" data-name="Group 714">
            <rect id="Rectangle_749" data-name="Rectangle 749" width="6.505" height="14.037" transform="translate(317.152 184.388) rotate(129.2)" fill="#81e6ff"/>
            <path id="Path_23733" data-name="Path 23733" d="M314.672,189.53a5.086,5.086,0,0,0,2.907-3.564c.234-1.448-.687-2.2-2.058-1.679a5.083,5.083,0,0,0-2.907,3.565C312.379,189.3,313.3,190.051,314.672,189.53Z" fill="#62adbf"/>
          </g>
          <g id="Group_715" data-name="Group 715">
            <rect id="Rectangle_750" data-name="Rectangle 750" width="10.541" height="14.338" transform="translate(309.449 175.503) rotate(129.199)" fill="#81e6ff"/>
            <path id="Path_23734" data-name="Path 23734" d="M308.063,176.976l3.682,3a8.412,8.412,0,0,1-4.112,5.041l-3.681-3A8.417,8.417,0,0,1,308.063,176.976Z" fill="#396caa"/>
            <path id="Path_23735" data-name="Path 23735" d="M305.431,183.835a8.238,8.238,0,0,0,4.71-5.776c.38-2.346-1.113-3.564-3.334-2.72a8.237,8.237,0,0,0-4.711,5.776C301.716,183.461,303.209,184.679,305.431,183.835Z" fill="#62adbf"/>
            <path id="Path_23736" data-name="Path 23736" d="M294.315,174.769a8.235,8.235,0,0,0,4.711-5.776c.38-2.346-1.113-3.563-3.335-2.719a8.233,8.233,0,0,0-4.71,5.776C290.6,174.4,292.094,175.613,294.315,174.769Z" fill="#62adbf"/>
            <path id="Path_23737" data-name="Path 23737" d="M294.614,172.925a4.662,4.662,0,0,0,2.665-3.268c.215-1.327-.63-2.016-1.887-1.538a4.659,4.659,0,0,0-2.664,3.267C292.513,172.713,293.357,173.4,294.614,172.925Z" fill="#d4ecff"/>
          </g>
        </g>
      </g>
      <path id="Path_23738" data-name="Path 23738" d="M314.7,185.4c.533.435,1.054.237,1.164-.442a2.384,2.384,0,0,0-.766-2.017c-.533-.435-1.054-.237-1.164.442A2.382,2.382,0,0,0,314.7,185.4Z" fill="#d4ecff"/>
    </g>
    <path id="Path_23739" data-name="Path 23739" d="M204.048,296.12a10.974,10.974,0,0,1-5.675-1.6l-7.7-4.558a.87.87,0,0,1,.887-1.5l7.7,4.561a9.267,9.267,0,0,0,14.026-8.6l-.164-2.322c-2.7-38-7.734-108.729,22.076-116.358a232.291,232.291,0,0,0,22.432-6.981c15.3-5.475,16.347-5.173,37.436,10.753a.869.869,0,1,1-1.047,1.387c-20.948-15.819-21.226-15.722-35.8-10.5a233.742,233.742,0,0,1-22.586,7.027c-28.4,7.27-23.441,77.059-20.774,114.552l.165,2.322a10.835,10.835,0,0,1-5.225,10.163A10.962,10.962,0,0,1,204.048,296.12Z" fill="#feac00"/>
    <g id="Group_720" data-name="Group 720">
      <ellipse id="Ellipse_53" data-name="Ellipse 53" cx="28.199" cy="16.281" rx="28.199" ry="16.281" transform="translate(234.324 277.653)" fill="#173d7a" opacity="0.05"/>
      <g id="Group_719" data-name="Group 719">
        <path id="Path_23740" data-name="Path 23740" d="M275.976,286.957a4.354,4.354,0,0,1,2.456,4.352,7.333,7.333,0,0,1-.358,2.128c-.505,1.061-2.162,2.517-4.806,1.472s-8.515-6.562-8.735-10.173C264.124,278.028,271.794,285.171,275.976,286.957Z" fill="#2c3964"/>
        <path id="Path_23741" data-name="Path 23741" d="M260.442,298.052s.635,3.868.326,4.577-2.148,2.221-4.866,1.894-10.539-3.024-12.281-8.178c-2.7-7.991,15.1.6,15.1.6Z" fill="#2c3964"/>
        <path id="Path_23742" data-name="Path 23742" d="M252.8,236.224l-.6,60.376a4.229,4.229,0,0,0,3.289,4.186c.228.038.473.07.735.093a3.763,3.763,0,0,0,3.587-1.484,4.437,4.437,0,0,0,.807-2.438l.771-25.773,3.848-23.045,5.323,40.786a3.527,3.527,0,0,0,1.463,2.685,4.076,4.076,0,0,0,2.427.658,4.463,4.463,0,0,0,3.228-1.589,3.236,3.236,0,0,0,.77-2.184l-2.11-24.54-.785-31.3Z" fill="#feac00"/>
        <path id="Path_23743" data-name="Path 23743" d="M260.619,182.181l.954,5.5a2.52,2.52,0,0,1-2.06,2.4c-2.1.521-2.744-.833-2.744-.833l-.948-6.2Z" fill="#ffc2b0"/>
        <path id="Path_23744" data-name="Path 23744" d="M249.432,182.346c3.5,3.487,8.849,3.779,11.944.65s2.765-8.491-.737-11.979-8.849-3.779-11.944-.65S245.93,178.858,249.432,182.346Z" fill="#ffc2b0"/>
        <path id="Path_23745" data-name="Path 23745" d="M260.369,187.783c.146-.059,8.893-5.691,12.126.2,5.272,9.61,4.962,40.545,3.3,44.552-1.541,3.709-5.388,6.443-8.083,7.983a16.141,16.141,0,0,1-7.846,2.232c-2.734.022-7.975-2.408-7.785-5.981.875-16.435-.578-30.288-1.92-43.729C250.158,193.043,251.836,191.238,260.369,187.783Z" fill="#488eff"/>
        <path id="Path_23746" data-name="Path 23746" d="M265.232,248.139l5.323,40.786a3.527,3.527,0,0,0,1.463,2.685,3.94,3.94,0,0,0,.455.257c-1.1-.829-4.332-35.063-4.929-38.87S265.232,248.139,265.232,248.139Z" fill="#bec140"/>
      </g>
      <path id="Path_23747" data-name="Path 23747" d="M232.4,189.6l-4.753-15.567,2.51-1.041,5.6,12.2Z" fill="#ffc2b0"/>
      <path id="Path_23748" data-name="Path 23748" d="M280.311,177.328l-3.563-16.207-2.837.031,1.066,13.441Z" fill="#ffc2b0"/>
      <path id="Path_23749" data-name="Path 23749" d="M250.158,193.043s-8.539,1.7-13.969-8.239a1.35,1.35,0,0,0-2.253-.237c-.871,1.326-2.025,3.358-1.427,5.555,2.644,9.717,17,11.865,19.578,17.5S250.158,193.043,250.158,193.043Z" fill="#488eff"/>
      <path id="Path_23750" data-name="Path 23750" d="M265.918,185.763s6.762.52,7.736-5.334a44.762,44.762,0,0,0,.68-5.851,1.181,1.181,0,0,1,1.326-1.148c1.619.2,4.127.684,4.467,1.77.508,1.621,1.463,9.57-5.217,21.766C270.534,204.957,265.918,185.763,265.918,185.763Z" fill="#488eff"/>
      <path id="Path_23751" data-name="Path 23751" d="M276.762,161.161l-.064-1.848a3.8,3.8,0,0,0-.553-1.846l-1.873-3.077-.488-.615a1.423,1.423,0,0,0-1.873-.32l-.43.271a1.767,1.767,0,0,0-.824,1.611l.969,2.63-1.226-.238a.436.436,0,0,0-.511.35h0a.437.437,0,0,0,.266.481l2,.807,1.817,2.572Z" fill="#ffc2b0"/>
      <path id="Path_23752" data-name="Path 23752" d="M227.577,174.112l-.567-1.76a3.807,3.807,0,0,1-.107-1.924l.717-3.53.251-.745a1.422,1.422,0,0,1,1.652-.937l.5.109a1.766,1.766,0,0,1,1.322,1.236l-.018,2.8,1.072-.639a.434.434,0,0,1,.6.155h0a.436.436,0,0,1-.086.542L231.3,170.86l-.94,3.413Z" fill="#ffc2b0"/>
      <path id="Path_23753" data-name="Path 23753" d="M254.158,204.818c.779,3.551-1.4,31.112,5.705,37.935-2.734.022-7.975-2.408-7.784-5.981a218.471,218.471,0,0,0-.653-30.223c-2.788-3.612-10.459-5.913-15.259-10.546C236.518,196.111,253.387,201.3,254.158,204.818Z" fill="#396caa"/>
      <path id="Path_23754" data-name="Path 23754" d="M263.515,186.229l-1.215-1.248s-2,2.042-3.6,2.4a18.739,18.739,0,0,1-2.876.594l-.781,2.156S261.4,189.671,263.515,186.229Z" fill="#fff"/>
      <path id="Path_23755" data-name="Path 23755" d="M254.556,179.832a1.026,1.026,0,0,1-.943,0c-.517-.272-1.355-2.329-2.431-2.178-1.682.235-4.117,3.767-7.15-1.159-1.576-2.56-.651-3.943-1.418-5.4,0,0,.27.789,6.871-3.24s12,.881,13.673,3.689,2.76,8.3-1.573,11.392c-.718.513-5.342-.4-5.437-.79s1.144-1.01.444-1.917A1.452,1.452,0,0,0,254.556,179.832Z" fill="#173d7a"/>
    </g>
    <path id="Path_23756" data-name="Path 23756" d="M192.685,291.007a.869.869,0,0,1-.442-.121l-46.49-27.532a.869.869,0,0,1,.885-1.5l46.491,27.531a.87.87,0,0,1-.444,1.618Z" fill="#feac00"/>
    <g id="Group_740" data-name="Group 740">
      <g id="Group_732" data-name="Group 732">
        <g id="Group_723" data-name="Group 723">
          <path id="Path_23757" data-name="Path 23757" d="M95.7,250.27h0V124.557l49.976-13.08,9.206-5.315c2.113-1.22,5.8-1.067,8.242.342l8.589,4.958,26.656-.014-7.893,121.358a2.39,2.39,0,0,1-1.416,2.208l-49.873,37.632c-2.113,1.22-5.8,1.067-8.243-.342L97.707,253.115C96.3,252.3,95.621,251.25,95.7,250.27Z" fill="#d4e6ff"/>
          <path id="Path_23758" data-name="Path 23758" d="M158.706,105.345a9.508,9.508,0,0,1,4.418,1.159l8.589,4.958,26.656-.014V237.5a2.389,2.389,0,0,1-1.415,2.208l-57.767,32.939a7.465,7.465,0,0,1-3.826.817l-.595-126.838Z" fill="#d4ecff"/>
          <path id="Path_23759" data-name="Path 23759" d="M138.656,272.906a9.39,9.39,0,0,1-6.588-.076v-127.7h6.588Z" fill="#2c3964"/>
          <path id="Path_23760" data-name="Path 23760" d="M139.187,146.639,196.954,113.7c2.112-1.22,1.847-3.35-.592-4.759L163.124,89.752c-2.439-1.409-6.129-1.562-8.242-.342L97.115,122.349c-2.113,1.22-1.848,3.35.592,4.759l33.237,19.19C133.384,147.706,137.074,147.859,139.187,146.639Z" fill="#d4e6ff"/>
          <path id="Path_23761" data-name="Path 23761" d="M97.707,124.77l33.237,19.19c2.44,1.409,6.13,1.562,8.243.342l57.767-32.939a3.18,3.18,0,0,0,1.054-.936c.726,1.168.4,2.435-1.054,3.273l-57.767,32.939c-2.113,1.22-5.8,1.067-8.243-.341l-33.237-19.19c-1.9-1.1-2.472-2.623-1.646-3.824A4.6,4.6,0,0,0,97.707,124.77Z" fill="#fafdff"/>
          <g id="Group_722" data-name="Group 722">
            <path id="Path_23762" data-name="Path 23762" d="M137.553,133.289,176.012,111c.989-.57.865-1.567-.276-2.226l-15.554-8.98a4.286,4.286,0,0,0-3.857-.16l-38.46,22.294c-.989.571-.865,1.568.277,2.227l15.554,8.98A4.286,4.286,0,0,0,137.553,133.289Z" fill="#244780"/>
            <g id="Group_721" data-name="Group 721">
              <path id="Path_23763" data-name="Path 23763" d="M158.316,112l2.228-1.287c.137-.079.12-.217-.038-.308l-2.152-1.242a.589.589,0,0,0-.533-.023l-2.229,1.287c-.137.079-.12.217.038.308l2.152,1.243A.594.594,0,0,0,158.316,112Z" fill="#d4ecff"/>
              <path id="Path_23764" data-name="Path 23764" d="M150.87,116.278l2.229-1.287c.137-.079.12-.217-.038-.308l-2.152-1.242a.591.591,0,0,0-.534-.022l-2.229,1.286c-.136.079-.119.217.039.308l2.152,1.243A.592.592,0,0,0,150.87,116.278Z" fill="#feac00"/>
              <path id="Path_23765" data-name="Path 23765" d="M143.425,120.559l2.229-1.287c.136-.079.119-.217-.039-.308l-2.152-1.242a.592.592,0,0,0-.533-.022l-2.229,1.286c-.137.079-.12.217.038.308l2.152,1.243A.594.594,0,0,0,143.425,120.559Z" fill="#d4ecff"/>
              <path id="Path_23766" data-name="Path 23766" d="M135.979,124.84l2.229-1.287c.137-.079.12-.216-.038-.308L136.018,122a.594.594,0,0,0-.534-.022l-2.228,1.287c-.137.079-.12.216.038.308l2.152,1.242A.592.592,0,0,0,135.979,124.84Z" fill="#d4ecff"/>
            </g>
            <path id="Path_23767" data-name="Path 23767" d="M176.012,111l-.045.027a2.749,2.749,0,0,0-.231-.159l-15.554-8.98a4.286,4.286,0,0,0-3.857-.16l-38.414,22.268c-.912-.653-.959-1.541-.046-2.068l38.46-22.294a4.286,4.286,0,0,1,3.857.16l15.554,8.98C176.877,109.428,177,110.425,176.012,111Z" fill="#5793ce"/>
          </g>
        </g>
        <g id="Group_725" data-name="Group 725">
          <path id="Path_23768" data-name="Path 23768" d="M124.454,171.546l-21.867-12.52a5.339,5.339,0,0,1-2.228-4.257v-7.82c0-1.641,1-2.4,2.228-1.685l21.867,12.52a5.338,5.338,0,0,1,2.229,4.258v7.82C126.683,171.5,125.685,172.256,124.454,171.546Z" fill="#244780"/>
          <path id="Path_23769" data-name="Path 23769" d="M101.5,145.029a2.183,2.183,0,0,0-.559,1.627v7.82a5.336,5.336,0,0,0,2.228,4.257l21.867,12.52a1.6,1.6,0,0,0,1.082.235,1.33,1.33,0,0,1-1.669.058l-21.867-12.52a5.339,5.339,0,0,1-2.228-4.257v-7.82C100.359,145.835,100.825,145.144,101.5,145.029Z" fill="#fff"/>
          <g id="Group_724" data-name="Group 724">
            <path id="Path_23770" data-name="Path 23770" d="M117.878,163.051l-2.006-1.158a1.161,1.161,0,0,1-.486-.928v-2.143c0-.357.217-.522.486-.367l2.006,1.158a1.164,1.164,0,0,1,.485.928v2.143C118.363,163.042,118.146,163.206,117.878,163.051Z" fill="#62adbf"/>
            <path id="Path_23771" data-name="Path 23771" d="M111.17,159.179l-2.006-1.158a1.164,1.164,0,0,1-.485-.928V154.95c0-.358.217-.522.485-.367l2.006,1.158a1.161,1.161,0,0,1,.486.928v2.143C111.656,159.169,111.439,159.333,111.17,159.179Z" fill="#fff"/>
          </g>
        </g>
        <g id="Group_727" data-name="Group 727">
          <path id="Path_23772" data-name="Path 23772" d="M124.454,228.054l-21.867-12.52a5.339,5.339,0,0,1-2.228-4.257v-7.82c0-1.641,1-2.4,2.228-1.685l21.867,12.52a5.337,5.337,0,0,1,2.229,4.258v7.819C126.683,228.01,125.685,228.764,124.454,228.054Z" fill="#244780"/>
          <path id="Path_23773" data-name="Path 23773" d="M101.5,201.537a2.182,2.182,0,0,0-.559,1.626v7.82a5.337,5.337,0,0,0,2.228,4.258l21.867,12.52a1.6,1.6,0,0,0,1.082.235,1.33,1.33,0,0,1-1.669.058l-21.867-12.52a5.339,5.339,0,0,1-2.228-4.257v-7.82C100.359,202.343,100.825,201.652,101.5,201.537Z" fill="#fff"/>
          <g id="Group_726" data-name="Group 726">
            <path id="Path_23774" data-name="Path 23774" d="M117.878,219.559l-2.006-1.158a1.161,1.161,0,0,1-.486-.928V215.33c0-.357.217-.522.486-.367l2.006,1.158a1.164,1.164,0,0,1,.485.928v2.143C118.363,219.549,118.146,219.714,117.878,219.559Z" fill="#feac00"/>
            <path id="Path_23775" data-name="Path 23775" d="M111.17,215.687l-2.006-1.159a1.161,1.161,0,0,1-.485-.927v-2.143c0-.358.217-.522.485-.367l2.006,1.158a1.161,1.161,0,0,1,.486.928v2.142C111.656,215.677,111.439,215.841,111.17,215.687Z" fill="#fff"/>
          </g>
        </g>
        <g id="Group_729" data-name="Group 729">
          <path id="Path_23776" data-name="Path 23776" d="M124.454,256.308l-21.867-12.52a5.339,5.339,0,0,1-2.228-4.257v-7.82c0-1.641,1-2.4,2.228-1.685l21.867,12.52a5.337,5.337,0,0,1,2.229,4.257v7.82C126.683,256.264,125.685,257.018,124.454,256.308Z" fill="#244780"/>
          <path id="Path_23777" data-name="Path 23777" d="M101.5,229.791a2.18,2.18,0,0,0-.559,1.626v7.82a5.333,5.333,0,0,0,2.228,4.257l21.867,12.521a1.6,1.6,0,0,0,1.082.235,1.33,1.33,0,0,1-1.669.058l-21.867-12.52a5.339,5.339,0,0,1-2.228-4.257v-7.82C100.359,230.6,100.825,229.906,101.5,229.791Z" fill="#fff"/>
          <g id="Group_728" data-name="Group 728">
            <path id="Path_23778" data-name="Path 23778" d="M117.878,247.813l-2.006-1.158a1.161,1.161,0,0,1-.486-.928v-2.143c0-.357.217-.522.486-.367l2.006,1.158a1.164,1.164,0,0,1,.485.928v2.143C118.363,247.8,118.146,247.968,117.878,247.813Z" fill="#62adbf"/>
            <path id="Path_23779" data-name="Path 23779" d="M111.17,243.941l-2.006-1.159a1.161,1.161,0,0,1-.485-.928v-2.142c0-.358.217-.522.485-.367l2.006,1.158a1.161,1.161,0,0,1,.486.928v2.142C111.656,243.931,111.439,244.1,111.17,243.941Z" fill="#fff"/>
          </g>
        </g>
        <g id="Group_731" data-name="Group 731">
          <path id="Path_23780" data-name="Path 23780" d="M124.454,199.8l-21.867-12.52a5.339,5.339,0,0,1-2.228-4.257V175.2c0-1.641,1-2.4,2.228-1.685l21.867,12.52a5.338,5.338,0,0,1,2.229,4.258v7.819C126.683,199.756,125.685,200.51,124.454,199.8Z" fill="#244780"/>
          <path id="Path_23781" data-name="Path 23781" d="M101.5,173.283a2.183,2.183,0,0,0-.559,1.627v7.819a5.337,5.337,0,0,0,2.228,4.258l21.867,12.52a1.6,1.6,0,0,0,1.082.235,1.33,1.33,0,0,1-1.669.058l-21.867-12.52a5.339,5.339,0,0,1-2.228-4.257V175.2C100.359,174.089,100.825,173.4,101.5,173.283Z" fill="#fff"/>
          <g id="Group_730" data-name="Group 730">
            <path id="Path_23782" data-name="Path 23782" d="M117.878,191.3l-2.006-1.158a1.161,1.161,0,0,1-.486-.928v-2.143c0-.357.217-.522.486-.367l2.006,1.158a1.164,1.164,0,0,1,.485.928v2.143C118.363,191.3,118.146,191.46,117.878,191.3Z" fill="#62adbf"/>
            <path id="Path_23783" data-name="Path 23783" d="M111.17,187.433l-2.006-1.159a1.161,1.161,0,0,1-.485-.927V183.2c0-.358.217-.522.485-.367l2.006,1.158a1.161,1.161,0,0,1,.486.928v2.142C111.656,187.423,111.439,187.587,111.17,187.433Z" fill="#fff"/>
          </g>
        </g>
      </g>
      <g id="Group_733" data-name="Group 733">
        <path id="Path_23784" data-name="Path 23784" d="M143.394,163.541l50.45-29.127a4.9,4.9,0,0,0,2.044-3.907v-9.619c0-1.506-.915-2.2-2.044-1.546l-50.45,29.127a4.9,4.9,0,0,0-2.044,3.907v9.619C141.35,163.5,142.265,164.193,143.394,163.541Z" fill="#244780"/>
        <path id="Path_23785" data-name="Path 23785" d="M144.843,160.168,192.4,132.713a2.487,2.487,0,0,0,1.037-1.982V123.5c0-.764-.465-1.115-1.037-.784L144.843,150.17a2.483,2.483,0,0,0-1.038,1.982v7.232C143.8,160.148,144.27,160.5,144.843,160.168Z" fill="#488eff" opacity="0.4"/>
        <path id="Path_23786" data-name="Path 23786" d="M182.486,134.779l7.1-4.1a2.409,2.409,0,0,0,1.008-1.924h0c0-.742-.451-1.083-1.008-.762l-7.1,4.1a2.409,2.409,0,0,0-1.008,1.924h0C181.478,134.759,181.929,135.1,182.486,134.779Z" fill="#d4ecff"/>
        <path id="Path_23787" data-name="Path 23787" d="M176.438,136.927c0,.742.521,1.043,1.163.672a2.57,2.57,0,0,0,1.163-2.015c0-.742-.52-1.042-1.163-.671A2.571,2.571,0,0,0,176.438,136.927Z" fill="#fff"/>
        <path id="Path_23788" data-name="Path 23788" d="M172.335,139.3c0,.742.52,1.043,1.163.672a2.572,2.572,0,0,0,1.163-2.015c0-.742-.521-1.042-1.163-.671A2.569,2.569,0,0,0,172.335,139.3Z" fill="#fff"/>
        <path id="Path_23789" data-name="Path 23789" d="M168.231,141.665c0,.742.521,1.043,1.164.672a2.572,2.572,0,0,0,1.163-2.015c0-.742-.521-1.042-1.163-.671A2.57,2.57,0,0,0,168.231,141.665Z" fill="#d4ecff"/>
        <path id="Path_23790" data-name="Path 23790" d="M164.128,144.034c0,.742.521,1.043,1.163.672a2.57,2.57,0,0,0,1.163-2.015c0-.741-.52-1.042-1.163-.671A2.572,2.572,0,0,0,164.128,144.034Z" fill="#fff"/>
        <path id="Path_23791" data-name="Path 23791" d="M146.843,156.141l2.39-1.381a1.548,1.548,0,0,0,.647-1.235V151c0-.476-.29-.7-.647-.488l-2.39,1.38a1.548,1.548,0,0,0-.647,1.235v2.529C146.2,156.128,146.486,156.347,146.843,156.141Z" fill="#fff"/>
      </g>
      <g id="Group_734" data-name="Group 734">
        <path id="Path_23792" data-name="Path 23792" d="M143.394,180.505l50.45-29.127a4.9,4.9,0,0,0,2.044-3.907v-9.62c0-1.505-.915-2.2-2.044-1.545l-50.45,29.127a4.9,4.9,0,0,0-2.044,3.906v9.62C141.35,180.465,142.265,181.157,143.394,180.505Z" fill="#244780"/>
        <path id="Path_23793" data-name="Path 23793" d="M144.843,177.132,192.4,149.677a2.487,2.487,0,0,0,1.037-1.982v-7.232c0-.764-.465-1.115-1.037-.784l-47.553,27.454a2.486,2.486,0,0,0-1.038,1.982v7.232C143.8,177.111,144.27,177.462,144.843,177.132Z" fill="#488eff" opacity="0.4"/>
        <path id="Path_23794" data-name="Path 23794" d="M182.486,151.742l7.1-4.1a2.411,2.411,0,0,0,1.008-1.925h0c0-.741-.451-1.082-1.008-.761l-7.1,4.1a2.411,2.411,0,0,0-1.008,1.925h0C181.478,151.723,181.929,152.064,182.486,151.742Z" fill="#d4ecff"/>
        <path id="Path_23795" data-name="Path 23795" d="M176.438,153.891c0,.742.521,1.042,1.163.671a2.566,2.566,0,0,0,1.163-2.014c0-.742-.52-1.043-1.163-.672A2.572,2.572,0,0,0,176.438,153.891Z" fill="#fff"/>
        <path id="Path_23796" data-name="Path 23796" d="M172.335,156.26c0,.742.52,1.042,1.163.671a2.569,2.569,0,0,0,1.163-2.014c0-.742-.521-1.043-1.163-.672A2.57,2.57,0,0,0,172.335,156.26Z" fill="#fff"/>
        <path id="Path_23797" data-name="Path 23797" d="M168.231,158.629c0,.742.521,1.042,1.164.672a2.572,2.572,0,0,0,1.163-2.015c0-.742-.521-1.042-1.163-.672A2.571,2.571,0,0,0,168.231,158.629Z" fill="#d4ecff"/>
        <path id="Path_23798" data-name="Path 23798" d="M164.128,161c0,.742.521,1.042,1.163.672a2.57,2.57,0,0,0,1.163-2.015c0-.742-.52-1.042-1.163-.672A2.572,2.572,0,0,0,164.128,161Z" fill="#fff"/>
        <path id="Path_23799" data-name="Path 23799" d="M146.843,173.1l2.39-1.38a1.548,1.548,0,0,0,.647-1.235V167.96c0-.476-.29-.7-.647-.489l-2.39,1.38a1.548,1.548,0,0,0-.647,1.235v2.53C146.2,173.092,146.486,173.31,146.843,173.1Z" fill="#fff"/>
      </g>
      <g id="Group_735" data-name="Group 735">
        <path id="Path_23800" data-name="Path 23800" d="M143.394,197.468l50.45-29.127a4.9,4.9,0,0,0,2.044-3.906v-9.62c0-1.506-.915-2.2-2.044-1.546L143.394,182.4a4.9,4.9,0,0,0-2.044,3.907v9.62C141.35,197.428,142.265,198.12,143.394,197.468Z" fill="#244780"/>
        <path id="Path_23801" data-name="Path 23801" d="M144.843,194.1,192.4,166.641a2.487,2.487,0,0,0,1.037-1.982v-7.232c0-.764-.465-1.115-1.037-.785L144.843,184.1a2.485,2.485,0,0,0-1.038,1.982v7.232C143.8,194.075,144.27,194.426,144.843,194.1Z" fill="#488eff" opacity="0.4"/>
        <path id="Path_23802" data-name="Path 23802" d="M182.486,168.706l7.1-4.1a2.411,2.411,0,0,0,1.008-1.925h0c0-.742-.451-1.082-1.008-.761l-7.1,4.1a2.411,2.411,0,0,0-1.008,1.925h0C181.478,168.686,181.929,169.027,182.486,168.706Z" fill="#d4ecff"/>
        <path id="Path_23803" data-name="Path 23803" d="M176.438,170.855c0,.741.521,1.042,1.163.671a2.569,2.569,0,0,0,1.163-2.014c0-.742-.52-1.043-1.163-.672A2.572,2.572,0,0,0,176.438,170.855Z" fill="#fff"/>
        <path id="Path_23804" data-name="Path 23804" d="M172.335,173.224c0,.741.52,1.042,1.163.671a2.572,2.572,0,0,0,1.163-2.014c0-.742-.521-1.043-1.163-.672A2.57,2.57,0,0,0,172.335,173.224Z" fill="#fff"/>
        <path id="Path_23805" data-name="Path 23805" d="M168.231,175.593c0,.741.521,1.042,1.164.671a2.572,2.572,0,0,0,1.163-2.014c0-.742-.521-1.043-1.163-.672A2.571,2.571,0,0,0,168.231,175.593Z" fill="#d4ecff"/>
        <path id="Path_23806" data-name="Path 23806" d="M164.128,177.962c0,.742.521,1.042,1.163.671a2.569,2.569,0,0,0,1.163-2.014c0-.742-.52-1.043-1.163-.672A2.572,2.572,0,0,0,164.128,177.962Z" fill="#fff"/>
        <path id="Path_23807" data-name="Path 23807" d="M146.843,190.068l2.39-1.38a1.548,1.548,0,0,0,.647-1.235v-2.529c0-.476-.29-.695-.647-.489l-2.39,1.38a1.548,1.548,0,0,0-.647,1.235v2.529C146.2,190.055,146.486,190.274,146.843,190.068Z" fill="#fff"/>
      </g>
      <g id="Group_736" data-name="Group 736">
        <path id="Path_23808" data-name="Path 23808" d="M143.394,214.432l50.45-29.127a4.9,4.9,0,0,0,2.044-3.906v-9.62c0-1.506-.915-2.2-2.044-1.546l-50.45,29.127a4.9,4.9,0,0,0-2.044,3.907v9.619C141.35,214.392,142.265,215.084,143.394,214.432Z" fill="#244780"/>
        <path id="Path_23809" data-name="Path 23809" d="M144.843,211.059,192.4,183.6a2.485,2.485,0,0,0,1.037-1.982V174.39c0-.764-.465-1.115-1.037-.784l-47.553,27.455a2.485,2.485,0,0,0-1.038,1.982v7.232C143.8,211.039,144.27,211.39,144.843,211.059Z" fill="#488eff" opacity="0.4"/>
        <path id="Path_23810" data-name="Path 23810" d="M182.486,185.67l7.1-4.1a2.409,2.409,0,0,0,1.008-1.924h0c0-.742-.451-1.083-1.008-.762l-7.1,4.1a2.411,2.411,0,0,0-1.008,1.924h0C181.478,185.65,181.929,185.991,182.486,185.67Z" fill="#d4ecff"/>
        <path id="Path_23811" data-name="Path 23811" d="M176.438,187.818c0,.742.521,1.043,1.163.672a2.57,2.57,0,0,0,1.163-2.015c0-.742-.52-1.042-1.163-.671A2.572,2.572,0,0,0,176.438,187.818Z" fill="#fff"/>
        <path id="Path_23812" data-name="Path 23812" d="M172.335,190.187c0,.742.52,1.043,1.163.672a2.572,2.572,0,0,0,1.163-2.015c0-.741-.521-1.042-1.163-.671A2.569,2.569,0,0,0,172.335,190.187Z" fill="#fff"/>
        <path id="Path_23813" data-name="Path 23813" d="M168.231,192.556c0,.742.521,1.043,1.164.672a2.572,2.572,0,0,0,1.163-2.015c0-.741-.521-1.042-1.163-.671A2.57,2.57,0,0,0,168.231,192.556Z" fill="#d4ecff"/>
        <path id="Path_23814" data-name="Path 23814" d="M164.128,194.925c0,.742.521,1.043,1.163.672a2.57,2.57,0,0,0,1.163-2.015c0-.741-.52-1.042-1.163-.671A2.572,2.572,0,0,0,164.128,194.925Z" fill="#fff"/>
        <path id="Path_23815" data-name="Path 23815" d="M146.843,207.032l2.39-1.38a1.552,1.552,0,0,0,.647-1.236v-2.529c0-.476-.29-.695-.647-.488l-2.39,1.38a1.548,1.548,0,0,0-.647,1.235v2.529C146.2,207.019,146.486,207.238,146.843,207.032Z" fill="#d4ecff"/>
      </g>
      <g id="Group_737" data-name="Group 737">
        <path id="Path_23816" data-name="Path 23816" d="M143.394,231.4l50.45-29.127a4.9,4.9,0,0,0,2.044-3.907v-9.62c0-1.505-.915-2.2-2.044-1.545l-50.45,29.127a4.9,4.9,0,0,0-2.044,3.906v9.62C141.35,231.356,142.265,232.048,143.394,231.4Z" fill="#244780"/>
        <path id="Path_23817" data-name="Path 23817" d="M144.843,228.023,192.4,200.568a2.487,2.487,0,0,0,1.037-1.982v-7.232c0-.764-.465-1.115-1.037-.784l-47.553,27.455a2.483,2.483,0,0,0-1.038,1.981v7.233C143.8,228,144.27,228.354,144.843,228.023Z" fill="#488eff" opacity="0.4"/>
        <path id="Path_23818" data-name="Path 23818" d="M182.486,202.633l7.1-4.1a2.411,2.411,0,0,0,1.008-1.924h0c0-.742-.451-1.083-1.008-.762l-7.1,4.1a2.413,2.413,0,0,0-1.008,1.925h0C181.478,202.614,181.929,202.955,182.486,202.633Z" fill="#d4ecff"/>
        <path id="Path_23819" data-name="Path 23819" d="M176.438,204.782c0,.742.521,1.042,1.163.672a2.57,2.57,0,0,0,1.163-2.015c0-.742-.52-1.042-1.163-.672A2.572,2.572,0,0,0,176.438,204.782Z" fill="#fff"/>
        <path id="Path_23820" data-name="Path 23820" d="M172.335,207.151c0,.742.52,1.042,1.163.672a2.572,2.572,0,0,0,1.163-2.015c0-.742-.521-1.042-1.163-.672A2.57,2.57,0,0,0,172.335,207.151Z" fill="#fff"/>
        <path id="Path_23821" data-name="Path 23821" d="M168.231,209.52c0,.742.521,1.043,1.164.672a2.572,2.572,0,0,0,1.163-2.015c0-.742-.521-1.042-1.163-.671A2.567,2.567,0,0,0,168.231,209.52Z" fill="#d4ecff"/>
        <path id="Path_23822" data-name="Path 23822" d="M164.128,211.889c0,.742.521,1.043,1.163.672a2.57,2.57,0,0,0,1.163-2.015c0-.742-.52-1.042-1.163-.671A2.569,2.569,0,0,0,164.128,211.889Z" fill="#fff"/>
        <path id="Path_23823" data-name="Path 23823" d="M146.843,223.995l2.39-1.38a1.548,1.548,0,0,0,.647-1.235v-2.529c0-.476-.29-.695-.647-.489l-2.39,1.38a1.552,1.552,0,0,0-.647,1.236v2.529C146.2,223.983,146.486,224.2,146.843,223.995Z" fill="#d4ecff"/>
      </g>
      <g id="Group_738" data-name="Group 738">
        <path id="Path_23824" data-name="Path 23824" d="M143.394,248.359l50.45-29.127a4.893,4.893,0,0,0,2.044-3.906v-9.62c0-1.5-.915-2.2-2.044-1.546l-50.45,29.128a4.893,4.893,0,0,0-2.044,3.906v9.62C141.35,248.319,142.265,249.011,143.394,248.359Z" fill="#244780"/>
        <path id="Path_23825" data-name="Path 23825" d="M144.843,244.986,192.4,217.532a2.487,2.487,0,0,0,1.037-1.982v-7.232c0-.764-.465-1.115-1.037-.784l-47.553,27.454a2.485,2.485,0,0,0-1.038,1.982V244.2C143.8,244.966,144.27,245.317,144.843,244.986Z" fill="#488eff" opacity="0.4"/>
        <path id="Path_23826" data-name="Path 23826" d="M182.486,219.6l7.1-4.1a2.411,2.411,0,0,0,1.008-1.925h0c0-.741-.451-1.082-1.008-.761l-7.1,4.1a2.411,2.411,0,0,0-1.008,1.925h0C181.478,219.577,181.929,219.918,182.486,219.6Z" fill="#d4ecff"/>
        <path id="Path_23827" data-name="Path 23827" d="M176.438,221.746c0,.741.521,1.042,1.163.671a2.569,2.569,0,0,0,1.163-2.014c0-.742-.52-1.043-1.163-.672A2.572,2.572,0,0,0,176.438,221.746Z" fill="#fff"/>
        <path id="Path_23828" data-name="Path 23828" d="M172.335,224.115c0,.742.52,1.042,1.163.671a2.572,2.572,0,0,0,1.163-2.014c0-.742-.521-1.043-1.163-.672A2.57,2.57,0,0,0,172.335,224.115Z" fill="#fff"/>
        <path id="Path_23829" data-name="Path 23829" d="M168.231,226.484c0,.742.521,1.042,1.164.671a2.572,2.572,0,0,0,1.163-2.014c0-.742-.521-1.043-1.163-.672A2.571,2.571,0,0,0,168.231,226.484Z" fill="#d4ecff"/>
        <path id="Path_23830" data-name="Path 23830" d="M164.128,228.853c0,.742.521,1.042,1.163.671a2.566,2.566,0,0,0,1.163-2.014c0-.742-.52-1.043-1.163-.672A2.572,2.572,0,0,0,164.128,228.853Z" fill="#fff"/>
        <path id="Path_23831" data-name="Path 23831" d="M146.843,240.959l2.39-1.38a1.548,1.548,0,0,0,.647-1.235v-2.529c0-.476-.29-.7-.647-.489l-2.39,1.38a1.548,1.548,0,0,0-.647,1.235v2.529C146.2,240.946,146.486,241.165,146.843,240.959Z" fill="#fff"/>
      </g>
      <g id="Group_739" data-name="Group 739">
        <path id="Path_23832" data-name="Path 23832" d="M143.394,265.323l50.45-29.127a4.9,4.9,0,0,0,2.044-3.906v-9.62c0-1.506-.915-2.2-2.044-1.546l-50.45,29.127a4.9,4.9,0,0,0-2.044,3.907v9.62C141.35,265.283,142.265,265.975,143.394,265.323Z" fill="#244780"/>
        <path id="Path_23833" data-name="Path 23833" d="M144.843,261.95,192.4,234.495a2.485,2.485,0,0,0,1.037-1.982v-7.232c0-.763-.465-1.115-1.037-.784l-47.553,27.455a2.485,2.485,0,0,0-1.038,1.982v7.232C143.8,261.93,144.27,262.281,144.843,261.95Z" fill="#488eff" opacity="0.4"/>
        <path id="Path_23834" data-name="Path 23834" d="M182.486,236.561l7.1-4.1a2.413,2.413,0,0,0,1.008-1.925h0c0-.742-.451-1.083-1.008-.762l-7.1,4.1a2.411,2.411,0,0,0-1.008,1.924h0C181.478,236.541,181.929,236.882,182.486,236.561Z" fill="#d4ecff"/>
        <path id="Path_23835" data-name="Path 23835" d="M175.141,239.628c0,1.4.984,1.969,2.2,1.268a4.855,4.855,0,0,0,2.2-3.8c0-1.4-.983-1.969-2.2-1.269A4.859,4.859,0,0,0,175.141,239.628Z" fill="#fff"/>
        <path id="Path_23836" data-name="Path 23836" d="M166.642,244.6c0,.742.521,1.042,1.163.671a2.569,2.569,0,0,0,1.163-2.014c0-.742-.52-1.043-1.163-.672A2.572,2.572,0,0,0,166.642,244.6Z" fill="#fff"/>
        <path id="Path_23837" data-name="Path 23837" d="M162.539,246.97c0,.742.521,1.042,1.163.671a2.572,2.572,0,0,0,1.163-2.014c0-.742-.521-1.043-1.163-.672A2.572,2.572,0,0,0,162.539,246.97Z" fill="#d4ecff"/>
        <path id="Path_23838" data-name="Path 23838" d="M158.435,249.339c0,.742.521,1.042,1.164.671A2.569,2.569,0,0,0,160.762,248c0-.742-.521-1.043-1.163-.672A2.571,2.571,0,0,0,158.435,249.339Z" fill="#fff"/>
        <path id="Path_23839" data-name="Path 23839" d="M146.843,257.923l2.39-1.38a1.548,1.548,0,0,0,.647-1.235v-2.53c0-.476-.29-.694-.647-.488l-2.39,1.38a1.548,1.548,0,0,0-.647,1.235v2.529C146.2,257.91,146.486,258.129,146.843,257.923Z" fill="#d4ecff"/>
      </g>
    </g>
    <g id="Rectangle_11" data-name="Rectangle 11" transform="translate(60.986 -39.482)" fill="#488eff" stroke="#488eff" stroke-width="1" opacity="0.03">
      <path d="M0,0H415a55,55,0,0,1,55,55V470a0,0,0,0,1,0,0H55A55,55,0,0,1,0,415V0A0,0,0,0,1,0,0Z" stroke="none"/>
      <path d="M1,.5H415A54.5,54.5,0,0,1,469.5,55V469a.5.5,0,0,1-.5.5H55A54.5,54.5,0,0,1,.5,415V1A.5.5,0,0,1,1,.5Z" fill="none"/>
    </g>
  </g>
</svg>
