<svg xmlns="http://www.w3.org/2000/svg" width="10.984" height="14.153" viewBox="0 0 10.984 14.153">
  <path id="Path_4342" data-name="Path 4342" d="M30.532,9.958a11.338,11.338,0,0,1-1.956,4.124.186.186,0,0,1-.251.039.282.282,0,0,1-.284-.273A18.241,18.241,0,0,1,28.754,7.6a11.274,11.274,0,0,1,.424-1.134A2.106,2.106,0,0,1,29.71,3.88a1.124,1.124,0,0,1,1.881.443A6.608,6.608,0,0,1,31.17,8c.173.1.315.231.507.329a1.754,1.754,0,0,0,1.555.036,1.679,1.679,0,0,0,.432-.273,3.768,3.768,0,0,0,.641-1.07c.067-.2.125-.41.184-.619a3.37,3.37,0,0,0-2.332-4.015,3.278,3.278,0,0,0-3.834,1.12,4.005,4.005,0,0,0-.393,2.856,1.881,1.881,0,0,1,.256,1.162.571.571,0,0,1-.1.192.786.786,0,0,1-1.078.072,1.224,1.224,0,0,1-.318-.385c-1.354-1.324-.279-4.308.741-5.5A5.706,5.706,0,0,1,34.422.69a5.56,5.56,0,0,1,2.2,6.838C35.693,9.693,32.695,11.084,30.532,9.958Z" transform="translate(-26.056)" fill="#232323"/>
</svg>
