<svg xmlns="http://www.w3.org/2000/svg" width="13.549" height="11.008" viewBox="0 0 13.549 11.008">
  <path id="twitter" d="M13.549,49.3a5.792,5.792,0,0,1-1.6.439,2.762,2.762,0,0,0,1.222-1.535,5.551,5.551,0,0,1-1.761.672,2.778,2.778,0,0,0-4.8,1.9,2.86,2.86,0,0,0,.064.633A7.862,7.862,0,0,1,.943,48.506,2.778,2.778,0,0,0,1.8,52.219a2.743,2.743,0,0,1-1.255-.342v.03a2.79,2.79,0,0,0,2.225,2.729,2.772,2.772,0,0,1-.728.091,2.456,2.456,0,0,1-.526-.047,2.8,2.8,0,0,0,2.6,1.935A5.581,5.581,0,0,1,.665,57.8,5.2,5.2,0,0,1,0,57.762a7.82,7.82,0,0,0,4.261,1.247,7.851,7.851,0,0,0,7.906-7.9c0-.123,0-.241-.01-.359A5.541,5.541,0,0,0,13.549,49.3Z" transform="translate(0 -48)" fill="#232323"/>
</svg>
